<svg xmlns="http://www.w3.org/2000/svg" width="310" height="82" fill="none" viewBox="0 0 310 82"><g clip-path="url(#a)"><path fill="#000" d="M97.05 39.7399V33.6499H68V64.0999H97.05V58.0099H74.52V51.5999H93.57V45.5099H74.52V39.7399H97.05ZM114.56 49.2598C114.56 43.7098 118.94 39.8398 125.21 39.8398H127.49C133.76 39.8398 138.14 43.7098 138.14 49.2598 138.14 54.8098 133.76 58.6798 127.49 58.6798H125.21C118.94 58.6798 114.56 54.8098 114.56 49.2598ZM144.67 49.2598C144.67 40.4498 137.73 33.3198 127.49 33.3198H125.21C114.97 33.3198 108.03 40.4598 108.03 49.2598 108.03 58.0598 114.96 65.1998 125.21 65.1998H127.19C130.33 65.2498 133.73 65.5398 140.58 66.5798L144.03 61.3098C142.49 61.0298 141.1 60.7998 139.84 60.5998 142.9 57.7098 144.67 53.6998 144.67 49.2598ZM185.81 33.6499V51.4899C185.81 55.3999 184.45 58.7199 182.11 61.0599 179.77 63.3999 176.46 64.7599 172.54 64.7599H168.63C160.8 64.7599 155.37 59.3199 155.37 51.4899V33.6499H161.89V51.4899C161.89 55.8399 164.67 58.6699 168.63 58.6699H172.54C176.5 58.6699 179.28 55.8399 179.28 51.4899V33.6499H185.81ZM206.85 51.2699 211.19 41.4299H211.73L216.07 51.2699H206.85ZM221.74 64.0999H228.86L215.45 33.6499H207.5L194.07 64.1099H201.2L204.24 57.2199H218.7L221.75 64.0999H221.74ZM270.57 33.6499V64.0999H264.99L245.95 43.8799V64.0999H239.42V33.6499H245.28L264.04 53.5799V33.6499H270.57ZM292.19 43.24C291.88 42.86 291.71 42.43 291.71 41.92 291.71 40.18 293.18 38.87 297.05 38.87 299.08 38.87 300.71 39.52 301.88 40.17 302.53 40.56 303.08 40.99 303.64 41.46L307.26 35.99C306.85 35.72 306.21 35.33 305.74 35.09 303.76 34.05 300.71 33 296.8 33 288.67 33 283.84 37.13 283.84 41.92 283.84 42.54 283.9 43.11 284.01 43.64 285.85 52.29 301.62 50.52 301.62 55.4 301.62 57.36 299.84 58.88 295.78 58.88 294.85 58.88 294 58.79 293.22 58.63 291.73 58.34 290.52 57.81 289.58 57.27 288.72 56.79 288 56.23 287.4 55.61L282.32 59.96C283.24 60.87 284.35 61.66 285.72 62.36 286.47 62.76 287.35 63.16 288.34 63.5 290.38 64.21 292.93 64.74 296.03 64.74 304.42 64.74 309.5 60.39 309.5 55.39 309.5 45.81 295.03 46.75 292.2 43.23"/><mask id="b" width="78" height="69" x="0" y="0" maskUnits="userSpaceOnUse" style="mask-type:luminance"><path fill="#fff" d="M0 44.23V45.25C0.07 52.32 1.55 60.08 4.57 68.42C-0.23 36.83 19.31 18.74 63.83 22.7L77.86 1.46C70.98 0.470001 64.47 0 58.36 0C22.2 0 0.27 16.78 0 44.23Z"/></mask><g mask="url(#b)"><path fill="#000" d="M74.2512 -16.3762L-14.5869 3.15613L3.36279 84.7962L92.2009 65.2639L74.2512 -16.3762Z"/></g><mask id="c" width="52" height="44" x="7" y="31" maskUnits="userSpaceOnUse" style="mask-type:luminance"><path fill="#fff" d="M8.8101 74.83C10.7401 49.59 25.5801 42.13 50.0801 43.5L58.0301 31.47C54.9301 31.16 51.9301 31 49.0301 31C21.4001 31 3.3401 45.29 8.8101 74.83Z"/></mask><g mask="url(#c)"><path fill="#000" d="M55.5242 19.5315L-5.84009 33.0233L5.87372 86.3008L67.238 72.809L55.5242 19.5315Z"/></g><mask id="d" width="33" height="30" x="12" y="52" maskUnits="userSpaceOnUse" style="mask-type:luminance"><path fill="#fff" d="M12.4301 81.08C16.6601 66.67 24.9699 59.95 38.8099 61.34L44.57 52.61C42.63 52.37 40.75 52.25 38.94 52.25C23.1 52.25 12.3999 61.37 12.4199 81.07"/></mask><g mask="url(#d)"><path fill="#000" d="M43.0959 45.5137L6.36328 53.5899L13.8919 87.8321L50.6245 79.7559L43.0959 45.5137Z"/></g></g><defs><clipPath id="a"><path fill="#fff" d="M0 0H310V82H0z"/></clipPath></defs></svg>