<svg xmlns="http://www.w3.org/2000/svg" width="310" height="65" fill="none" viewBox="0 0 310 65"><g clip-path="url(#a)"><path fill="#000" d="M14.6316 23.1698C14.6309 23.6798 14.7312 24.185 14.9267 24.6563C15.1222 25.1275 15.4092 25.5556 15.771 25.916C16.1328 26.2764 16.5625 26.562 17.0352 26.7564C17.508 26.9508 18.0146 27.0501 18.526 27.0487C19.0374 27.0504 19.5441 26.9512 20.017 26.7569C20.4899 26.5626 20.9196 26.277 21.2815 25.9166C21.6433 25.5561 21.9302 25.1279 22.1257 24.6565C22.3211 24.1852 22.4213 23.6799 22.4203 23.1698V13.8379C22.421 13.328 22.3208 12.823 22.1254 12.3519C21.93 11.8807 21.6432 11.4527 21.2816 11.0923C20.9199 10.7319 20.4905 10.4463 20.0179 10.2518C19.5454 10.0574 19.0389 9.95785 18.5277 9.959C18.0162 9.95738 17.5094 10.0566 17.0365 10.2508C16.5635 10.4451 16.1336 10.7307 15.7716 11.0911C15.4096 11.4515 15.1225 11.8797 14.9269 12.3511C14.7312 12.8225 14.6309 13.3277 14.6316 13.8379V23.1698Z"/><path fill="#000" d="M18.526 6.18554C25.3689 6.18554 30.9472 11.7422 30.9472 18.5566 30.9472 25.3711 25.3689 30.9277 18.526 30.9277 11.6849 30.9277 6.21057 25.2657 6.21057 18.4512 6.21057 11.7404 11.6849 6.18554 18.526 6.18554ZM18.526 37.0078C28.7366 37.0078 37.052 28.7265 37.052 18.5566 37.1577 8.28311 28.8423 0 18.526 0 8.3154 0 0 8.28311 0 18.4512 0 28.7265 8.3154 37.0078 18.526 37.0078ZM159.895 19.4999C160.421 16.6698 162.947 14.5722 165.79 14.4668 166.421 14.4668 167.157 14.5722 167.683 14.8884 168.212 15.0975 168.737 15.5156 169.158 15.9354 169.58 16.3553 169.79 16.9842 170 17.5077 170.105 18.1367 170.105 18.871 170 19.4999 169.894 20.2342 169.683 20.8631 169.263 21.3867 168.946 22.0156 168.421 22.5409 167.895 22.959 167.368 23.3806 166.738 23.7987 166.105 24.0077 165.473 24.2186 164.737 24.4276 164 24.4276 163.368 24.4276 162.632 24.3222 162.105 24.0077 161.567 23.7807 161.095 23.4196 160.737 22.959 160.316 22.5409 160.104 21.9119 159.895 21.3867 159.684 20.7753 159.684 20.1113 159.895 19.4999ZM39.8948 55.6698 46.4206 18.5565H58.9474L63.6855 43.4023 77.6848 18.5565H89.5793L82.9478 55.6698H73.7887L78.2097 30.6132 65.0523 55.6698H58.1073L53.4749 30.6132 49.0539 55.6698H39.8948ZM89.8946 44.3475 92.8414 27.7813H101.683L99.1576 42.0409C98.7367 43.6131 98.8406 45.2909 99.369 46.8632 99.8939 48.121 101.053 48.7499 102.842 48.7499 104.526 48.8553 106.104 48.121 107.263 46.8632 108.421 45.3945 109.263 43.6132 109.474 41.7264L111.894 27.783H120.736L115.792 55.5644H106.95L107.686 51.58C106.633 53.0487 105.16 54.3065 103.582 55.0409 101.791 55.8788 99.686 56.2987 97.6851 56.2987 96.0842 56.403 94.4845 56.0772 93.0527 55.3553 92.0012 54.83 91.1593 53.9921 90.5287 53.0487 89.7907 51.8945 89.4754 50.6367 89.4754 49.2734 89.5811 47.7011 89.685 46.0234 89.8946 44.3475ZM121.157 55.6698 127.685 18.5565H136.632L129.999 55.6698H121.157ZM139.789 27.8867 141.473 18.5565H150.315L148.631 27.783H154.947L153.79 34.3884H147.474L145.684 44.2421C145.473 45.08 145.473 45.9198 145.578 46.6523 145.578 47.1776 145.79 47.7011 146.107 48.121 146.42 48.4354 146.841 48.7499 147.264 48.7499 147.789 48.8553 148.421 48.8553 148.948 48.8553H150.42C151.053 48.8553 151.474 48.7499 152 48.7499L150.841 55.5644C150.105 55.6698 149.263 55.7752 148.316 55.8806 147.264 55.9842 146.105 55.9842 144.736 55.9842 143.685 55.9842 142.526 55.8788 141.473 55.7734 140.421 55.668 139.368 55.2499 138.42 54.621 137.474 53.8867 136.842 52.8379 136.527 51.6854 136.106 49.8926 136.106 48.0271 136.527 46.2342L138.632 34.3867 139.789 27.8867ZM154.211 55.6698 159.158 27.8867H168.001L163.049 55.6715H154.207L154.211 55.6698ZM211.895 41.7264C211.684 42.6224 211.684 43.5551 211.895 44.4511 211.999 45.2909 212.42 46.0234 212.841 46.7577 213.368 47.3867 213.895 47.9119 214.631 48.33 215.473 48.7499 216.316 48.959 217.262 48.959 218.21 48.959 219.158 48.7499 220.105 48.33 220.973 47.9052 221.786 47.3773 222.527 46.7577 223.263 46.1288 223.894 45.3945 224.315 44.4511 224.832 43.6252 225.155 42.694 225.262 41.7264 225.474 40.8298 225.474 39.8965 225.262 38.9999 225.159 38.1619 224.738 37.4276 224.315 36.6933 223.79 36.0644 223.263 35.5409 222.527 35.2264 221.683 34.8048 220.841 34.5975 219.894 34.7011 218.948 34.7011 218 34.9119 217.053 35.2264 216.211 35.6445 215.369 36.0644 214.631 36.6933 213.895 37.3222 213.368 38.0565 212.841 38.9999 212.417 39.8672 212.099 40.7827 211.895 41.7264ZM198.842 64.9999 205.474 27.8867H214.316L213.579 31.871C214.659 30.4818 216.022 29.3379 217.579 28.5156 219.369 27.5722 221.368 27.0487 223.473 27.1541 225.262 27.1541 226.948 27.4668 228.526 28.3065 229.974 29.0213 231.235 30.0617 232.211 31.3457 233.263 32.709 233.895 34.283 234.21 35.959 234.526 37.8686 234.526 39.8168 234.21 41.7264 233.874 43.7621 233.16 45.7175 232.105 47.4921 231.158 49.2734 229.895 50.7421 228.421 52.1053 227.018 53.3685 225.418 54.395 223.684 55.1445 221.991 55.8869 220.165 56.2795 218.316 56.2987 216.42 56.4041 214.527 55.8788 212.841 54.9354 211.584 54.1951 210.619 53.0483 210.106 51.6854L207.79 64.9999H198.842ZM246.001 41.7264C245.79 42.6574 245.79 43.6237 246.001 44.5548 246.105 45.3945 246.422 46.1288 246.947 46.8632 247.368 47.4921 248 48.0156 248.736 48.4354 249.578 48.8553 250.422 48.959 251.368 48.959 252.315 48.959 253.369 48.7499 254.21 48.4354 255.052 48.0156 255.894 47.5957 256.632 46.8632 257.369 46.2342 257.895 45.3945 258.42 44.5565 258.947 43.7186 259.264 42.7734 259.473 41.7264 259.685 40.783 259.685 39.8379 259.473 38.9999 259.268 38.1903 258.949 37.4138 258.526 36.6933 257.994 36.0601 257.353 35.5275 256.632 35.121 255.789 34.7011 254.843 34.4921 253.999 34.5957 253.053 34.5957 252.106 34.8065 251.158 35.121 250.316 35.5409 249.474 36.0644 248.842 36.6933 248.106 37.3222 247.579 38.1619 247.158 38.9999 246.526 39.8379 246.21 40.783 246.001 41.7264ZM237.263 41.7264C237.563 39.7294 238.242 37.8078 239.264 36.0644 240.315 34.283 241.578 32.709 243.158 31.4511 244.736 30.0879 246.631 29.0409 248.632 28.3065 250.77 27.4505 253.066 27.0571 255.368 27.1523 257.578 27.1523 259.685 27.4686 261.684 28.3065 263.368 29.0409 264.842 30.0879 265.999 31.4511 267.128 32.7694 267.89 34.3602 268.21 36.0644 268.631 37.9283 268.631 39.8624 268.21 41.7264 267.469 45.7179 265.391 49.3402 262.316 51.9999 260.736 53.3632 258.843 54.4119 256.842 55.1445 254.631 55.9842 252.421 56.2987 250.105 56.2987 247.894 56.2987 245.789 55.9825 243.79 55.1445 242.105 54.4119 240.632 53.3632 239.473 51.9999 238.346 50.6808 237.583 49.0904 237.263 47.3867 236.842 45.5232 236.842 43.5898 237.263 41.7264ZM294.842 27.8867 296.525 18.5565H305.368L303.684 27.783H310L308.843 34.3884H302.526L300.737 44.2421C300.526 45.08 300.526 45.9198 300.631 46.6523 300.631 47.1776 300.843 47.7011 301.158 48.121 301.473 48.4354 301.894 48.7499 302.315 48.7499 302.842 48.8553 303.368 48.8553 304.001 48.8553H305.473C306.106 48.8553 306.526 48.7499 307.053 48.7499L305.894 55.5644C305.264 55.6698 304.316 55.7752 303.368 55.8806 302.421 55.9842 301.158 55.9842 299.895 55.9842 298.842 55.9842 297.684 55.8788 296.631 55.7734 295.58 55.668 294.526 55.2499 293.579 54.621 292.631 53.8867 292.001 52.8379 291.683 51.6854 291.263 49.8926 291.263 48.0271 291.683 46.2342L293.79 34.3867 294.842 27.8867ZM200.632 24.7421C200.327 23.3142 199.676 21.9824 198.736 20.8631 197.685 19.693 196.393 18.7629 194.948 18.1367 193.145 17.4096 191.205 17.0875 189.264 17.1933 187.474 17.1933 185.789 17.4041 184.105 17.8222 182.421 18.2421 180.843 18.871 179.474 19.8144 178 20.7577 176.843 21.9119 175.789 23.2752 174.736 24.7421 174 26.4198 173.79 28.2011 173.473 29.7734 173.579 31.4511 174.001 32.9198 174.526 34.1776 175.263 35.33 176.316 36.1698 177.438 37.0957 178.677 37.8711 180.001 38.4764 181.458 39.1437 182.932 39.7728 184.422 40.3631 185.158 40.6776 185.894 40.9921 186.527 41.3065 187.053 41.5173 187.578 41.9354 188.105 42.2499 188.947 42.9842 189.368 44.0313 189.052 45.08 188.843 46.2342 188.21 47.1776 187.368 47.9119 186.421 48.6445 185.158 48.959 183.895 48.959 183.216 49.0017 182.536 48.8812 181.914 48.6076 181.291 48.334 180.743 47.9153 180.316 47.3867 179.474 46.1288 179.157 44.5565 179.578 43.0879H170.105C169.683 44.9764 169.788 46.9668 170.211 48.8553 170.632 50.4276 171.368 51.8945 172.525 53.1541 173.71 54.3364 175.151 55.2324 176.737 55.7734 178.566 56.4003 180.487 56.7191 182.421 56.7168 184.316 56.7168 186.315 56.4041 188.21 55.8788 189.982 55.3546 191.654 54.54 193.158 53.4686 194.632 52.4198 195.79 51.1619 196.843 49.5879 197.789 48.0156 198.527 46.3379 198.842 44.5565 199.157 42.8788 199.053 41.2011 198.527 39.6288 198.032 38.316 197.196 37.158 196.105 36.2734 194.948 35.33 193.579 34.4921 192.21 33.9668 190.736 33.3379 189.264 32.709 187.789 32.1854 186.528 31.7675 185.352 31.1286 184.316 30.2987 183.957 29.9975 183.688 29.6032 183.539 29.1592 183.391 28.7153 183.368 28.239 183.474 27.783 183.578 26.8379 184.21 25.8945 185.052 25.371 186 24.8475 186.948 24.5313 188.105 24.5313 189.264 24.4259 190.315 24.8475 191.053 25.7909 191.684 26.8379 191.789 28.0975 191.474 29.3553H200.947C200.947 27.8867 200.947 26.3144 200.632 24.7421ZM291.474 27.3631C289.473 27.3631 287.58 27.8867 285.79 28.83 284.21 29.6698 282.947 30.8222 281.894 32.2909L282.632 27.783H273.79L268.842 55.5644H277.684L279.579 44.7656C280.21 41.3048 281.369 38.8945 283.053 37.533 284.822 36.0718 287.075 35.3235 289.369 35.4354 289.79 35.4354 290.105 35.4354 290.421 35.5409L291.895 27.4668C291.789 27.4668 291.58 27.4668 291.474 27.3614V27.3631Z"/></g><defs><clipPath id="a"><path fill="#fff" d="M0 0H310V65H0z"/></clipPath></defs></svg>