<?xml version="1.0" encoding="UTF-8"?> <svg xmlns="http://www.w3.org/2000/svg" xmlns:xlink="http://www.w3.org/1999/xlink" version="1.1" id="Calque_1" x="0px" y="0px" viewBox="0 0 600 600" style="enable-background:new 0 0 600 600;" xml:space="preserve"> <style type="text/css"> .st0{fill:#FF731D;} .st1{fill:#FFFFFF;} </style> <g> <circle class="st0" cx="300.19" cy="299.97" r="300.03"></circle> </g> <g> <g> <path class="st1" d="M474.04,391.41l-49.97-42.19c1.62-3.02,2.65-6.36,2.94-9.88c0.57-6.79-1.53-13.39-5.9-18.56 c-3.2-3.81-7.37-6.54-12.05-7.94c6.94-9.28,6.86-22.47-0.91-31.7c-3.38-4.01-7.82-6.81-12.8-8.15c5.55-9.1,4.99-21.12-2.26-29.73 c-4.01-4.75-9.54-7.81-15.68-8.72c2.81-8.2,1.39-17.64-4.59-24.73c-4.36-5.19-10.52-8.35-17.32-8.93 c-6.83-0.6-13.4,1.52-18.59,5.89l-0.95,0.8l-28.64-13.36c-14.99-7.78-28.11-1.66-34.46,7.83c-2.11,3.15-3.41,6.56-4.08,10 l-6.24-5.27c-10.75-9.05-26.85-7.67-35.9,3.05c-5.98,7.09-7.4,16.53-4.59,24.73c-6.14,0.91-11.65,3.97-15.68,8.73 c-4.37,5.19-6.46,11.78-5.89,18.57c0.34,4.03,1.59,7.82,3.63,11.16c-4.83,1.3-9.34,4.03-12.8,8.14c-7.78,9.23-7.85,22.42-0.9,31.7 c-4.55,1.38-8.77,4.03-12.05,7.93c-6.92,8.19-7.72,19.51-2.94,28.45l-49.99,42.19c-2.6,2.19-2.92,6.06-0.74,8.65 c1.22,1.44,2.95,2.18,4.7,2.18c1.4,0,2.8-0.47,3.95-1.44l50.17-42.33l20.12,16.97c4.62,3.9,10.36,5.98,16.36,5.98 c0.73,0,1.47-0.04,2.2-0.1c6.78-0.58,12.93-3.74,17.28-8.92c4.38-5.17,6.48-11.76,5.91-18.56c-0.3-3.6-1.37-6.98-3.03-10.05 c5.07-1.23,9.83-3.96,13.44-8.24c4.97-5.9,6.68-13.4,5.54-20.48c0.01,0,0.01,0,0.02,0c7.16,0,14.21-2.97,19.04-8.67 c4.51-4.54,6.84-10.71,6.56-17.38c-0.01-0.22-0.09-0.43-0.1-0.64c1.01,0.12,2,0.29,3.03,0.29c0.73,0,1.47-0.03,2.21-0.1 c6.79-0.58,12.94-3.75,16.94-8.54c4.54-4.51,6.88-10.67,6.6-17.34c-0.25-6.06-2.71-11.77-6.7-16.25l35.89-30.3 c2.68-2.25,6.08-3.36,9.63-3.03c3.53,0.29,6.71,1.93,8.97,4.61c4.68,5.55,3.97,13.91-1.58,18.6l-4.64,3.93 c-0.01,0.01-0.01,0.01-0.01,0.01c-2.58,2.19-2.91,6.06-0.71,8.65c2.18,2.58,6.05,2.9,8.64,0.72l0.03-0.03 c2.66-2.23,6.08-3.28,9.56-3.01c3.54,0.29,6.73,1.93,8.99,4.6c4.69,5.57,3.98,13.91-1.58,18.6l-9.85,8.33c0,0-0.01,0.01-0.01,0.01 c-2.58,2.19-2.91,6.06-0.72,8.65c2.19,2.59,6.06,2.92,8.65,0.72h0.01c2.68-2.27,6.18-3.32,9.61-3.05c3.52,0.3,6.7,1.93,8.96,4.61 c4.68,5.56,3.97,13.91-1.58,18.6l-11.94,10.08l-0.01,0.01c-2.59,2.19-2.92,6.06-0.74,8.65c2.19,2.59,6.05,2.93,8.65,0.74 l0.02-0.01c2.68-2.25,6.05-3.3,9.6-3.03c3.52,0.3,6.7,1.93,8.96,4.62c2.26,2.68,3.35,6.1,3.05,9.61c-0.3,3.52-1.93,6.71-4.61,8.97 l-55.79,47.09c-22.77,19.22-41.54,17.19-69.75,11.58c-1.84-0.39-3.73,0.12-5.16,1.33l-84,70.91c-2.59,2.18-2.92,6.05-0.72,8.65 c1.21,1.44,2.94,2.18,4.69,2.18c1.4,0,2.8-0.47,3.96-1.45l81.75-69.01c11.65,2.25,22.31,3.81,32.61,3.43l78.39,65.6 c1.16,0.96,2.55,1.43,3.94,1.43c1.76,0,3.5-0.75,4.71-2.2c2.17-2.6,1.84-6.47-0.77-8.64l-70.07-58.64 c9.3-2.63,18.58-7.54,28.33-15.77l53.7-45.31l50.14,42.34c1.15,0.98,2.56,1.45,3.96,1.45c1.75,0,3.48-0.74,4.7-2.17 C476.95,397.46,476.63,393.59,474.04,391.41z M283.72,224.62c-4.65-3.92-3.8-11.05-0.64-15.77c1.56-2.33,7.51-9.5,18.83-3.65 l23.73,11.07l-25.91,21.88l-15.96-13.47l-0.04-0.04C283.73,224.64,283.74,224.62,283.72,224.62z M230.11,364.45 c-2.25,2.68-5.43,4.32-8.95,4.61c-3.55,0.32-6.94-0.79-9.61-3.04l-22.24-18.75c-5.55-4.71-6.26-13.06-1.57-18.6 c4.65-5.52,12.9-6.25,18.46-1.65l22.35,18.85c2.68,2.25,4.31,5.44,4.6,8.97C233.47,358.37,232.38,361.78,230.11,364.45z M246.42,327.62c-4.69,5.55-13.02,6.27-18.59,1.59l-13.56-11.44c-0.02-0.01-0.02-0.04-0.04-0.06l-0.01-0.01l-11.94-10.07 c-5.55-4.7-6.27-13.04-1.59-18.6c2.26-2.68,5.46-4.32,8.98-4.62c3.53-0.29,6.94,0.79,9.62,3.05l0.01,0.01 c0.01,0.01,0.04,0.01,0.05,0.02l25.48,21.53C250.39,313.72,251.1,322.07,246.42,327.62z M271.37,298.08 c-4.7,5.55-13.04,6.27-18.6,1.57l-25.62-21.64c-0.01-0.01-0.02-0.01-0.02-0.01l-9.78-8.25c-2.68-2.25-4.31-5.44-4.61-8.97 c-0.3-3.52,0.79-6.95,3.04-9.62c2.26-2.68,5.44-4.31,8.97-4.6c3.46-0.33,6.91,0.77,9.58,3l0.06,0.05l35.41,29.88 c2.92,2.47,4.76,6.22,4.92,10.04C274.83,292.74,273.77,295.65,271.37,298.08z M300.02,271.72c-2.25,2.68-5.43,4.31-8.96,4.61 c-3.54,0.33-6.94-0.78-9.6-3.03c-0.3-0.25-0.57-0.26-0.82-0.12c-0.92-1.07-1.86-2.15-2.95-3.07l-35.42-29.89l0,0 c-0.02-0.02-0.05-0.04-0.07-0.06l-4.59-3.86c-5.55-4.7-6.27-13.04-1.59-18.59c4.7-5.55,13.04-6.27,18.6-1.59l8.39,7.09 c0.01,0,0.01,0.01,0.01,0.01l13.33,11.26l4.12,3.48h0.01l17.97,15.18c2.92,2.46,4.75,6.22,4.92,10.05 C303.51,266.38,302.44,269.26,300.02,271.72z"></path> <path class="st1" d="M324.31,153.01c3.39,0,6.14-2.74,6.14-6.14v-32.29c0-3.39-2.74-6.14-6.14-6.14s-6.14,2.74-6.14,6.14v32.29 C318.18,150.26,320.92,153.01,324.31,153.01z"></path> <path class="st1" d="M405.64,170.65c1.89,0,3.75-0.87,4.96-2.5l19.1-26.03c2-2.73,1.41-6.57-1.32-8.58 c-2.75-2.01-6.58-1.41-8.58,1.32l-19.1,26.03c-2,2.73-1.41,6.57,1.32,8.58C403.11,170.27,404.38,170.65,405.64,170.65z"></path> <path class="st1" d="M238.04,168.15c1.2,1.64,3.06,2.5,4.95,2.5c1.26,0,2.53-0.39,3.63-1.19c2.73-2,3.32-5.84,1.31-8.57 l-19.11-26.03c-2-2.73-5.84-3.32-8.57-1.31c-2.73,2-3.32,5.84-1.31,8.57L238.04,168.15z"></path> </g> </g> </svg> 