<?xml version="1.0" encoding="UTF-8"?> <svg xmlns="http://www.w3.org/2000/svg" xmlns:xlink="http://www.w3.org/1999/xlink" version="1.1" id="Calque_1" x="0px" y="0px" viewBox="0 0 600 600" style="enable-background:new 0 0 600 600;" xml:space="preserve"> <style type="text/css"> .st0{fill:#FF731D;} .st1{fill:#FFFFFF;stroke:#FF731D;stroke-miterlimit:10;} </style> <g> <circle class="st0" cx="300.19" cy="299.97" r="300.03"></circle> </g> <path class="st1" d="M269.87,385.25l-31.52,85.06l-17.93-25.55c-1.45-2.06-4.03-2.99-6.46-2.32l-30.39,8.37l33.88-91.45 c-1.74-3.07-3.2-6.3-4.38-9.63c-0.21-0.56-0.47-1.25-0.72-1.91c-1.04-0.21-2.08-0.39-3.12-0.59l-40.88,110.34 c-1.14,3.09,0.43,6.52,3.52,7.66c1.17,0.43,2.45,0.49,3.65,0.16l37.56-10.34l22.04,31.41c1.89,2.7,5.61,3.35,8.31,1.45 c0.99-0.69,1.75-1.67,2.17-2.81l36.14-97.53c-1.82,0.09-3.64-0.01-5.44-0.3C274.07,386.88,271.91,386.2,269.87,385.25z"></path> <path class="st1" d="M395.01,347.24c-1.04,0.19-2.09,0.38-3.12,0.59c-0.26,0.65-0.51,1.34-0.72,1.9c-1.17,3.33-2.64,6.55-4.37,9.63 l33.88,91.45l-30.39-8.37c-2.43-0.67-5.01,0.26-6.46,2.32l-17.93,25.55l-31.52-85.06c-2.04,0.95-4.2,1.63-6.42,2.02 c-1.46,0.25-2.93,0.38-4.41,0.38c-0.35,0-0.68-0.04-1.02-0.06l36.13,97.51c1.14,3.09,4.58,4.66,7.66,3.52 c1.13-0.42,2.11-1.18,2.81-2.17l22.04-31.41l37.56,10.34c3.17,0.87,6.46-0.99,7.33-4.17c0.33-1.2,0.28-2.48-0.16-3.65L395.01,347.24 z"></path> <path class="st1" d="M325.91,375.52c5.71-1.01,9.9-5.55,13.61-9.86c1.63-2.26,3.68-4.17,6.03-5.65c2.84-0.4,5.74-0.24,8.52,0.46 c5.34,0.88,11.4,1.88,16.59-1.09c5.25-3.01,7.42-8.77,9.32-13.84c0.76-2.7,2.03-5.22,3.76-7.42c2.51-1.32,5.26-2.14,8.09-2.41 c5.35-0.98,11.41-2.09,15.3-6.68c3.89-4.59,3.95-10.72,4-16.12c-0.22-2.8,0.12-5.62,1-8.29c1.9-2.06,4.17-3.74,6.7-4.93 c4.72-2.75,10.06-5.86,12.15-11.55c2.06-5.61,0-11.36-1.81-16.43c-1.19-2.58-1.85-5.38-1.95-8.22c1.06-2.53,2.59-4.83,4.52-6.78 c3.5-4.21,7.48-8.98,7.48-15.11c0-6.13-3.97-10.9-7.48-15.11c-1.93-1.95-3.47-4.25-4.53-6.79c0.1-2.84,0.76-5.63,1.95-8.22 c1.81-5.07,3.87-10.82,1.81-16.43c-2.09-5.69-7.44-8.8-12.16-11.55c-2.53-1.2-4.81-2.87-6.7-4.93c-0.87-2.67-1.21-5.49-0.99-8.29 c-0.05-5.4-0.11-11.52-4-16.12c-3.89-4.59-9.95-5.7-15.29-6.68c-2.83-0.27-5.58-1.09-8.09-2.41c-1.72-2.2-3-4.73-3.76-7.42 c-1.91-5.07-4.07-10.83-9.32-13.84c-5.19-2.98-11.25-1.98-16.59-1.09c-2.78,0.71-5.68,0.86-8.52,0.46c-2.36-1.48-4.41-3.4-6.04-5.65 c-3.56-4.14-7.59-8.82-13.61-9.87c-5.84-1.01-11.15,1.97-15.83,4.6c-2.41,1.64-5.11,2.78-7.96,3.37c-2.85-0.58-5.56-1.73-7.96-3.37 c-4.68-2.63-9.97-5.6-15.83-4.6c-6.02,1.05-10.05,5.73-13.61,9.87c-1.63,2.26-3.68,4.17-6.03,5.65c-2.84,0.41-5.74,0.25-8.52-0.46 c-5.34-0.88-11.4-1.88-16.59,1.09c-5.25,3.01-7.42,8.77-9.32,13.84c-0.76,2.7-2.03,5.22-3.76,7.42c-2.51,1.32-5.26,2.14-8.09,2.41 c-5.35,0.98-11.41,2.09-15.3,6.68c-3.89,4.59-3.95,10.72-4,16.12c0.22,2.8-0.12,5.62-1,8.29c-1.9,2.06-4.17,3.74-6.7,4.93 c-4.72,2.75-10.06,5.86-12.15,11.55c-2.06,5.61,0,11.36,1.81,16.43c1.19,2.58,1.85,5.38,1.95,8.22c-1.06,2.53-2.59,4.83-4.52,6.78 c-3.5,4.21-7.48,8.98-7.48,15.11c0,6.13,3.97,10.9,7.48,15.11c1.93,1.95,3.47,4.25,4.53,6.79c-0.1,2.84-0.76,5.63-1.95,8.22 c-1.81,5.07-3.87,10.82-1.81,16.43c2.09,5.69,7.44,8.8,12.16,11.55c2.53,1.2,4.81,2.87,6.7,4.93c0.87,2.67,1.21,5.49,0.99,8.29 c0.05,5.4,0.11,11.52,4,16.12c3.89,4.59,9.95,5.7,15.29,6.68c2.83,0.27,5.58,1.09,8.09,2.41c1.72,2.2,3,4.73,3.76,7.42 c1.91,5.07,4.07,10.83,9.32,13.84c5.19,2.98,11.25,1.98,16.59,1.09c2.78-0.71,5.68-0.87,8.52-0.46c2.36,1.48,4.41,3.4,6.04,5.65 c3.56,4.14,7.59,8.82,13.61,9.87c5.84,1,11.15-1.97,15.83-4.6c2.41-1.64,5.11-2.78,7.96-3.36c2.85,0.58,5.56,1.73,7.96,3.37 C314.88,373.62,320.21,376.53,325.91,375.52z M315.92,360.53c-4.11-2.78-8.86-4.47-13.8-4.89c-4.94,0.43-9.69,2.11-13.8,4.89 c-2.8,1.57-6.27,3.55-7.96,3.24c-1.81-0.31-4.47-3.41-6.61-5.9c-2.84-3.92-6.63-7.05-11.03-9.09c-4.75-1.26-9.75-1.29-14.52-0.09 c-3.21,0.53-7.21,1.19-8.71,0.33c-1.53-0.88-2.95-4.66-4.09-7.69c-1.32-4.69-3.83-8.96-7.29-12.39c-4.03-2.79-8.7-4.5-13.57-4.98 c-3.22-0.59-7.21-1.32-8.35-2.66c-1.11-1.31-1.15-5.31-1.18-8.52c0.37-4.88-0.53-9.77-2.62-14.19c-2.82-3.97-6.6-7.14-11-9.22 c-2.83-1.65-6.35-3.7-6.96-5.35c-0.57-1.55,0.77-5.3,1.84-8.3c2.04-4.48,2.89-9.41,2.46-14.31c-1.26-4.66-3.71-8.91-7.1-12.34 c-2.1-2.52-4.72-5.66-4.72-7.48s2.62-4.95,4.72-7.48c3.39-3.43,5.84-7.68,7.1-12.34c0.43-4.9-0.42-9.83-2.46-14.31 c-1.08-3.01-2.41-6.75-1.84-8.3c0.61-1.66,4.13-3.71,6.96-5.36c4.4-2.08,8.18-5.26,11-9.23c2.09-4.42,2.99-9.31,2.62-14.19 c0.03-3.22,0.07-7.21,1.18-8.52c1.13-1.34,5.14-2.07,8.35-2.66c4.87-0.48,9.54-2.19,13.57-4.98c3.46-3.44,5.97-7.7,7.29-12.39 c1.14-3.03,2.56-6.81,4.09-7.69c1.5-0.87,5.5-0.2,8.71,0.33c4.77,1.2,9.76,1.17,14.52-0.09c4.39-2.04,8.19-5.17,11.03-9.09 c2.14-2.49,4.8-5.58,6.61-5.9c1.64-0.3,5.15,1.67,7.96,3.24c4.11,2.78,8.86,4.47,13.8,4.89c4.94-0.43,9.69-2.11,13.8-4.89 c2.8-1.57,6.27-3.55,7.96-3.24c1.81,0.31,4.47,3.41,6.61,5.9c2.84,3.92,6.63,7.05,11.03,9.09c4.75,1.26,9.75,1.29,14.52,0.09 c3.21-0.53,7.21-1.19,8.71-0.33c1.53,0.88,2.95,4.66,4.09,7.69c1.32,4.69,3.83,8.96,7.29,12.39c4.03,2.79,8.7,4.5,13.57,4.98 c3.22,0.59,7.21,1.32,8.35,2.66c1.11,1.31,1.15,5.31,1.18,8.52c-0.37,4.88,0.53,9.77,2.62,14.19c2.82,3.97,6.6,7.14,11,9.22 c2.83,1.65,6.35,3.7,6.96,5.35c0.57,1.55-0.77,5.3-1.84,8.3c-2.04,4.48-2.89,9.41-2.46,14.31c1.26,4.66,3.71,8.91,7.1,12.34 c2.1,2.52,4.72,5.66,4.72,7.48c0,1.81-2.62,4.95-4.72,7.48c-3.39,3.43-5.84,7.68-7.1,12.34c-0.43,4.9,0.42,9.83,2.46,14.31 c1.08,3.01,2.41,6.75,1.84,8.3c-0.61,1.66-4.13,3.71-6.96,5.36c-4.4,2.08-8.18,5.26-11,9.23c-2.09,4.42-2.99,9.31-2.62,14.19 c-0.03,3.22-0.07,7.21-1.18,8.52c-1.13,1.34-5.14,2.07-8.35,2.66c-4.87,0.48-9.54,2.19-13.57,4.98c-3.46,3.44-5.97,7.7-7.29,12.39 c-1.14,3.03-2.56,6.81-4.09,7.69c-1.51,0.86-5.5,0.2-8.71-0.33c-4.77-1.2-9.76-1.17-14.52,0.09c-4.39,2.04-8.19,5.17-11.03,9.09 c-2.14,2.49-4.8,5.58-6.61,5.9C322.24,364.07,318.73,362.11,315.92,360.53z"></path> <path class="st1" d="M385.59,241.59c0-46.1-37.37-83.47-83.46-83.47c-46.1,0-83.47,37.37-83.47,83.46s37.37,83.47,83.46,83.47 c0,0,0,0,0,0C348.2,325,385.53,287.66,385.59,241.59z M302.12,313.13c-39.51,0-71.54-32.03-71.54-71.54 c0-39.51,32.03-71.54,71.54-71.54c39.51,0,71.54,32.03,71.54,71.54C373.62,281.08,341.61,313.08,302.12,313.13z"></path> <path class="st1" d="M352.51,226.93c-0.7-2.17-2.58-3.76-4.84-4.08l-27.81-3.97l-12.42-24.69c-1.48-2.94-5.06-4.13-8-2.65 c-1.14,0.58-2.07,1.5-2.65,2.65l-12.42,24.69l-27.81,3.97c-3.26,0.46-5.53,3.48-5.06,6.74c0.19,1.32,0.82,2.54,1.78,3.47 l20.06,19.19l-4.73,27.06c-0.57,3.24,1.6,6.33,4.84,6.9c1.28,0.22,2.6,0.02,3.76-0.58l24.9-12.85l24.9,12.85 c2.02,1.01,4.43,0.82,6.26-0.49c1.82-1.34,2.73-3.6,2.34-5.83l-4.73-27.06l20.06-19.19C352.6,231.48,353.21,229.1,352.51,226.93z M320.36,245.83c-1.44,1.37-2.09,3.38-1.75,5.33l3.21,18.37l-16.96-8.75c-1.72-0.85-3.74-0.85-5.47,0l-16.96,8.75l3.21-18.37 c0.34-1.96-0.31-3.96-1.75-5.33l-13.49-12.91l18.75-2.67c1.93-0.28,3.61-1.48,4.48-3.22l8.49-16.88l8.49,16.88 c0.88,1.74,2.55,2.95,4.48,3.22l18.75,2.67L320.36,245.83z"></path> </svg> 