<?xml version="1.0" encoding="UTF-8"?> <svg xmlns="http://www.w3.org/2000/svg" xmlns:xlink="http://www.w3.org/1999/xlink" version="1.1" id="Calque_1" x="0px" y="0px" viewBox="0 0 600 600" style="enable-background:new 0 0 600 600;" xml:space="preserve"> <style type="text/css"> .st0{fill:#FF731D;} .st1{fill:#FFFFFF;stroke:#FF731D;stroke-width:2;stroke-miterlimit:10;} </style> <g> <circle class="st0" cx="300.19" cy="299.97" r="300.03"></circle> </g> <g> <path class="st1" d="M300.68,179.01c26.68,0,50.84,10.82,68.32,28.3c17.48,17.48,28.3,41.64,28.3,68.32 c0,39.61-13.01,61.19-26.18,83.05c-12.35,20.49-24.88,41.28-24.88,79.64c0,7.84-3.21,14.97-8.38,20.15 c-3.27,3.28-7.32,5.77-11.84,7.17c-0.91,5.7-3.24,10.66-6.52,14.52l-0.21,0.24c-4.73,5.43-11.3,8.62-18.61,8.62 c-7.36,0-14.02-3.27-18.78-8.86c-3.43-4.03-5.83-9.27-6.66-15.26c-3.66-1.46-6.96-3.66-9.71-6.41c-5.17-5.18-8.38-12.31-8.38-20.15 c0-37.68-12.78-57.89-25.48-77.99c-13.84-21.89-27.61-43.67-27.61-84.7c0-26.68,10.82-50.84,28.3-68.32S274,179.01,300.68,179.01z M300.68,245.03c9.45,0,18.02,3.85,24.23,10.06c6.23,6.2,10.09,14.79,10.09,24.26c0,9.45-3.85,18.02-10.05,24.23 c-4.39,4.39-9.95,7.6-16.14,9.12v80.57h27.46c5.26-16.97,13.14-30.03,20.94-42.98c11.99-19.89,23.83-39.53,23.83-74.67 c0-22.19-9-42.28-23.53-56.82c-14.54-14.54-34.63-23.53-56.82-23.53c-22.19,0-42.29,9-56.82,23.53s-23.53,34.63-23.53,56.82 c0,36.42,12.5,56.2,25.06,76.06c7.96,12.59,15.94,25.22,21.34,41.58h25.82V312.7c-6.2-1.52-11.75-4.72-16.12-9.1 c-6.23-6.19-10.07-14.77-10.07-24.25c0-9.45,3.85-18.03,10.07-24.25C282.62,248.87,291.2,245.03,300.68,245.03z M313.46,266.58 c-3.26-3.26-7.78-5.28-12.77-5.28c-4.99,0-9.51,2.02-12.77,5.29c-3.28,3.24-5.29,7.76-5.29,12.77c0,4.99,2.02,9.51,5.29,12.77 c3.24,3.28,7.76,5.29,12.77,5.29c4.99,0,9.52-2.02,12.79-5.28c3.25-3.26,5.27-7.79,5.27-12.78 C318.74,274.37,316.71,269.85,313.46,266.58z M166.89,314.8c4.49,0,8.13,3.64,8.13,8.13c0,4.49-3.64,8.13-8.13,8.13h-38.45 c-4.49,0-8.13-3.64-8.13-8.13c0-4.49,3.64-8.13,8.13-8.13H166.89z M435.42,331.07c-4.49,0-8.13-3.64-8.13-8.13 c0-4.49,3.64-8.13,8.13-8.13h38.45c4.49,0,8.13,3.64,8.13,8.13c0,4.49-3.64,8.13-8.13,8.13H435.42z M187.86,198.62 c3.17,3.17,3.17,8.32,0,11.5c-3.17,3.17-8.32,3.17-11.5,0l-27.19-27.19c-3.17-3.17-3.17-8.32,0-11.5c3.17-3.17,8.32-3.17,11.5,0 L187.86,198.62z M424.99,210.12c-3.17,3.17-8.32,3.17-11.5,0s-3.17-8.32,0-11.5l27.19-27.19c3.17-3.17,8.32-3.17,11.5,0 c3.17,3.17,3.17,8.32,0,11.5C452.19,182.93,424.99,210.12,424.99,210.12z M308.81,155.25c0,4.49-3.64,8.13-8.13,8.13 s-8.13-3.64-8.13-8.13V116.8c0-4.49,3.64-8.13,8.13-8.13s8.13,3.64,8.13,8.13V155.25z M308.85,466.88H292.5 c0.47,1.05,1.05,1.98,1.72,2.78c1.65,1.94,3.95,3.08,6.46,3.08c2.44,0,4.69-1.09,6.34-2.97l0.08-0.1 C307.79,468.87,308.37,467.94,308.85,466.88z M332.35,409.53H270.9c1.6,8.51,2.51,17.99,2.51,28.78c0,3.4,1.39,6.49,3.62,8.72 c2.21,2.21,5.28,3.59,8.66,3.59h32c3.39,0,6.45-1.38,8.66-3.59c2.23-2.23,3.62-5.32,3.62-8.72 C329.97,427.56,330.84,418.07,332.35,409.53z"></path> </g> </svg> 