<?xml version="1.0" encoding="UTF-8"?> <svg xmlns="http://www.w3.org/2000/svg" xmlns:xlink="http://www.w3.org/1999/xlink" version="1.1" id="Calque_1" x="0px" y="0px" viewBox="0 0 600 600" style="enable-background:new 0 0 600 600;" xml:space="preserve"> <style type="text/css"> .st0{fill:#FF731D;} .st1{fill:#FFFFFF;stroke:#FF731D;stroke-width:2;stroke-miterlimit:10;} </style> <g> <circle class="st0" cx="300.19" cy="299.97" r="300.03"></circle> </g> <path class="st1" d="M487.84,325.74c0-3.62-0.52-7.35-1.5-10.87c-4.71-16.82-19.62-27.85-37.99-28.05 c-14.18-0.16-28.36,0.1-42.55-0.1c-9.89-0.1-19.41,0.93-28,6.37c-0.21,0.16-0.62,0-1.55,0c0-2.95,0.16-5.9,0-8.8 c-0.41-5.64-0.31-11.44-1.71-16.87c-5.38-20.81-24.17-34.99-46.17-35.14c-21.33-0.1-42.7,0-64.03,0.05c-3.21,0-6.47,0.41-9.63,0.98 c-20.45,3.88-36.08,21.38-37.32,41.77c-0.31,5.02-0.47,10.04-0.72,15.01c-0.05,1.04-0.31,2.07-0.52,3.31 c-0.93-0.31-1.45-0.41-1.86-0.67c-7.35-4.45-15.37-6.11-23.96-6c-7.87,0.1-15.73-0.05-23.55,0c-8.85,0.05-17.75,0-26.6,0.47 c-9.06,0.47-16.67,4.4-23.24,10.46c-3.93,3.67-6.78,7.97-7.71,13.25c-0.98,5.43-2.02,10.87-2.48,16.36 c-1.86,20.65-1.97,41.41-1.45,62.11c0,1.81,0.21,3.67,0.52,5.49c0.88,5.38,3.31,7.56,8.85,7.71c1.35,0,2.74,0,4.09,0 c54.3,0,108.59,0,162.94,0c1.19,0,2.38,0.1,3.57,0c2.12-0.21,3.31,0.67,4.55,2.38c3.11,4.19,6.21,8.39,9.89,12.06 c17.24,17.13,34.68,34.16,52.07,51.14c1.55,1.5,3.31,2.95,5.12,4.09c5.75,3.62,11.59,3.52,17.29-0.21c1.71-1.09,3.26-2.43,4.71-3.83 c13.92-13.56,27.85-27.12,41.61-40.79c7.87-7.82,16.61-14.91,22.1-24.84c2.12,0,3.99,0,5.85,0c10.25,0,20.5,0.05,30.75,0 c5.8-0.05,8.85-2.95,8.8-8.13c-0.05-22.88-0.05-45.81-0.26-68.69L487.84,325.74z M216.62,382.68c0,1.14-0.1,2.33-0.21,3.99h-94.93 c-0.1-1.6-0.31-3.05-0.31-4.5c0-18.74-0.05-37.42,0-56.16c0-14.13,9.68-23.5,24.17-23.55c15.68-0.05,31.42,0.16,47.1-0.05 c13.87-0.21,24.53,10.46,24.28,23.6c-0.36,18.89-0.1,37.78-0.1,56.63L216.62,382.68z M282.82,386.51h-49.79 c-0.1-1.45-0.31-2.9-0.31-4.35c0-34.11-0.05-68.17,0-102.28c0-18.37,13.51-31.73,32.14-31.83c20.5-0.1,40.99,0,61.44-0.05 c8.13,0,15.58,1.71,22,6.83c7.09,5.69,11.49,12.99,11.59,22c0.26,19.05,0.05,38.1,0.05,57.14c0,0.31-0.16,0.62-0.31,1.35 c-37.47-18.79-80.95,8.75-76.86,51.24L282.82,386.51z M426.72,399.04c-1.29,1.76-2.69,3.47-4.24,5.02 c-18.32,18.01-36.65,35.97-54.97,53.99c-0.62,0.57-1.29,1.09-2.12,1.76c-1.09-0.93-2.12-1.71-3.11-2.64 c-17.75-17.39-35.4-34.83-53.21-52.17c-7.82-7.66-11.9-16.72-10.77-27.59c1.4-13.3,7.25-24.02,20.39-29.61 c13.46-5.75,26.29-4.55,38.1,4.24c0.52,0.41,1.04,0.88,1.55,1.29c5.8,4.71,8.07,4.81,13.77,0.05c12.22-10.14,25.62-11.49,40.17-5.59 c18.37,7.45,26.76,34.42,14.34,51.19L426.72,399.04z M471.7,385.06c0,0.31-0.1,0.62-0.36,1.81h-23.45 c1.24-19.25-4.35-35.51-20.03-47.15c-15.48-11.49-32.71-13.15-51.19-6.99c-1.19-8.95-0.41-16.98,6.16-23.55 c4.24-4.24,9.47-6.68,15.53-6.73c17.08-0.1,34.16-0.21,51.19,0.05c12.16,0.21,21.95,9.58,22.1,21.38c0.26,20.39,0.05,40.79,0,61.13 L471.7,385.06z"></path> <path class="st1" d="M296.8,216.63c26.35-0.05,47.77-21.33,47.57-47.15c-0.16-25.72-21.95-46.69-48.34-46.48 c-26.09,0.16-47.67,21.53-47.41,46.84c0.26,25.83,21.95,46.89,48.14,46.84L296.8,216.63z M296.85,138.74 c17.86,0,32.25,14.08,32.19,31.47c0,17.34-14.7,31.57-32.4,31.37c-17.6-0.21-31.88-14.18-31.99-31.31 c-0.1-17.39,14.34-31.52,32.19-31.57L296.85,138.74z"></path> <path class="st1" d="M168.59,271.24c22.1,0.21,40.27-17.44,40.27-39.03c0-21.38-17.91-38.98-39.75-39.03 c-21.95,0-39.86,17.34-39.91,38.77c-0.1,21.53,17.55,39.08,39.44,39.29L168.59,271.24z M169.21,208.97 c13.41,0.05,23.86,10.61,23.71,23.81c-0.16,12.78-11.02,23.19-24.07,23.03c-13.1-0.16-23.76-10.61-23.81-23.4 C144.99,219.43,155.81,208.87,169.21,208.97z"></path> <path class="st1" d="M424.08,271.14c21.84-0.16,38.56-18.43,38.35-39.08c0-19.98-15.99-38.56-38.2-38.72 c-21.53-0.16-38.61,17.65-38.61,38.82C385.62,254.16,403.58,271.24,424.08,271.14z M423.56,209.03 c13.41-0.16,24.28,10.2,24.33,23.24c0,12.78-10.56,23.24-23.71,23.29c-13.15,0.05-23.81-10.09-24.07-22.98 C399.85,219.84,410.46,209.18,423.56,209.03z"></path> </svg> 