<svg class="img-fluid" id="outputsvg" xmlns="http://www.w3.org/2000/svg" style="transform: matrix(0.769231, 0, 0, 0.769231, 0, 0); transform-origin: 50% 50%; cursor: move; transition: transform 200ms ease-in-out;" width="3000" height="2010" viewBox="0 0 30000 20100"><g id="l1DQUWN35ILTFZRvebZzyUf" fill="rgb(0,0,0)" style="transform: none;"><g><path id="p8UXAvv85" d="M3170 13049 c-395 -48 -781 -188 -1179 -428 -518 -313 -888 -671 -1238 -1196 -507 -762 -741 -1526 -720 -2354 6 -240 22 -358 84 -596 143 -558 439 -975 878 -1240 143 -86 321 -159 518 -212 l102 -28 360 0 c334 1 367 2 462 23 284 62 485 137 806 300 210 107 230 115 250 102 196 -123 535 -273 789 -349 258 -76 256 -76 653 -76 400 0 423 2 620 67 672 218 1131 763 1284 1523 11 55 34 183 52 285 30 175 31 194 26 360 -11 315 -91 765 -194 1085 -147 457 -385 912 -683 1305 -48 63 -100 135 -115 160 -38 60 -375 401 -498 503 -260 216 -669 463 -977 590 -170 70 -386 130 -585 163 -117 19 -577 28 -695 13z m608 -618 c608 -154 964 -684 1007 -1501 15 -275 -44 -688 -141 -997 -41 -131 -30 -131 -244 8 -252 163 -502 322 -637 402 -151 91 -149 92 -293 -113 -109 -156 -131 -199 -137 -271 -5 -53 -3 -60 21 -82 15 -14 69 -49 119 -78 51 -28 308 -185 572 -347 846 -521 789 -493 852 -425 38 39 130 224 213 423 29 69 60 139 70 155 43 70 144 465 179 700 51 337 54 704 7 1020 -13 94 -21 174 -17 178 10 10 100 -98 241 -287 368 -494 588 -1016 682 -1616 30 -193 33 -626 5 -785 -107 -611 -413 -1017 -885 -1175 -177 -59 -478 -85 -652 -56 -143 24 -388 87 -485 126 -794 314 -1515 1073 -1869 1967 -179 452 -267 1002 -226 1403 24 229 95 479 195 687 69 144 99 187 215 307 194 200 354 299 565 350 119 29 194 35 380 31 142 -2 198 -7 263 -24z m-2182 -943 c-3 -13 -13 -59 -23 -103 -16 -71 -18 -135 -18 -550 0 -452 1 -475 23 -590 37 -188 107 -458 135 -517 14 -29 55 -130 92 -223 174 -440 360 -761 721 -1240 29 -38 121 -142 205 -230 84 -88 163 -172 177 -187 l24 -26 -41 -22 c-63 -31 -281 -116 -374 -144 -196 -59 -275 -70 -527 -70 -252 -1 -318 7 -471 59 -165 57 -341 176 -489 332 -142 150 -221 300 -303 573 -75 249 -103 463 -94 720 27 772 353 1566 893 2177 58 66 77 78 70 41z"></path><path id="pMB5Tqoiq" d="M27460 12819 c-238 -31 -512 -156 -565 -260 -8 -15 -15 -36 -15 -46 0 -47 173 -328 232 -378 49 -41 103 -33 258 41 l125 59 115 0 c98 -1 123 -4 165 -23 65 -30 120 -84 155 -152 33 -66 87 -247 76 -257 -4 -5 -87 -10 -184 -13 -97 -3 -183 -9 -191 -14 -37 -24 -114 -255 -494 -1476 -251 -804 -261 -843 -236 -895 20 -43 56 -47 379 -49 375 -1 350 -13 430 193 22 57 110 350 196 650 200 705 274 954 284 965 13 14 56 -135 260 -909 217 -825 222 -841 273 -879 27 -20 40 -21 310 -21 307 0 336 4 356 53 14 33 -4 100 -299 1117 -115 396 -267 923 -339 1170 -139 481 -175 583 -253 703 -64 98 -223 255 -308 305 -175 101 -475 149 -730 116z"></path><path id="pkJe4dWY2" d="M13241 11850 c-147 -15 -259 -48 -381 -114 -14 -7 -47 -24 -75 -37 -76 -36 -240 -163 -335 -259 -123 -123 -224 -282 -287 -449 -13 -36 -33 -85 -44 -109 -28 -61 -42 -253 -30 -419 8 -113 14 -139 49 -228 22 -55 51 -132 66 -172 15 -40 49 -108 75 -152 179 -296 447 -491 812 -588 96 -26 118 -28 289 -27 419 0 725 117 981 374 182 183 287 380 345 650 23 107 26 389 5 495 -68 344 -264 630 -556 812 -109 68 -286 154 -375 182 -123 39 -365 57 -539 41z m282 -686 c40 -9 110 -34 157 -56 114 -55 221 -159 273 -268 46 -96 56 -144 57 -255 0 -210 -35 -294 -184 -439 -115 -114 -170 -148 -282 -176 -136 -35 -270 -23 -384 35 -63 32 -179 140 -238 223 -66 93 -93 175 -99 302 -11 211 34 339 166 470 149 149 340 207 534 164z"></path><path id="pNhovub3n" d="M19500 11854 c-193 -24 -357 -64 -367 -91 -3 -8 -38 -30 -77 -48 -221 -101 -413 -294 -540 -545 -101 -198 -138 -360 -139 -600 -1 -177 14 -271 70 -445 67 -209 159 -360 301 -497 173 -166 339 -251 616 -315 87 -20 136 -26 226 -25 259 2 450 73 626 233 l79 72 7 -87 c11 -144 18 -147 370 -147 289 0 312 4 329 59 15 48 24 1680 12 2055 -9 257 -10 269 -31 290 -22 22 -29 22 -305 25 -214 2 -288 -1 -307 -10 -37 -19 -60 -75 -67 -167 l-6 -81 -69 66 c-143 134 -254 201 -391 235 -80 19 -263 32 -337 23z m441 -706 c243 -90 391 -327 376 -598 -6 -99 -34 -215 -68 -281 -26 -52 -137 -168 -218 -229 -48 -36 -85 -54 -141 -69 -140 -38 -314 -21 -418 41 -72 43 -177 147 -230 228 -67 102 -74 141 -70 358 l3 187 33 67 c82 167 238 289 412 322 14 2 77 3 140 2 93 -3 128 -8 181 -28z"></path><path id="pQgbKwUJY" d="M22330 11854 c-385 -58 -692 -254 -897 -573 -129 -200 -197 -448 -197 -721 1 -241 38 -409 140 -615 168 -342 480 -576 859 -641 127 -23 360 -15 470 16 153 42 258 100 377 209 36 33 68 61 71 61 3 0 7 -273 9 -607 3 -585 4 -610 23 -648 15 -29 28 -41 53 -48 18 -4 150 -7 292 -5 251 3 260 4 281 25 13 12 25 42 30 70 22 141 18 3322 -5 3375 -4 9 -15 20 -24 24 -26 13 -553 17 -584 5 -40 -15 -61 -64 -67 -162 l-6 -87 -95 85 c-167 148 -292 210 -470 232 -81 11 -207 13 -260 5z m430 -690 c153 -45 271 -146 345 -297 57 -116 69 -179 62 -337 -4 -94 -10 -139 -26 -181 -57 -152 -217 -319 -352 -370 -74 -28 -220 -43 -308 -30 -112 15 -189 58 -292 160 -137 138 -190 267 -190 466 0 127 15 197 66 300 78 160 229 272 408 305 70 12 220 4 287 -16z"></path><path id="pJGzsIZnA" d="M25180 11854 c-112 -16 -175 -30 -235 -51 -267 -96 -522 -303 -707 -574 -54 -78 -116 -259 -149 -430 -19 -99 -21 -135 -16 -274 8 -211 49 -391 131 -570 41 -89 220 -311 307 -381 137 -111 295 -197 440 -242 142 -44 456 -53 593 -17 137 36 259 103 375 206 51 45 78 64 83 56 4 -7 8 -282 8 -612 l0 -601 40 -39 41 -40 257 -3 c283 -4 321 1 341 45 28 62 32 297 28 1800 -4 1568 -5 1605 -42 1643 -22 22 -583 23 -609 1 -31 -26 -49 -74 -55 -150 -3 -41 -11 -76 -17 -78 -6 -2 -48 29 -95 69 -172 150 -269 201 -437 234 -67 13 -218 17 -282 8z m417 -690 c163 -42 296 -169 391 -372 26 -55 27 -64 27 -227 l0 -170 -31 -50 c-17 -27 -46 -76 -65 -109 -66 -114 -207 -234 -317 -270 -122 -40 -290 -25 -418 38 -101 51 -213 169 -274 291 l-45 90 0 186 0 186 52 105 c76 153 163 236 305 290 104 39 252 44 375 12z"></path><path id="p3U9z72Ic" d="M9760 11843 c-159 -16 -312 -64 -515 -163 -219 -106 -336 -189 -506 -359 -171 -172 -228 -246 -303 -395 -140 -280 -190 -510 -190 -871 -1 -333 44 -536 183 -827 70 -147 134 -232 301 -398 241 -242 370 -328 685 -460 303 -127 556 -161 927 -125 252 24 328 41 488 107 80 33 183 80 230 103 281 141 506 366 654 657 66 128 77 172 50 198 -35 34 -384 178 -546 225 -82 23 -97 14 -189 -125 -197 -295 -479 -456 -837 -476 -352 -20 -618 73 -838 291 -125 124 -212 269 -276 458 -37 112 -49 268 -38 483 10 168 32 256 100 401 59 125 93 176 182 269 171 180 387 277 675 305 191 18 435 -22 591 -96 170 -81 375 -250 310 -256 -7 -1 -111 -4 -230 -8 -197 -5 -219 -8 -244 -27 -64 -47 -69 -63 -72 -223 -4 -173 7 -248 44 -297 l27 -35 696 3 c535 2 701 6 718 16 15 8 24 27 30 60 13 81 9 1338 -5 1407 -21 101 -11 98 -303 99 l-252 1 -31 -50 -31 -50 -3 -182 c-2 -101 -6 -183 -9 -183 -3 0 -45 38 -94 84 -140 134 -349 264 -555 345 -131 52 -234 77 -368 90 -101 10 -374 13 -456 4z"></path><path id="pcqStZ1VN" d="M14976 11758 c-31 -52 -35 -253 -35 -1888 l-1 -1525 34 -23 c18 -12 48 -27 67 -33 47 -13 1328 -13 1484 1 310 27 670 137 908 277 273 160 463 365 607 656 127 255 158 384 167 697 11 380 -20 591 -122 827 -96 223 -205 383 -363 534 -205 197 -453 331 -782 423 -286 79 -376 85 -1290 86 l-656 0 -18 -32z m1544 -668 c260 -25 513 -153 656 -331 28 -35 68 -89 90 -119 21 -30 48 -68 61 -83 27 -33 77 -187 100 -307 19 -103 21 -313 4 -425 -19 -117 -54 -219 -108 -312 -180 -310 -446 -491 -768 -523 -132 -13 -840 -19 -852 -7 -4 5 -9 483 -11 1063 l-3 1054 368 0 c202 0 411 -5 463 -10z"></path><path id="pKZv0Idhd" d="M29726 9052 c-12 -19 -17 -127 -9 -187 6 -44 12 -61 25 -63 25 -5 54 30 75 87 10 28 20 51 24 51 3 0 16 -19 29 -42 32 -60 60 -88 85 -88 28 0 35 30 35 152 0 70 -3 90 -15 94 -30 12 -45 -15 -45 -82 0 -35 -4 -64 -8 -64 -4 0 -20 25 -35 55 -15 30 -31 55 -36 55 -5 0 -26 -26 -48 -57 l-38 -58 -5 67 c-5 65 -21 101 -34 80z"></path></g></g></svg>