<svg class="img-fluid" id="outputsvg" xmlns="http://www.w3.org/2000/svg" style="transform: matrix(1, 0, 0, 1, 0, 0); transform-origin: 50% 50%; cursor: move; transition: transform 200ms ease-in-out;" width="2000" height="656" viewBox="0 0 20000 6560"><g id="l2sWet1iI1HCfmrPbUjmZJZ" fill="rgb(87,127,192)" style="transform: none;"><g style="transform: none;"><path id="plBurWfCw" d="M13700 6535 c-458 -63 -832 -305 -1096 -711 -66 -101 -131 -221 -124 -226 3 -3 141 -61 308 -130 l303 -126 31 61 c124 248 332 422 588 493 99 28 366 25 475 -5 90 -24 203 -75 267 -120 111 -76 220 -216 273 -348 54 -135 66 -217 72 -485 3 -146 2 -248 -3 -248 -5 0 -43 34 -84 75 -167 169 -358 264 -601 299 -716 106 -1432 -355 -1676 -1079 -63 -187 -78 -293 -77 -535 0 -183 3 -230 22 -317 81 -373 280 -711 555 -942 197 -165 407 -272 647 -328 131 -30 392 -42 520 -24 239 35 450 135 616 293 39 37 74 65 77 61 4 -3 7 -66 7 -140 l0 -133 335 0 336 0 -4 1593 c-3 1663 -2 1626 -47 1849 -152 748 -711 1193 -1493 1187 -73 -1 -175 -7 -227 -14z m428 -2100 c162 -34 301 -106 419 -219 157 -148 246 -318 289 -551 24 -133 15 -375 -19 -506 -80 -306 -284 -544 -558 -652 -435 -172 -958 81 -1135 548 -107 285 -94 616 36 881 127 261 350 438 626 498 90 19 255 20 342 1z"></path><path id="p12yCJs6Up" d="M2335 5070 c-605 -67 -1117 -303 -1538 -710 -647 -623 -921 -1528 -720 -2375 152 -642 582 -1235 1153 -1590 313 -195 644 -312 1030 -366 133 -19 513 -17 655 4 410 58 792 205 1110 425 88 61 214 163 258 210 l29 30 -238 246 -237 245 -58 -53 c-171 -159 -457 -312 -709 -380 -597 -161 -1228 -16 -1692 388 -490 427 -716 1114 -587 1784 150 779 788 1365 1589 1462 108 13 319 13 435 0 300 -35 583 -134 815 -288 107 -70 300 -261 369 -364 132 -199 229 -471 243 -683 l3 -50 -827 -3 -828 -2 0 -335 0 -335 1163 2 1162 3 14 70 c22 116 21 610 -3 760 -106 692 -469 1243 -1041 1584 -255 152 -559 256 -897 307 -121 18 -534 27 -653 14z"></path></g></g><g id="l7IAcUnUzK8RpSCjVT5xCH9" fill="rgb(221,50,55)" style="transform: none;"><g style="transform: none;"><path id="pCxQN6FRv" d="M6650 5070 c-578 -71 -1032 -382 -1279 -877 -324 -647 -193 -1434 318 -1921 276 -263 604 -406 1011 -442 367 -33 775 76 1092 291 129 88 316 276 401 404 118 180 194 365 239 587 20 99 23 142 23 343 -1 200 -4 244 -24 335 -92 430 -324 780 -669 1011 -199 133 -403 213 -652 255 -106 19 -361 26 -460 14z m330 -631 c325 -52 614 -303 725 -630 73 -213 74 -503 2 -714 -108 -316 -352 -542 -673 -622 -103 -25 -303 -23 -417 5 -339 84 -589 338 -689 700 -18 65 -22 106 -22 267 -1 169 2 199 22 275 93 339 310 581 617 685 122 41 302 56 435 34z"></path><path id="pEUBUM7w0" d="M18380 5064 c-353 -48 -670 -204 -915 -450 -229 -230 -361 -486 -432 -839 -25 -128 -26 -531 0 -655 30 -146 66 -268 113 -376 205 -482 613 -808 1124 -901 129 -23 372 -23 500 0 287 53 541 189 755 403 170 171 255 305 381 599 70 162 79 191 65 197 -120 48 -2166 899 -2169 902 -12 13 88 163 165 246 152 164 340 246 593 257 202 9 370 -31 529 -124 77 -45 220 -178 276 -257 22 -30 43 -56 48 -56 4 0 129 81 278 180 l270 181 -33 47 c-56 79 -278 293 -376 362 -346 243 -749 341 -1172 284z m46 -1958 c401 -168 730 -310 732 -316 7 -19 -58 -108 -126 -172 -125 -117 -252 -167 -442 -175 -107 -5 -138 -2 -210 16 -313 79 -582 340 -670 651 -29 104 -40 300 -16 300 2 0 332 -137 732 -304z"></path></g></g><g id="l2IbMXKjC2ObCBHAoQXGwOU" fill="rgb(244,195,19)" style="transform: none;"><g style="transform: none;"><path id="p14Gy5av1N" d="M10275 5074 c-233 -27 -392 -66 -554 -137 -406 -179 -722 -529 -865 -958 -67 -200 -80 -288 -80 -534 0 -192 3 -233 22 -325 141 -647 618 -1129 1248 -1258 386 -80 762 -32 1119 144 470 231 760 629 851 1169 25 149 23 424 -5 579 -129 719 -686 1233 -1426 1316 -85 9 -243 11 -310 4z m378 -658 c316 -94 547 -332 641 -659 118 -408 -13 -862 -318 -1103 -248 -197 -562 -253 -861 -153 -446 149 -707 613 -630 1122 64 425 365 744 772 817 26 5 107 7 178 6 105 -3 147 -9 218 -30z"></path></g></g><g id="l2wfvVxJ0Z3qwBCtrn8RNUq" fill="rgb(65,183,85)" style="transform: none;"><g style="transform: none;"><path id="p3ULWp8vM" d="M15960 2580 l0 -2400 355 0 355 0 0 2400 0 2400 -355 0 -355 0 0 -2400z"></path></g></g></svg>