<svg xmlns="http://www.w3.org/2000/svg" width="135" height="40" fill="none" viewBox="0 0 135 40"><g clip-path="url(#a)"><path fill="#006EEC" d="M47.0698 28.6555V11.05C47.0698 10.6112 47.3314 10.3496 47.7701 10.3496H50.1409C50.5796 10.3496 50.8411 10.6112 50.8411 11.05V18.0112H58.9406V11.05C58.9406 10.6112 59.2022 10.3496 59.6409 10.3496H62.0412C62.48 10.3496 62.7415 10.6112 62.7415 11.05V28.6555C62.7415 29.0943 62.48 29.3559 62.0412 29.3559H59.6409C59.2022 29.3559 58.9406 29.0943 58.9406 28.6555V21.6943H50.8411V28.6555C50.8411 29.0943 50.5796 29.3559 50.1409 29.3559H47.7701C47.3314 29.3559 47.0698 29.0943 47.0698 28.6555ZM66.2429 24.1539V16.6105C66.2429 16.1717 66.5045 15.9102 66.9432 15.9102H69.1959C69.6346 15.9102 69.8961 16.1717 69.8961 16.6105V23.5717C69.8961 25.9385 71.5624 26.4954 72.6171 26.4954 73.6717 26.4954 75.2494 25.9385 75.2494 23.5717V16.6105C75.2494 16.1717 75.5109 15.9102 75.9497 15.9102H78.2023C78.6411 15.9102 78.9026 16.1717 78.9026 16.6105V28.6597C78.9026 29.0985 78.6411 29.3601 78.2023 29.3601H75.9497C75.5109 29.3601 75.2494 29.1238 75.2494 28.7441V28.1324C74.2243 29.2124 72.8238 29.5963 71.5076 29.5963 69.082 29.5963 66.2429 28.28 66.2429 24.1581V24.1539ZM82.2183 28.6552V16.606C82.2183 16.1672 82.4798 15.9056 82.9185 15.9056H85.1712C85.6099 15.9056 85.8715 16.1419 85.8715 16.5511V17.1924C86.8966 16.0828 88.3266 15.7031 89.6428 15.7031 92.0684 15.7031 94.8779 17.0194 94.8779 21.1413V28.6552C94.8779 29.094 94.6164 29.3556 94.1777 29.3556H91.925C91.4863 29.3556 91.2247 29.094 91.2247 28.6552V21.694C91.2247 19.323 89.5584 18.7703 88.5333 18.7703 87.5082 18.7703 85.8715 19.3272 85.8715 21.694V28.6552C85.8715 29.094 85.6099 29.3556 85.1712 29.3556H82.9185C82.4798 29.3556 82.2183 29.094 82.2183 28.6552ZM98.6536 25.471V18.687H97.599C97.1602 18.687 96.8987 18.4254 96.8987 17.9867V16.6113C96.8987 16.1725 97.1602 15.911 97.599 15.911H98.6536V12.4894C98.6536 12.0506 98.9151 11.7891 99.3538 11.7891H101.607C102.045 11.7891 102.307 12.0506 102.307 12.4894V15.911H104.471C104.91 15.911 105.171 16.1725 105.171 16.6113V17.9867C105.171 18.4254 104.91 18.687 104.471 18.687H102.307V24.8888C102.307 26.4667 103.273 26.5258 104.121 26.5258H104.327C104.766 26.5258 105.028 26.7873 105.028 27.2261V28.6605C105.028 29.0993 104.766 29.3609 104.327 29.3609H102.602C99.9107 29.3609 98.6536 27.956 98.6536 25.471ZM106.647 22.6314C106.647 18.6234 109.28 15.6406 113.342 15.6406 117.405 15.6406 119.805 18.6234 119.805 22.6314V22.9225C119.805 23.3613 119.543 23.6228 119.105 23.6228H110.157C110.507 25.437 111.824 26.517 113.49 26.517 114.836 26.517 115.683 26.0487 116.24 25.5509 116.561 25.2598 116.852 25.2007 117.206 25.4623L118.582 26.4833C118.961 26.7744 119.05 27.0697 118.788 27.3903 117.59 28.7952 115.717 29.6432 113.494 29.6432 109.373 29.6432 106.652 26.6309 106.652 22.6229L106.647 22.6314ZM116.384 21.3151C116.063 19.7372 115.068 18.5348 113.342 18.5348 111.617 18.5348 110.566 19.6148 110.212 21.3151H116.38 116.384ZM121.838 22.6314C121.838 18.6234 124.471 15.6406 128.533 15.6406 132.596 15.6406 134.996 18.6234 134.996 22.6314V22.9225C134.996 23.3613 134.734 23.6228 134.296 23.6228H125.348C125.698 25.437 127.014 26.517 128.681 26.517 130.026 26.517 130.874 26.0487 131.431 25.5509 131.752 25.2598 132.043 25.2007 132.397 25.4623L133.772 26.4833C134.152 26.7744 134.241 27.0697 133.979 27.3903 132.781 28.7952 130.908 29.6432 128.685 29.6432 124.564 29.6432 121.843 26.6309 121.843 22.6229L121.838 22.6314ZM131.575 21.3151C131.254 19.7372 130.258 18.5348 128.533 18.5348 126.808 18.5348 125.757 19.6148 125.403 21.3151H131.57 131.575ZM33.322 16.2858C33.111 16.02 32.9676 15.7078 32.9001 15.3745L31.0229 6.21942C30.6685 4.4981 28.4074 4.06777 27.4498 5.54018L24.6741 9.79707C24.3999 10.219 23.9063 10.451 23.4043 10.3877L21.6157 10.1641C21.1938 10.1135 20.8268 9.86035 20.6201 9.48909L15.9629 1.04281C15.1319-.459131 12.9129-.256623 12.373 1.3761L9.10363 11.2863C8.98973 11.6281 8.79146 11.9403 8.52992 12.1892L.611818 19.7031C-.37109 20.6355-.139073 22.264 1.07163 22.8799L13.6216 29.2885C13.9549 29.4572 14.246 29.6977 14.478 29.993L21.7591 39.224C22.6112 40.3041 24.2818 40.1986 24.9905 39.0173L29.6013 31.3347C29.8966 30.8453 30.2847 30.4149 30.7445 30.0732L37.5826 24.9936C38.4685 24.3355 38.6415 23.074 37.9581 22.2007L33.322 16.2815V16.2858ZM26.8803 11.1682 27.9856 9.47643C28.2809 9.02501 28.9727 9.15579 29.0824 9.68316L30.2678 15.4631C30.369 15.9651 30.2931 16.4841 30.0526 16.9355L29.4283 18.1083C29.1794 18.5766 28.496 18.5176 28.3231 18.0197L26.6399 13.0667C26.4247 12.4297 26.5133 11.7293 26.8803 11.164V11.1682ZM11.9427 10.9741 13.9549 4.88202C14.1194 4.37997 14.8028 4.31669 15.0559 4.78077L18.4476 10.932C18.6712 11.3328 18.7598 11.7968 18.7049 12.2525L18.0426 17.7202C17.9793 18.2307 17.3508 18.4332 17.0006 18.0619L12.4236 13.1595C11.8752 12.5731 11.6938 11.7378 11.9427 10.9741ZM23.7165 29.7948 22.7968 35.0262C22.7251 35.4439 22.1936 35.5747 21.9321 35.2456L16.1696 27.9426C15.9376 27.6473 15.6465 27.4068 15.3132 27.2381L4.09629 21.513C3.58585 21.2514 3.48461 20.5638 3.90224 20.1672L8.40336 15.8976C9.28503 15.0581 10.6813 15.1003 11.5124 15.9904L23.3959 28.7105C23.6701 29.0016 23.7882 29.4024 23.7165 29.799V29.7948ZM24.1932 25.7572 20.6749 21.994C20.3754 21.6733 20.232 21.2346 20.2826 20.7958L21.1854 13.341C21.2276 13.0077 21.5271 12.7714 21.8603 12.8136L23.5182 13.0203C23.746 13.0499 23.9401 13.206 24.016 13.4253L26.8846 21.8716C27.0153 22.264 26.9816 22.6901 26.7875 23.0529L25.4334 25.5927C25.1845 26.0568 24.5517 26.1412 24.1932 25.7572ZM34.828 23.8081 28.7829 28.3013C28.3231 28.643 27.935 29.0691 27.6397 29.5627L26.6188 31.2672C26.4669 31.5203 26.0788 31.3726 26.1294 31.0857L26.391 29.5923C26.4374 29.3265 26.526 29.0691 26.6525 28.8286L31.411 19.9098C31.6852 19.3951 32.4023 19.3318 32.7609 19.7917L34.9841 22.631C35.2709 22.9981 35.1992 23.5339 34.8238 23.8123L34.828 23.8081Z"/></g><defs><clipPath id="a"><path fill="#fff" d="M0 0H135V39.949H0z" transform="translate(0 0.0253906)"/></clipPath></defs></svg>