<svg xmlns="http://www.w3.org/2000/svg" width="24" height="24" fill="none" viewBox="0 0 24 24"><path fill="currentColor" fill-rule="evenodd" d="M6.80246 9.00067C6.70764 9.16456 6.62038 9.33331 6.54114 9.50644C6.31129 10.0086 5.77057 10.3307 5.23702 10.1881C4.70346 10.0455 4.38073 9.49402 4.58917 8.98258C4.72784 8.64236 4.88919 8.31389 5.07133 7.99909C5.42255 7.39203 5.85105 6.83574 6.34325 6.34353C6.8354 5.85137 7.39162 5.4229 7.99861 5.07167C8.59728 4.72526 9.24537 4.45399 9.92981 4.27107C10.5913 4.09428 11.2855 4.00032 12.0002 4.00032C12.7148 4.00032 13.4091 4.09428 14.0705 4.27106C14.755 4.45401 15.4032 4.72531 16.0019 5.07176C16.6088 5.42295 17.1649 5.85138 17.657 6.34347C17.9145 6.60093 18.1545 6.87593 18.3752 7.16656C18.7092 7.60643 18.5412 8.22285 18.0632 8.49946C17.5852 8.77607 16.9791 8.60601 16.6273 8.18034C16.5058 8.03344 16.3775 7.89239 16.2428 7.75768C15.873 7.38784 15.4553 7.06619 15.0002 6.80283C14.5514 6.54311 14.0661 6.34009 13.5541 6.20324C13.0596 6.07107 12.5389 6.00032 12.0002 6.00032C11.4614 6.00032 10.9407 6.07108 10.4462 6.20325C9.93425 6.34008 9.44906 6.54308 9.00027 6.80276C8.54508 7.06615 8.12737 7.38783 7.75748 7.75773C7.38755 8.12766 7.06585 8.54543 6.80246 9.00067ZM5.93682 15.5006C6.41486 15.2241 7.02087 15.3942 7.37272 15.8199C7.49426 15.9669 7.62269 16.1081 7.75753 16.243C8.1275 16.6129 8.54532 16.9347 9.00063 17.1981C9.44931 17.4577 9.93435 17.6606 10.4462 17.7974C10.9407 17.9296 11.4614 18.0003 12.0002 18.0003C12.5389 18.0003 13.0596 17.9296 13.5542 17.7974C14.066 17.6606 14.5511 17.4576 14.9998 17.198C15.4551 16.9346 15.8728 16.6129 16.2428 16.243C16.6127 15.8731 16.9343 15.4554 17.1977 15.0002C17.2926 14.8362 17.3799 14.6674 17.4592 14.4942C17.6891 13.992 18.2298 13.6699 18.7633 13.8125C19.2969 13.9551 19.6196 14.5066 19.4112 15.018C19.2725 15.3584 19.111 15.687 18.9288 16.0019C18.5776 16.6089 18.1491 17.1651 17.657 17.6572C17.1647 18.1494 16.6085 18.5779 16.0014 18.9292C15.4028 19.2755 14.7549 19.5467 14.0706 19.7296C13.4091 19.9064 12.7148 20.0003 12.0002 20.0003C11.2855 20.0003 10.5912 19.9064 9.92973 19.7296C9.24551 19.5467 8.59761 19.2755 7.99909 18.9293C7.39194 18.578 6.83558 18.1494 6.34331 17.6572C6.08567 17.3995 5.84549 17.1243 5.6247 16.8335C5.29077 16.3936 5.45877 15.7772 5.93682 15.5006Z" clip-rule="evenodd"/><path fill="currentColor" fill-rule="evenodd" d="M19 4C19.5523 4 20 4.44772 20 5V9C20 9.55228 19.5523 10 19 10H15C14.4477 10 14 9.55228 14 9 14 8.44772 14.4477 8 15 8H17C17.5523 8 18 7.55228 18 7V5C18 4.44772 18.4477 4 19 4ZM5 20C4.44772 20 4 19.5523 4 19L4 15C4 14.4477 4.44772 14 5 14H9C9.55228 14 10 14.4477 10 15 10 15.5523 9.55228 16 9 16H7C6.44772 16 6 16.4477 6 17V19C6 19.5523 5.55229 20 5 20Z" clip-rule="evenodd"/></svg>