<svg xmlns="http://www.w3.org/2000/svg" width="118" height="73" fill="none" viewBox="0 0 118 73"><path fill="#FF5F00" d="M74.8994 7.7002H43.3994V64.3002H74.8994V7.7002Z"/><path fill="#EB001B" d="M45.3998 36C45.3998 25 50.4998 14.5 59.0998 7.70002C43.4998 -4.59998 20.7998 -1.89998 8.49978 13.8C-3.70022 29.4 -1.00022 52 14.6998 64.3C27.7998 74.6 46.0998 74.6 59.1998 64.3C50.4998 57.5 45.3998 47 45.3998 36Z"/><path fill="#F79E1B" d="M117.4 36C117.4 55.9 101.3 72 81.4002 72C73.3002 72 65.5002 69.3 59.2002 64.3C74.8002 52 77.5002 29.4 65.2002 13.7C63.4002 11.5 61.4002 9.40002 59.2002 7.70002C74.8002 -4.59998 97.5002 -1.89998 109.7 13.8C114.7 20.1 117.4 27.9 117.4 36Z"/></svg>