<?xml version="1.0" encoding="utf-8"?>
<!-- Generator: Adobe Illustrator 27.1.1, SVG Export Plug-In . SVG Version: 6.00 Build 0)  -->
<svg version="1.1" id="Layer_1" xmlns="http://www.w3.org/2000/svg" xmlns:xlink="http://www.w3.org/1999/xlink" x="0px" y="0px"
	 viewBox="0 0 512 512" style="enable-background:new 0 0 512 512;" xml:space="preserve">
<style type="text/css">
	.st0{fill:#1C2B33;}
	.st1{fill:#0081FB;}
	.st2{fill:url(#SVGID_1_);}
	.st3{fill:url(#SVGID_00000033369196568229861220000013211288420316592315_);}
</style>
<g>
	<polygon class="st0" points="187.92,207.68 207.32,207.68 240.32,267.37 273.32,207.68 292.3,207.68 292.3,305.76 276.47,305.76 
		276.47,230.59 247.54,282.64 232.68,282.64 203.75,230.59 203.75,305.76 187.92,305.76 	"/>
	<path class="st0" d="M343.37,307.52c-7.33,0-13.78-1.62-19.34-4.87c-5.56-3.25-9.89-7.74-13-13.49
		c-3.11-5.74-4.66-12.33-4.66-19.76c0-7.52,1.52-14.17,4.55-19.97c3.04-5.79,7.25-10.32,12.65-13.59c5.39-3.27,11.59-4.9,18.6-4.9
		c6.96,0,12.95,1.65,17.97,4.94c5.02,3.29,8.88,7.91,11.59,13.84c2.71,5.93,4.06,12.89,4.06,20.88v4.34h-53.73
		c0.98,5.98,3.4,10.68,7.25,14.12c3.85,3.43,8.72,5.15,14.61,5.15c4.72,0,8.78-0.7,12.19-2.1c3.41-1.4,6.61-3.53,9.6-6.37l8.41,10.3
		C365.76,303.69,355.51,307.52,343.37,307.52L343.37,307.52z M354.93,249.33c-3.32-3.39-7.66-5.08-13.03-5.08
		c-5.23,0-9.61,1.73-13.14,5.18c-3.53,3.46-5.76,8.1-6.69,13.94h38.53C360.14,257.4,358.25,252.72,354.93,249.33z"/>
	<path class="st0" d="M395,245.66h-14.57v-12.96H395v-21.44h15.27v21.44h22.14v12.96h-22.14v32.86c0,5.46,0.93,9.36,2.8,11.7
		c1.87,2.34,5.07,3.5,9.6,3.5c2.01,0,3.71-0.08,5.11-0.25c1.4-0.16,2.94-0.38,4.62-0.67v12.82c-1.92,0.55-3.87,0.98-5.85,1.26
		c-2.26,0.33-4.54,0.5-6.83,0.49c-16.49,0-24.73-9.01-24.73-27.04L395,245.66z"/>
	<path class="st0" d="M512,305.76h-14.99v-10.23c-2.66,3.83-6.05,6.78-10.16,8.86c-4.11,2.08-8.78,3.12-14.01,3.12
		c-6.44,0-12.15-1.65-17.13-4.94c-4.97-3.29-8.89-7.82-11.73-13.59c-2.85-5.77-4.27-12.37-4.27-19.79c0-7.47,1.45-14.08,4.34-19.83
		c2.9-5.74,6.9-10.25,12.01-13.52c5.11-3.27,10.99-4.9,17.62-4.9c5,0,9.48,0.97,13.45,2.91c3.92,1.89,7.31,4.72,9.88,8.23v-9.39H512
		L512,305.76z M496.73,258.27c-1.64-4.16-4.22-7.44-7.74-9.84c-3.53-2.4-7.6-3.61-12.22-3.61c-6.54,0-11.75,2.2-15.62,6.59
		c-3.88,4.39-5.82,10.32-5.81,17.79c0,7.52,1.87,13.47,5.6,17.86c3.74,4.39,8.8,6.59,15.2,6.59c4.72,0,8.92-1.21,12.61-3.64
		c3.69-2.43,6.35-5.7,7.99-9.81L496.73,258.27z"/>
	<path class="st1" d="M16.78,272.45c0,5.93,1.3,10.48,3,13.24c2.23,3.61,5.56,5.14,8.95,5.14c4.37,0,8.38-1.09,16.09-11.75
		c6.18-8.55,13.46-20.55,18.36-28.07l8.3-12.75c5.76-8.85,12.43-18.69,20.08-25.36c6.24-5.44,12.98-8.47,19.76-8.47
		c11.38,0,22.22,6.59,30.51,18.96c9.08,13.55,13.49,30.61,13.49,48.21c0,10.47-2.06,18.16-5.57,24.23
		c-3.39,5.88-10,11.75-21.12,11.75v-16.75c9.52,0,11.9-8.75,11.9-18.76c0-14.27-3.33-30.1-10.66-41.42
		c-5.2-8.03-11.94-12.93-19.36-12.93c-8.02,0-14.47,6.05-21.73,16.83c-3.86,5.73-7.82,12.71-12.26,20.59l-4.89,8.67
		c-9.83,17.43-12.32,21.4-17.23,27.95c-8.61,11.47-15.97,15.82-25.65,15.82c-11.49,0-18.75-4.97-23.25-12.47
		C1.8,289,0,280.98,0,271.85L16.78,272.45z"/>
	
		<linearGradient id="SVGID_1_" gradientUnits="userSpaceOnUse" x1="6.6932" y1="5.914" x2="7.0932" y2="5.914" gradientTransform="matrix(267.3418 13.5021 -13.5021 267.3418 -1675.8474 -1418.0989)">
		<stop  offset="0" style="stop-color:#0064E1"/>
		<stop  offset="0.4" style="stop-color:#0064E1"/>
		<stop  offset="0.83" style="stop-color:#0073EE"/>
		<stop  offset="1" style="stop-color:#0082FB"/>
	</linearGradient>
	<path class="st2" d="M13.23,224.57c7.69-11.85,18.79-20.15,31.52-20.15c7.37,0,14.7,2.18,22.35,8.43
		c8.37,6.83,17.29,18.08,28.42,36.62l3.99,6.65c9.64,16.05,15.12,24.31,18.33,28.2c4.13,5,7.02,6.49,10.77,6.49
		c9.52,0,11.9-8.75,11.9-18.76l14.8-0.46c0,10.47-2.06,18.16-5.57,24.23c-3.39,5.88-10,11.75-21.12,11.75
		c-6.91,0-13.04-1.5-19.81-7.89c-5.21-4.9-11.29-13.62-15.98-21.45L78.9,254.97c-6.99-11.68-13.4-20.38-17.11-24.33
		c-3.99-4.24-9.12-9.36-17.31-9.36c-6.63,0-12.25,4.65-16.96,11.76L13.23,224.57z"/>
	
		<linearGradient id="SVGID_00000000197361095761294220000012480375953127664819_" gradientUnits="userSpaceOnUse" x1="6.5366" y1="8.0638" x2="6.9366" y2="8.0638" gradientTransform="matrix(6.035390e-15 -98.5654 98.5654 6.035390e-15 -772.4359 923.7733)">
		<stop  offset="0" style="stop-color:#0082FB"/>
		<stop  offset="1" style="stop-color:#0064E0"/>
	</linearGradient>
	<path style="fill:url(#SVGID_00000000197361095761294220000012480375953127664819_);" d="M44.48,221.29
		c-6.63,0-12.25,4.65-16.96,11.76c-6.66,10.05-10.74,25.02-10.74,39.4c0,5.93,1.3,10.48,3,13.24l-14.3,9.42
		C1.8,289,0,280.98,0,271.85c0-16.61,4.56-33.92,13.23-47.28c7.69-11.85,18.79-20.15,31.52-20.15L44.48,221.29z"/>
</g>
</svg>
