
<svg width="70" height="72" viewBox="0 0 70 72" fill="none" xmlns="http://www.w3.org/2000/svg">
<path fill-rule="evenodd" clip-rule="evenodd" d="M29.5567 61.4599C29.4191 60.7166 28.7368 60.1999 27.9798 60.2522C19.4303 60.8423 11.9743 60.0941 6.99387 59.065C6.31878 58.9255 5.84809 58.3248 5.85371 57.638L5.97303 43.0555C5.9791 42.3128 5.42743 41.6843 4.69024 41.5731C3.84411 41.4454 3.00114 41.3002 2.16186 41.1374C1.36426 40.9827 0.861751 40.2003 1.03371 39.4092L5.66406 18.1074C5.83685 17.3125 6.624 16.8116 7.42812 16.9526C20.1745 19.1875 35.9674 14.8073 48.3257 3.40469C48.8601 2.91165 49.6745 2.86034 50.2545 3.29913L67.8838 16.6349C68.4649 17.0744 68.6379 17.8721 68.271 18.5004C66.258 21.9474 63.194 26.2565 59.1115 30.7924C58.5633 31.4015 58.6038 32.3397 59.2128 32.8885L69.5162 42.1715C70.0396 42.643 70.1571 43.4176 69.7762 44.0094C67.0853 48.1894 62.6383 53.6485 56.8304 58.5985C50.8349 63.7084 42.6777 68.8789 32.8083 70.9688C32.0147 71.1369 31.2493 70.6074 31.1022 69.8126L29.5567 61.4599Z" fill="#C0C7D3"/>
<g filter="url(#filter0_dd_1147_20826)">
<path d="M37.9643 34.0355L38.6309 34.7105L39.2768 35.3841L39.9143 36.0675C44.717 41.2952 47.5143 46.0925 46.3129 47.2938C45.7573 47.8494 44.4295 47.5494 42.6462 46.5897C40.4496 47.9669 37.8794 48.6276 35.2909 48.4803C32.7025 48.333 30.2238 47.385 28.1976 45.7675L32.3365 41.6286C32.9181 41.7841 33.5344 41.7465 34.0928 41.5214C34.6511 41.2964 35.1212 40.896 35.4323 40.3806C35.7434 39.8652 35.8787 39.2627 35.8177 38.6637C35.7567 38.0648 35.5028 37.5019 35.0942 37.0598C34.6857 36.6177 34.1445 36.3203 33.5522 36.2123C32.96 36.1044 32.3487 36.1918 31.8104 36.4614C31.2721 36.7309 30.836 37.1681 30.5676 37.707C30.2993 38.2459 30.2133 38.8574 30.3226 39.4494L30.3712 39.6647L26.2337 43.8036C24.6157 41.7771 23.6675 39.2978 23.5202 36.7089C23.3729 34.1199 24.0338 31.5491 25.4115 29.3522C24.4504 27.5702 24.1504 26.2438 24.7059 25.6869C26.0629 24.3313 31.9976 28.0688 37.9643 34.0341V34.0355ZM46.8032 25.1966C47.0795 25.4728 47.2944 25.8041 47.434 26.169C47.5736 26.5339 47.6346 26.9241 47.6131 27.3142C47.5916 27.7043 47.4881 28.0854 47.3092 28.4328C47.1304 28.7801 46.8804 29.0858 46.5754 29.33C47.6714 31.0707 48.3217 33.0546 48.4688 35.1064C48.6158 37.1582 48.2551 39.2146 47.4184 41.0938C45.767 38.38 43.1545 35.2966 39.9282 32.0716L39.1823 31.3327C36.2268 28.4452 33.4101 26.105 30.9073 24.5827C32.7867 23.7459 34.8434 23.385 36.8955 23.532C38.9475 23.6791 40.9317 24.3295 42.6726 25.4258C42.9166 25.1211 43.2221 24.8714 43.5692 24.6927C43.9162 24.514 44.297 24.4105 44.6867 24.3889C45.0764 24.3673 45.4663 24.428 45.831 24.5672C46.1957 24.7064 46.5269 24.9208 46.8032 25.1966V25.1966Z" fill="url(#paint0_linear_1147_20826)"/>
</g>
<defs>
<filter id="filter0_dd_1147_20826" x="8.02717" y="14.7838" width="55.9457" height="55.9457" filterUnits="userSpaceOnUse" color-interpolation-filters="sRGB">
<feFlood flood-opacity="0" result="BackgroundImageFix"/>
<feColorMatrix in="SourceAlpha" type="matrix" values="0 0 0 0 0 0 0 0 0 0 0 0 0 0 0 0 0 0 127 0" result="hardAlpha"/>
<feOffset dy="2.67158"/>
<feGaussianBlur stdDeviation="1.57623"/>
<feColorMatrix type="matrix" values="0 0 0 0 0.137255 0 0 0 0 0.168627 0 0 0 0 0.309804 0 0 0 0.0899053 0"/>
<feBlend mode="normal" in2="BackgroundImageFix" result="effect1_dropShadow_1147_20826"/>
<feColorMatrix in="SourceAlpha" type="matrix" values="0 0 0 0 0 0 0 0 0 0 0 0 0 0 0 0 0 0 127 0" result="hardAlpha"/>
<feOffset dy="6.75663"/>
<feGaussianBlur stdDeviation="3.98641"/>
<feColorMatrix type="matrix" values="0 0 0 0 0.137255 0 0 0 0 0.168627 0 0 0 0 0.309804 0 0 0 0.128676 0"/>
<feBlend mode="normal" in2="effect1_dropShadow_1147_20826" result="effect2_dropShadow_1147_20826"/>
<feBlend mode="normal" in="SourceGraphic" in2="effect2_dropShadow_1147_20826" result="shape"/>
</filter>
<linearGradient id="paint0_linear_1147_20826" x1="36.0004" y1="23.5" x2="36.0004" y2="48.5005" gradientUnits="userSpaceOnUse">
<stop stop-color="white"/>
<stop offset="1" stop-color="#F3F5FB"/>
</linearGradient>
</defs>
</svg>
