<svg xmlns="http://www.w3.org/2000/svg" viewBox="81.068 40.845 321.523 339.493">
  <g id="Capa_1" transform="matrix(1, 0, 0, 1, -139.491, -52.7804)">
    <rect style="fill: rgb(255, 255, 255); fill-opacity: 0;" width="399" height="405.748" x="185.608" y="47.126" rx="17.637" ry="17.637"></rect>
    <g transform="matrix(1, 0, 0, 1, 185.608, 47.126)">
      <path style="fill: rgb(235, 244, 255);" d="M309.801,353.107c0,2.199-7.872,3.982-17.586,3.982c-9.711,0-17.586-1.782-17.586-3.982
		c0-2.199,7.875-3.981,17.586-3.981C301.929,349.126,309.801,350.909,309.801,353.107z"></path>
      <path style="fill: rgb(235, 244, 255);" d="M339.643,359.961c0,2.2-7.874,3.982-17.586,3.982c-9.713,0-17.586-1.782-17.586-3.982
		c0-2.198,7.873-3.98,17.586-3.98C331.769,355.98,339.643,357.763,339.643,359.961z"></path>
      <path style="fill: rgb(235, 244, 255);" d="M158.676,366.769c0,2.2,7.873,3.981,17.586,3.981c9.713,0,17.587-1.782,17.587-3.981
		c0-2.199-7.874-3.981-17.587-3.981C166.549,362.788,158.676,364.57,158.676,366.769z"></path>
      <path style="fill: rgb(235, 244, 255);" d="M174.07,355.257c0,2.2,7.875,3.982,17.586,3.982c9.714,0,17.586-1.782,17.586-3.982
		c0-2.199-7.872-3.98-17.586-3.98C181.945,351.277,174.07,353.059,174.07,355.257z"></path>
      <path style="fill: rgb(235, 244, 255);" d="M61.707,363.719c0,2.2,24.887,3.982,55.588,3.982c30.699,0,55.588-1.782,55.588-3.982
		c0-2.199-24.889-3.98-55.588-3.98C86.594,359.739,61.707,361.521,61.707,363.719z"></path>
      <g>
        <path style="fill:#D23018;" d="M51.939,328.28c3.809,0,7.141-1.216,10.274-3.917c2.868-2.47,9.598-2.411,10.056,1.814v37.802
			h37.332c0-0.005-0.002-0.009-0.002-0.014c4.682,0,4.82-7.13,2.264-10.099c-2.7-3.135-3.918-6.464-3.918-10.273
			c0-6.445,5.221-11.666,11.666-11.666c6.443,0,11.15,5.242,11.666,11.666c0.348,4.351-1.653,7.661-4.266,10.273
			c-3.713,3.712-1.942,10.099,2.611,10.099c0,0.004-0.002,0.008-0.002,0.014h37.371v-37.352c0-4.681-7.13-4.821-10.098-2.264
			c-3.135,2.701-6.465,3.917-10.273,3.917c-6.445,0-11.668-5.221-11.668-11.664c0-6.445,5.244-11.151,11.668-11.667
			c4.352-0.348,7.66,1.654,10.273,4.265c3.713,3.712,10.098,1.942,10.098-2.611v-37.351H72.27V307.1
			c-0.455,4.175-6.484,5.686-10.056,2.114c-2.614-2.611-5.921-4.613-10.274-4.265c-6.422,0.516-11.666,5.222-11.666,11.667
			C40.273,323.059,45.496,328.28,51.939,328.28z"></path>
        <g>
          <g>
            <path style="fill:#E4AD82;" d="M168.379,232.514c0.531,0.134,4.551,1.595,4.992,1.711c1.104,0.289,0.609,1.454-0.174,1.278
					c-0.347-0.077-6.652-2.072-7.33-2.234C164.855,232.997,167.527,232.225,168.379,232.514z"></path>
            <path style="fill:#E4AD82;" d="M166.316,232.777c0.523,0.161,4.463,1.829,4.897,1.969c1.089,0.345,0.532,1.482-0.239,1.267
					c-0.345-0.095-7.531-2.74-8.201-2.937C161.778,232.751,165.48,232.444,166.316,232.777z"></path>
            <path style="fill:#E4AD82;" d="M163.88,233.388c0.522,0.161,4.462,1.829,4.897,1.968c1.09,0.345,0.532,1.482-0.239,1.267
					c-0.345-0.094-7.531-2.739-8.202-2.937C159.342,233.361,163.043,233.055,163.88,233.388z"></path>
            <path style="fill:#F9BB8D;" d="M156.129,232.916c0,0,0.867,1.801,1.831,2.165c2.51,0.952,4.661,1.963,5.183,2.302
					c0.814,0.529,0.641-0.964-0.072-1.402c-0.713-0.439-1.229-1.864-1.229-1.864s1.523-1.301,3.711-1.037
					c2.188,0.263,6.419,0.761,7.791,0.937c1.371,0.175,1.781-1.265,0.896-1.503c-0.883-0.238-7.84-2.282-9.725-2.375
					c-1.885-0.094-6.381-0.319-6.381-0.319l-5.095-1.472l-1.864,3.593L156.129,232.916z"></path>
          </g>
          <path style="fill: rgb(182, 201, 227);" d="M156.159,229.091c0,0-28.846-17.768-28.684-18.635c2.06-11.019,5.987-36.779-5.967-43.303
				c-4.557-2.487-4.317,16.246-4.686,17.752c-1.259,5.199,3.271,33.541,7.463,37.554c4.196,4.014,29.256,12.089,29.256,12.089
				L156.159,229.091z"></path>
          <path style="fill:#F9BB8D;" d="M193.286,346.856c0,0,0.394,2.665-2.46,3.273c-2.852,0.608-8.193-2.229-8.193-2.229
				s-5.762-51.833-7.084-59.828c-1.322-7.997-2.666-18.483-2.666-18.483l9.457,0.881l8.313,74.728L193.286,346.856z"></path>
          <path style="fill:#343C40;" d="M203.207,355.056c-2.574,0.046-6.043,0.099-8.301,0.16c-2.262,0.061-6.061-1.009-6.061-1.009
				l-0.961,1.051l-4.727-0.087c0,0-0.731-4.073-0.525-7.271c1.99,0.629,9.324,1.902,10.653-1.043
				c1.573,0.83,7.817,2.95,10.512,3.928C205.848,351.527,207.764,354.976,203.207,355.056z"></path>
          <path style="fill:#343C40;" d="M121.509,241.131c0,0,40.936,1.437,47.341,1.577c6.408,0.139,14.635,6.714,14.218,15.917
				c-0.228,5.022,8.589,85.294,8.589,85.294l-10.662,0.59l-17.824-79.918c0,0-31.896-0.32-49.091,0.707
				C100.764,250.502,121.509,241.131,121.509,241.131z"></path>
          <path style="fill:#0A172F;" d="M95.006,110.345c-7.074-0.707-6.084,17.021-2.512,29.84c3.27,11.727,10.814,16.255,10.814,16.255
				s16.818-3.468,29.411-23.238c6.862-10.776,6.058-22.569,2.058-27.032c-3.316-3.699-7.208-5.519-15.628-2.172
				C107.709,108.544,96.814,100.392,95.006,110.345z"></path>
          <path style="fill:#F9BB8D;" d="M176.055,358.238c0,0,0.004,2.694-2.908,2.883c-2.91,0.19-7.784-3.391-7.784-3.391
				s1.789-52.122,1.637-60.224c-0.154-8.104,0.033-18.674,0.033-18.674l9.23,2.238l-2.573,75.145L176.055,358.238z"></path>
          <path style="fill:#454F56;" d="M184.686,367.786c-2.553-0.327-5.994-0.776-8.238-1.042c-2.246-0.266-5.848-1.874-5.848-1.874
				l-1.104,0.901l-4.666-0.77c0,0-0.134-4.135,0.532-7.271c1.878,0.91,8.95,3.23,10.692,0.508c1.436,1.048,7.309,4.048,9.832,5.405
				C187.809,364.675,189.207,368.364,184.686,367.786z"></path>
          <path style="fill:#454F56;" d="M86.995,242.827c1.237-11.248,43.745,0.551,43.745,0.551s29.867,7.21,36.187,8.273
				c6.32,1.063,13.509,8.758,11.768,17.805c-0.952,4.937-3.828,85.64-3.828,85.64l-10.636-0.957l-8.248-81.652
				c0,0-23.913,0.135-41.075-1.335C91.564,269.156,85.412,257.237,86.995,242.827z"></path>
          <path style="fill: rgb(213, 225, 241);" d="M130.74,243.378l-43.745-0.551l2.523-26.075c0,0-1.396-12.87-2.406-24.023
				c-3.202-20.076,5.509-24.18,5.509-24.18l10.913-4.716l14.741,0.033c0,0,12.465,12.56,11.072,36.236
				C128.656,211.859,130.74,243.378,130.74,243.378z"></path>
          <path style="fill:#E63812;" d="M120.443,235.336l-6.396-9.078c0,0,2.383-10.257,1.491-23.772
				c-0.942-14.246-2.962-24.61-2.962-24.61l-3.064-3.346l-7.4-10.106l14.946,0.034l1.424,9.614l-2.765,3.477
				c0,0,2.335,10.646,5.918,23.282c3.401,11.998,4.348,25.424,4.348,25.424L120.443,235.336z"></path>
          <path style="fill:#F9BB8D;" d="M118.873,158.145c2.9-2.513-18.059-8.498-16.283-4.299c2.633,6.219-0.106,9.984-0.106,9.984
				s3.335,6.843,8.933,6.856c5.598,0.012,6.859-6.821,6.859-6.821S115.973,160.658,118.873,158.145z"></path>
          <path style="fill:#DEA97F;" d="M109.01,158.066c1.15,2.876,6.636,5.119,8.456,3.752c-0.19-1.538,0.331-2.502,1.684-3.671
				c1.997-1.733-8.517-5.152-13.425-5.69C106.875,154.193,108.633,156.032,109.01,158.066z"></path>
          <path style="fill:#F9BB8D;" d="M116.213,159.479l-12.61-2.122c0,0-3.04-9.385-4.05-13.706c-0.807,0.576-1.773,0.806-3.244,0.361
				c-1.609-0.485-3.289-4.446-2.888-7.238c0.438-3.067,3.708-3.777,5.557-1.055c1.063,1.564,1.558,4.661,1.558,4.661
				s0.649,0.279,1.342-2.663c0.693-2.942-1.826-20.144,1.43-22.894c5.84-4.927,21.971-6.88,27.265,0.211
				c2.277,3.051,3.059,11.597,2.864,16.158c-0.833,19.337-4.138,24.123-7.684,26.855
				C122.727,160.379,116.213,159.479,116.213,159.479z"></path>
          <path style="fill: rgb(191, 209, 233);" d="M109.97,176.426l-13.651-10.452c0,0,5.32-2.247,6.165-2.144c1.765,4.206,8.57,5.244,12.155,5.936
				L109.97,176.426z"></path>
          <path style="fill: rgb(191, 209, 233);" d="M118.099,176.444l3.41-9.292l-3.233-3.287c0,0-0.592,3.614-3.637,5.901
				C114.146,169.956,118.099,176.444,118.099,176.444z"></path>
          <path style="fill:#0A172F;" d="M95.004,119.775c-0.499,6.134,7.867,21.984,6.884,12.415c-0.609-5.911,4.824-2.724,12.231-7.262
				c8.465-5.185,10.92-12.694,13.461-7.434c3.389-3.226,4.434,0.869,5.307,4.773c2.952-13.572-2.923-12.519-17.258-12.55
				C101.293,109.684,99.012,108.436,95.004,119.775z"></path>
          <polygon style="fill:#E7DAD7;" points="122.021,139.43 119.951,142.295 119.979,129.958 			"></polygon>
          <path style="fill:#0A172F;" d="M129.348,133.24c-0.002,0.98-0.795,1.77-1.771,1.767c-0.979-0.002-1.771-0.794-1.768-1.774
				c0.004-0.975,0.797-1.768,1.773-1.766C128.561,131.468,129.35,132.264,129.348,133.24z"></path>
          <path style="fill:#0A172F;" d="M113.607,133.205c0,0.979-0.795,1.768-1.771,1.766c-0.979-0.002-1.77-0.796-1.766-1.775
				c0.002-0.976,0.797-1.766,1.774-1.766C112.82,131.433,113.611,132.227,113.607,133.205z"></path>
          <path style="fill:#0A172F;" d="M107.303,129.404c2.212-1.948,5.294-2.327,8.065-1.09c0.489,0.218,0.205-1.619-0.137-1.835
				c-2.343-1.488-7.416,0.048-8.439,1.643C106.551,128.496,106.897,129.758,107.303,129.404z"></path>
          <path style="fill:#0A172F;" d="M131.588,129.46c-2.201-1.955-5.283-2.35-8.06-1.127c-0.489,0.216-0.196-1.621,0.149-1.835
				c2.346-1.476,7.412,0.083,8.43,1.682C132.345,128.556,131.992,129.818,131.588,129.46z"></path>
          <g>
            <g>
              <path style="fill:#CE8D6F;" d="M125.979,148.19c0,0-2.455,4.011-5.943,4.003c-4.176-0.01-6.658-4.03-6.658-4.03
						s4.203,0.662,6.905,0.667C122.986,148.838,125.979,148.19,125.979,148.19z"></path>
            </g>
            <g>
              <path style="fill:#3D150D;" d="M125.367,148.405c0,0-2.17,2.529-5.32,2.522c-3.772-0.009-6.062-2.547-6.062-2.547
						s3.796,0.46,6.238,0.465C122.666,148.852,125.367,148.405,125.367,148.405z"></path>
            </g>
            <g>
              <path style="fill:#FFFFFF;" d="M124.635,148.38c0,0-0.69,0.977-1.137,1.153c-2.23,0.879-6.156,0.687-7.377-0.021
						c-0.709-0.409-1.213-1.132-1.213-1.132s3.33,0.431,5.186,0.436C121.943,148.82,124.635,148.38,124.635,148.38z"></path>
            </g>
            <g>
              <path style="fill:#DB9F78;" d="M125.979,148.19c0,0-2.541,0.855-5.969,0.848c-3.608-0.008-6.633-0.875-6.633-0.875
						s2.838,0.233,5.188-0.796c0.481-0.209,1.505,0.317,1.505,0.317s0.772-0.485,1.378-0.297
						C124.336,148.28,125.979,148.19,125.979,148.19z"></path>
            </g>
          </g>
          <g>
            <path style="fill:#454F56;" d="M107.048,242.399c0,2.49,2.019,4.508,4.508,4.508h65.562c2.49,0,4.506-2.018,4.506-4.508l0,0
					H107.048L107.048,242.399z"></path>
            <path style="fill:#454F56;" d="M176.739,245.349c2.444,0.462,4.751-0.874,5.148-2.983l12.282-58.182
					c0.398-2.108-1.262-4.192-3.708-4.653l0,0L176.739,245.349L176.739,245.349z"></path>
            <polygon style="fill:#353D42;" points="107.048,242.399 177.354,242.399 178.563,236.598 121.656,236.598 				"></polygon>
          </g>
          <g>
            <path style="fill:#D9A57C;" d="M139.074,237.247c1.901,3.263,7.875,1.423,7.875,1.423s5.406,0.752,6.406,0.851
					c1,0.099-0.242-0.98-1.074-1.309c-0.834-0.327-11.562-2.876-11.562-2.876l-7.24-3.241l-3.591,2.314
					C129.889,234.409,138.24,236.536,139.074,237.247z"></path>
          </g>
          <g>
            <path style="fill:#F9BB8D;" d="M138.794,238.36c1.901,3.264,7.874,1.424,7.874,1.424s5.406,0.752,6.407,0.851
					c0.999,0.099,1.329-0.809,0.495-1.136c-0.833-0.328-13.726-4.163-13.726-4.163l-6.251-3.858l-3.986,4.044
					C129.607,235.521,137.959,237.651,138.794,238.36z"></path>
          </g>
          <path style="fill: rgb(182, 201, 227);" d="M139.845,233.6c0,0-27.958-12.256-28.148-13.118c-1.884-8.631,2.57-38.854-8.485-41.456
				c-5.053-1.189-6.172,7.532-6.065,9.786c0.251,5.343,1.168,33.404,5.556,37.207c4.387,3.802,35.186,13.16,35.186,13.16
				L139.845,233.6z"></path>
        </g>
      </g>
      <g>
        <g>
          <path style="fill:#F9BB8D;" d="M262.509,112.937l-3.519,2.556c0,0-3.186-2.636-4.235-3.873c-1.05-1.236-2.147-4.057-3.77-5.563
				c-0.993-0.924,4.488-5.026,4.488-5.026c0.705,0.904,1.613,1.371,1.613,1.371s-0.242-1.425-0.087-2.436
				c0.233-1.528,1.518-1.182,1.819-0.089c0.282,1.022,1.94,4.046,2.766,6.217C262.159,107.615,262.509,112.937,262.509,112.937z"></path>
        </g>
        <g>
          <path style="fill:#C8C8C8;" d="M254.44,112.482c-0.368,0.497-1.069,0.603-1.567,0.235l-5.182-3.825
				c-0.498-0.367-0.604-1.068-0.237-1.567l10.247-10.419c0.367-0.498,1.068-0.604,1.566-0.236l3.529,2.606
				c0.497,0.367,0.603,1.067,0.236,1.566L254.44,112.482z"></path>
          <path style="fill:#DCDCDC;" d="M262.797,99.276l-1.799-1.33l-8.396,11.37c-0.368,0.499-1.069,0.604-1.566,0.237l-3.344-2.469
				l-0.237,0.241c-0.366,0.498-0.261,1.2,0.237,1.567l5.182,3.825c0.498,0.368,1.199,0.262,1.567-0.235l8.593-11.641
				C263.4,100.343,263.294,99.643,262.797,99.276z"></path>
          <polygon style="fill:#E84341;" points="256.929,95.802 237.482,92.588 258.528,64.083 267.577,81.377 274.803,86.711 
				264.154,101.136 			"></polygon>
          <path style="fill:#E2CDC7;" d="M266.386,95.142l1.681-3.541c-0.689,0.517-4.162,2.663-4.162,2.663l0.546-2.013l-3.415,1.235
				c0,0-1.386-2.364-3.604-1.961c-3.072,0.733-6.63-0.679-7.655-4.024c-0.869-2.827-0.648-5.046-0.271-7.938
				c0.152-1.155,0.154-2.306,0.147-3.455l-12.169,16.481l19.446,3.214l7.226,5.333l7.871-10.665
				C271.162,90.003,266.386,95.142,266.386,95.142z"></path>
          <path style="fill:#FFFFFF;" d="M237.133,93.062c-0.357,0.484-1.04,0.586-1.525,0.229l0,0c-0.485-0.358-0.588-1.042-0.23-1.526
				l21.644-29.316c0.36-0.485,1.042-0.588,1.528-0.23l0,0c0.483,0.358,0.585,1.041,0.229,1.527L237.133,93.062z"></path>
          <path style="fill:#FFFFFF;" d="M274.803,86.711c7.97,5.885,6.533,9.813,3.591,13.795c-2.941,3.982-6.134,6.614-14.239,0.629
				L274.803,86.711z"></path>
          <path style="fill:#DADADA;" d="M271.045,98.427c-0.291,0.396-0.783,0.529-1.098,0.296l0,0c-0.314-0.231-0.335-0.741-0.043-1.137
				l3.563-4.823c0.291-0.397,0.783-0.529,1.098-0.297l0,0c0.314,0.233,0.336,0.742,0.043,1.139L271.045,98.427z"></path>
          <path style="fill:#DADADA;" d="M272.91,99.805c-0.291,0.396-0.785,0.529-1.098,0.296l0,0c-0.316-0.231-0.333-0.742-0.042-1.138
				l3.561-4.823c0.292-0.396,0.785-0.528,1.101-0.296l0,0c0.315,0.233,0.331,0.742,0.04,1.138L272.91,99.805z"></path>
        </g>
        <path style="fill:#F9BB8D;" d="M256.345,100.925c-0.994-1.025-1.308-1.555-1.745-2.039c-0.643-0.715-1.717,0.828-1.342,1.29
			c0.281,0.346,0.881,0.903,2.045,2.071C255.828,102.734,256.902,101.821,256.345,100.925z"></path>
        <path style="fill:#F9BB8D;" d="M255.292,102.547c-0.994-1.024-1.946-2.084-2.383-2.567c-0.645-0.714-1.717,0.826-1.342,1.289
			c0.28,0.346,1.45,1.472,2.614,2.64C254.707,104.397,255.848,103.442,255.292,102.547z"></path>
        <path style="fill:#F9BB8D;" d="M254.047,104.139c-0.99-1.024-1.944-2.084-2.383-2.568c-0.643-0.714-1.717,0.828-1.34,1.289
			c0.281,0.348,1.451,1.473,2.613,2.643C253.461,105.99,254.605,105.035,254.047,104.139z"></path>
        <path style="fill:#F9BB8D;" d="M252.17,104.871c-0.949-0.925-1.238-1.221-1.66-1.654c-0.615-0.642-1.489,0.603-1.128,1.015
			c0.274,0.31,0.76,0.675,1.869,1.73C251.746,106.406,252.717,105.66,252.17,104.871z"></path>
        <path style="fill:#F9BB8D;" d="M290.93,344.702c0,0-0.188,2.688,2.704,3.075c2.888,0.388,7.999-2.85,7.999-2.85
			s1.779-52.121,2.486-60.193c0.706-8.073-2.216-18.872-2.216-18.872l7.995-37.915l-16.248,0.876l-3.545,39.085l3.324,74.938
			L290.93,344.702z"></path>
        <path style="fill:#2D3437;" d="M281.666,353.637c2.57-0.151,6.034-0.363,8.29-0.476c2.259-0.112,5.964-1.469,5.964-1.469
			l1.037,0.975l4.707-0.45c0,0,0.418-4.116-0.031-7.289c-1.937,0.778-9.152,2.61-10.703-0.225
			c-1.504,0.947-7.568,3.539-10.178,4.721C278.762,350.321,277.117,353.905,281.666,353.637z"></path>
        <path style="fill:#2D3437;" d="M288.612,214.708c0,0-0.028,45.808-1.04,53.752c-1.012,7.944,4.429,72.967,4.429,72.967
			l10.266,0.816l7.515-74.611c0,0,3.973-21.564,7.82-42.21C320.328,210.797,288.612,214.708,288.612,214.708z"></path>
        <path style="fill:#481615;" d="M323.141,62.819c9.625-1.754,5.891,16.968,2.51,29.84c-3.824,14.561-10.813,16.255-10.813,16.255
			s-24.189,0.913-30.146-21.759c-1.385-5.283-2.166-10.264-1.137-16.782c-4.291-1.373-4.465-9.172,3.704-14.058
			C296.125,51.012,324.212,53.033,323.141,62.819z"></path>
        <path style="fill:#2D3437;" d="M263.252,108.919c0,0,10.244,36.484,10.739,35.753c4.958-7.312,8.663-22.922,12.608-23.614
			c5.113-0.899,6.623,8.528,6.33,10.051c-1.022,5.251-12.327,30.395-22.002,30.344C265.121,161.422,256,114.014,256,114.014
			L263.252,108.919z"></path>
        <path style="fill:#1E2425;" d="M286.408,128.949c-1.539,0.27-7.074,23.166-6.805,27.131c7.56-7.483,12.647-21.488,13.326-24.971
			C293.223,129.586,291.522,128.051,286.408,128.949z"></path>
        <path style="fill:#F9BB8D;" d="M323.676,352.582c0,0,0.178,2.687,3.096,2.681c2.916-0.007,7.539-3.907,7.539-3.907
			s-5.293-51.882-5.684-59.975c-0.394-8.096-4.753-18.397-4.753-18.397l2.792-38.65l-15.98,3.066l-0.885,39.055l16.102,73.95
			L323.676,352.582z"></path>
        <path style="fill:#454F56;" d="M315.708,362.69c2.524-0.5,5.929-1.179,8.149-1.596c2.222-0.415,5.709-2.264,5.709-2.264
			l1.161,0.826l4.602-1.082c0,0-0.144-4.135-1.019-7.219c-1.813,1.035-8.713,3.826-10.635,1.227
			c-1.361,1.143-7.02,4.531-9.447,6.055C312.381,359.795,311.235,363.57,315.708,362.69z"></path>
        <path style="fill:#454F56;" d="M331.149,195.303c-4.207-10.506-43.743,0.55-43.743,0.55l1.206,18.855l16.725,10.567
			c0,0,1.563,40.818,1.634,48.827c0.073,8.006,17.324,75.091,17.324,75.091l10.281-0.582l-4.734-75.132
			C329.842,273.478,336.682,209.125,331.149,195.303z"></path>
        <path style="fill:#FFFFFF;" d="M287.406,195.852l43.743-0.55l-2.522-26.076l2.405-24.024l-0.413-23.428l-16.009-5.467
			l-14.946,0.033l-13.064,4.717c0,0-2.865,11.902-2.622,26.196C284.176,159.03,287.406,195.852,287.406,195.852z"></path>
        <path style="fill:#E63812;" d="M304.486,191.673l3.069-11.141c0,0-4.799-12.027-4.948-25.571
			c-0.148-13.546,2.961-24.61,2.961-24.61l3.066-3.347l5.976-10.696l-14.946,0.033v10.206l2.765,3.479c0,0-4.054,10.952-5.919,23.28
			c-1.861,12.331-1.016,31.01-1.016,31.01L304.486,191.673z"></path>
        <path style="fill:#F9BB8D;" d="M299.272,110.62c-2.9-2.514,18.06-8.5,16.283-4.3c-2.631,6.22,0.106,9.984,0.106,9.984
			s-3.333,6.842-8.933,6.857c-5.595,0.012-6.859-6.82-6.859-6.82S302.171,113.133,299.272,110.62z"></path>
        <path style="fill:#DEA97F;" d="M309.135,110.54c-1.15,2.876-6.636,5.12-8.455,3.754c0.189-1.539-0.332-2.502-1.683-3.672
			c-2-1.733,8.515-5.152,13.425-5.69C311.271,106.669,309.514,108.505,309.135,110.54z"></path>
        <path style="fill:#F9BB8D;" d="M301.934,111.952l12.609-2.121c0,0,3.039-9.385,4.049-13.707c0.808,0.577,1.775,0.808,3.244,0.361
			c1.609-0.485,3.289-4.445,2.891-7.236c-0.441-3.07-3.711-3.777-5.559-1.057c-1.065,1.565-1.557,4.662-1.557,4.662
			s-0.652,0.28-1.344-2.662c-0.693-2.943,6.891-16.957-1.43-22.894c-6.22-4.436-21.971-6.881-27.265,0.211
			c-2.276,3.05-3.059,11.595-2.861,16.156c0.83,19.337,4.136,24.124,7.681,26.857C295.418,112.853,301.934,111.952,301.934,111.952z
			"></path>
        <path style="fill:#DADADA;" d="M308.175,128.9l12.386-9.835c0,0-4.053-2.865-4.899-2.761c-1.765,4.206-8.569,5.244-12.155,5.936
			L308.175,128.9z"></path>
        <path style="fill:#DADADA;" d="M300.048,128.919l-5.685-9.962l5.506-2.616c0,0,0.592,3.614,3.637,5.899
			C303.998,122.431,300.048,128.919,300.048,128.919z"></path>
        <path style="fill:#481615;" d="M323.141,72.249c0.499,6.134-6.709,19.123-5.137,9.691c2.252-13.503-5.914-12.83-5.914-12.83
			s-10.28,4.744-20.875,3.656c-4.461-0.458-7.155-2.478-7.155-2.478s1.901-8.417,18.456-9.221
			C316.836,60.374,319.135,60.911,323.141,72.249z"></path>
        <polygon style="fill:#E7DAD7;" points="296.125,91.905 298.195,94.771 298.167,82.433 		"></polygon>
        <path style="fill:#481615;" d="M288.797,85.714c0.002,0.979,0.795,1.769,1.773,1.766c0.978-0.001,1.769-0.796,1.766-1.774
			c-0.004-0.976-0.797-1.767-1.773-1.765C289.584,83.943,288.795,84.738,288.797,85.714z"></path>
        <path style="fill:#481615;" d="M304.537,85.679c0.002,0.978,0.795,1.769,1.773,1.766c0.978-0.002,1.768-0.796,1.766-1.774
			c-0.002-0.976-0.797-1.768-1.775-1.766C305.324,83.907,304.533,84.701,304.537,85.679z"></path>
        <path style="fill:#481615;" d="M310.842,81.878c-2.212-1.947-5.294-2.326-8.064-1.09c-0.489,0.218-0.203-1.618,0.139-1.836
			c2.341-1.486,7.414,0.05,8.438,1.646C311.596,80.97,311.247,82.233,310.842,81.878z"></path>
        <path style="fill:#481615;" d="M286.556,81.934c2.202-1.954,5.284-2.349,8.061-1.126c0.49,0.214,0.196-1.621-0.147-1.835
			c-2.348-1.476-7.414,0.083-8.432,1.683C285.8,81.03,286.152,82.292,286.556,81.934z"></path>
        <g>
          <g>
            <path style="fill:#CE8D6F;" d="M292.168,100.665c0,0,2.455,2.588,5.943,2.581c4.174-0.011,6.656-2.609,6.656-2.609
					s-4.199,0.662-6.905,0.668C295.16,101.311,292.168,100.665,292.168,100.665z"></path>
          </g>
          <g>
            <path style="fill:#DB9F78;" d="M292.168,100.665c0,0,2.54,0.855,5.967,0.846c3.609-0.007,6.633-0.874,6.633-0.874
					s-2.836,0.232-5.189-0.796c-0.479-0.209-1.505,0.317-1.505,0.317s-0.772-0.485-1.378-0.298
					C293.809,100.755,292.168,100.665,292.168,100.665z"></path>
          </g>
        </g>
        <polygon style="fill:#2D3437;" points="309.523,183.427 320.344,214.179 336.685,210.818 331.086,167.939 331.032,145.203 
			330.619,121.775 316.766,116.528 306.426,137.802 		"></polygon>
        <polygon style="fill:#1D2324;" points="314.998,139.556 312.85,138.044 318.337,136.63 316.766,116.528 306.426,137.802 
			308.259,165.378 		"></polygon>
        <path style="fill:#1E2425;" d="M326.748,157.216c0.094,4.102-5.191,9.119-5.191,9.119s4.445,0.052,6.313,15.826
			c1.062,8.935,3.665,23.162,3.665,23.162s0.676-5.359,2.65-6.439l-3.099-30.944l-0.054-22.737l-0.194-11.108
			c-0.738,1.057-1.416,2.148-2.001,3.296C326.918,141.152,326.653,153.074,326.748,157.216z"></path>
        <g>
          <path style="fill:#F9BB8D;" d="M333.563,196.991l3.261-0.591l1.042,1.455c0,0,0.407,4.932,0.806,6.82
				c0.245,1.16-5.728,1.329-5.728,1.329c-0.047-1.001-0.463-1.79-0.463-1.79s-0.444,1.974-0.625,2.846
				c-0.263,1.27-1.41,0.413-1.353-0.51c0.057-0.927,0.396-5.527,0.935-6.51C332.116,198.794,333.563,196.991,333.563,196.991z"></path>
          <path style="fill:#F9BB8D;" d="M338.578,210.322c0.285,1.282,1.434,0.778,1.27-0.127c-0.164-0.904-1.364-6.615-1.364-6.615
				l-1.217,0.751C337.267,204.332,338.297,209.037,338.578,210.322z"></path>
          <path style="fill:#F9BB8D;" d="M337.133,211.525c0.281,1.283,1.644,0.765,1.477-0.139c-0.164-0.906-1.416-7.112-1.416-7.112
				l-1.426,0.763C335.768,205.037,336.849,210.24,337.133,211.525z"></path>
          <path style="fill:#F9BB8D;" d="M335.607,212.275c0.282,1.282,1.643,0.764,1.479-0.141c-0.164-0.904-1.419-7.112-1.419-7.112
				l-1.425,0.765C334.242,205.788,335.324,210.989,335.607,212.275z"></path>
          <path style="fill:#F9BB8D;" d="M334.191,212.024c0.256,1.189,1.372,0.738,1.221-0.102c-0.153-0.839-1.303-6.599-1.303-6.599
				l-1.166,0.68C332.943,206.003,333.934,210.831,334.191,212.024z"></path>
        </g>
        <path style="fill:#2D3437;" d="M331.149,164.315c-1.372-10.475-1.111-21.805-1.566-24.164c-1.034-5.374-0.57-18.824,1.036-18.376
			c1.617,0.449,4.787,3.093,5.55,4.429c5.13,8.982,3.759,28.52,4.289,39.963c0.239,5.146-1.834,32.716-1.834,32.716l-6.72-1.066
			C331.904,197.818,332.438,174.172,331.149,164.315z"></path>
        <path style="fill:#2D3437;" d="M287.303,208.53l5.975,5.713l-0.949-43.698l1.54-30.94l5.796-23.264l-13.064,4.717
			c0,0-3.547,10.78-3.059,26.247C283.912,159.079,287.303,208.53,287.303,208.53z"></path>
        <polygon style="fill:#1D2324;" points="292.328,170.545 293.868,139.605 299.664,116.341 287.275,139.619 289.818,143.678 
			287.163,148.597 		"></polygon>
      </g>
    </g>
  </g>
</svg>