<svg xmlns="http://www.w3.org/2000/svg" width="24" height="24" fill="none" viewBox="0 0 24 24"><path fill="#006EEC" d="M10.8 15.6H14.4L13.71 11.73C14.11 11.53 14.425 11.24 14.655 10.86C14.885 10.48 15 10.06 15 9.6C15 8.94 14.765 8.375 14.295 7.905C13.825 7.435 13.26 7.2 12.6 7.2C11.94 7.2 11.375 7.435 10.905 7.905C10.435 8.375 10.2 8.94 10.2 9.6C10.2 10.06 10.315 10.48 10.545 10.86C10.775 11.24 11.09 11.53 11.49 11.73L10.8 15.6ZM12.6 24C9.82 23.3 7.525 21.705 5.715 19.215C3.905 16.725 3 13.96 3 10.92V3.6L12.6 0L22.2 3.6V10.92C22.2 13.96 21.295 16.725 19.485 19.215C17.675 21.705 15.38 23.3 12.6 24ZM12.6 21.48C14.68 20.82 16.4 19.5 17.76 17.52C19.12 15.54 19.8 13.34 19.8 10.92V5.25L12.6 2.55L5.4 5.25V10.92C5.4 13.34 6.08 15.54 7.44 17.52C8.8 19.5 10.52 20.82 12.6 21.48Z"/></svg>