<svg width="52" height="47" viewBox="0 0 52 47" fill="none" xmlns="http://www.w3.org/2000/svg">
<path d="M22.5001 18.1485C29.4138 13.4341 35.9649 8.66957 42.8417 4.4439C45.3617 2.8988 48.6599 2.62531 51.9741 1.65995C51.6865 6.66332 49.3872 8.96376 45.9971 11.019C39.6865 14.8507 33.6889 19.199 27.2729 23.5294C33.0008 28.7146 38.343 33.5142 43.6402 38.3769C44.6813 39.3333 45.9921 40.3713 46.3543 41.6162C46.7771 43.056 46.3096 44.7654 46.2209 46.3598C44.7369 46.1786 42.7877 46.5407 41.8499 45.7249C35.9856 40.6631 30.2742 35.4165 24.6794 30.0506C22.9366 28.3793 21.9216 28.3426 20.0205 29.8936C16.0795 33.1278 12.1943 36.1887 9.59519 40.8361C7.43237 44.6973 5.8 44.8244 3.29744 43.006C0.472851 40.9509 -0.0935583 38.8892 2.3003 36.3413C5.69719 32.7167 9.53229 29.4918 13.2283 26.1543C14.5328 24.9703 15.9757 23.9363 17.3959 22.8115C12.4935 17.1419 7.71855 11.6288 2.94356 6.11563C1.7076 4.69311 0.109006 3.22045 1.77662 1.27759C3.42605 -0.632498 6.27412 -0.349181 8.19352 1.82097C12.6854 6.88194 17.09 12.023 21.535 17.1185C21.8224 17.4495 22.1432 17.7612 22.496 18.1286L22.5001 18.1485Z" fill="#0058ba"/>
</svg>
