
<svg width="69" height="36" viewBox="0 0 69 36" fill="none" xmlns="http://www.w3.org/2000/svg">
<path d="M2.43049 24.0315C9.21514 23.2862 15.5243 22.4316 21.8497 21.932C32.9556 21.0442 44.0842 20.3284 55.2066 19.6684C57.3803 19.5421 59.7205 19.5473 61.7188 20.2492C63.1407 20.746 64.9449 22.4437 65.0778 23.7583C65.1956 24.9581 63.5039 27.2713 62.2753 27.5448C56.8835 28.7977 51.3722 30.1223 45.8839 30.2343C34.6137 30.4681 23.3293 29.8244 12.0487 29.7745C7.99534 29.7631 4.73701 28.8649 2.4565 24.0485L2.43049 24.0315Z" fill="#0058ba"/>
<path d="M2.11725 9.44079C6.6576 8.83201 11.1842 7.85097 15.7293 7.69584C31.5488 7.1431 47.391 6.75764 63.2273 6.67362C64.9901 6.66312 66.7646 9.02942 68.525 10.2819C67.1827 11.465 65.8076 13.688 64.4889 13.6653C45.3201 13.27 26.1573 12.5732 6.98837 11.9307C5.41135 11.8794 3.83274 11.5945 2.25567 11.4197C2.2055 10.755 2.16892 10.0919 2.11725 9.44079Z" fill="#0058ba"/>
</svg>
