
<svg width="124" height="120" viewBox="0 0 124 120" fill="none" xmlns="http://www.w3.org/2000/svg">
<path fill-rule="evenodd" clip-rule="evenodd" d="M99.4522 34.2149C95.9503 32.899 91.5493 35.9757 89.6318 41.081C87.7135 46.1855 89.0005 51.3988 92.5024 52.7147C96.005 54.0298 100.405 50.9538 102.323 45.8486C104.241 40.7433 102.955 35.5307 99.4522 34.2149" fill="#0058ba"/>
<path fill-rule="evenodd" clip-rule="evenodd" d="M77.9839 32.0739C77.9839 32.0739 79.7074 51.7207 91.4263 58.6142C103.146 65.5077 107.756 66.9521 113.314 67.9204C120.471 69.167 123.384 69.1807 123.299 70.0136C123.212 70.8465 118.658 73.1131 112.797 72.9184C108.175 72.7648 97.8033 71.5394 95.5625 69.2994C93.3225 67.0586 95.0453 86.0163 100.216 97.7352C105.386 109.454 108.833 115.831 101.594 109.109C94.3562 102.389 88.8417 89.9799 88.1518 88.0844C87.4627 86.1882 83.671 86.8781 83.8437 96.1843C84.0156 105.49 84.7055 111.006 85.7391 114.28C86.7736 117.555 85.3946 127.205 80.5692 110.316C75.7438 93.427 75.5712 82.3973 77.9839 70.1612C80.3965 57.9243 81.431 59.9925 80.3965 57.7524C79.3629 55.5116 73.8476 34.142 73.503 31.2121C73.3715 30.0932 71.654 29.9944 70.9588 29.4711C70.3959 29.0466 69.957 25.6467 71.4851 24.362C73.0124 23.0773 76.5067 23.9071 77.1122 24.4578C79.6808 26.7952 77.9839 32.0739 77.9839 32.0739" fill="#0058ba"/>
<path fill-rule="evenodd" clip-rule="evenodd" d="M23.8463 34.2149C27.3482 32.899 31.7491 35.9757 33.6666 41.081C35.5849 46.1855 34.298 51.3988 30.7961 52.7147C27.2934 54.0298 22.8932 50.9538 20.9757 45.8486C19.0574 40.7433 20.3436 35.5307 23.8463 34.2149" fill="#0058ba"/>
<path fill-rule="evenodd" clip-rule="evenodd" d="M45.3165 32.0739C45.3165 32.0739 43.593 51.7207 31.8741 58.6142C20.1545 65.5077 15.5443 66.9521 9.9865 67.9204C2.82907 69.167 -0.0841063 69.1807 0.00184374 70.0136C0.0885544 70.8465 4.64162 73.1131 10.5037 72.9184C15.1252 72.7648 25.4971 71.5394 27.7378 69.2994C29.9779 67.0586 28.2543 86.0163 23.0844 97.7352C17.9144 109.454 14.4673 115.831 21.7054 109.109C28.9442 102.389 34.4587 89.9799 35.1486 88.0844C35.8377 86.1882 39.6294 86.8781 39.4567 96.1843C39.284 105.49 38.5949 111.006 37.5612 114.28C36.5268 117.555 37.9058 127.205 42.7312 110.316C47.5565 93.427 47.7292 82.3973 45.3165 70.1612C42.9038 57.9243 41.8694 59.9925 42.9038 57.7524C43.9375 55.5116 49.4528 34.142 49.7973 31.2121C49.9289 30.0932 51.6464 29.9944 52.3416 29.4711C52.9045 29.0466 53.3426 25.6467 51.8153 24.362C50.2879 23.0773 46.7936 23.9071 46.1882 24.4578C43.6196 26.7952 45.3165 32.0739 45.3165 32.0739" fill="#0058ba"/>
<path fill-rule="evenodd" clip-rule="evenodd" d="M78.4095 22.2199H44.9795L41.5156 7.65323L51.2097 10.6896L60.9038 -0.00012207L70.5972 10.6896L80.2905 7.65323L78.4095 22.2199ZM78.2594 10.7466L73.3633 20.367H76.4051L78.2594 10.7466ZM61.7216 3.01008L62.9675 9.38484L68.1253 10.8042L61.7216 3.01008V3.01008Z" fill="#0058ba"/>
</svg>
