<?xml version="1.0" encoding="UTF-8"?>
<svg id="Layer_2" data-name="Layer 2" xmlns="http://www.w3.org/2000/svg" xmlns:xlink="http://www.w3.org/1999/xlink" viewBox="0 0 172.38 89.64">
  <defs>
    <style>
      .cls-1, .cls-2, .cls-3 {
        fill: #1d50a3;
      }

      .cls-1, .cls-4, .cls-5, .cls-6, .cls-7 {
        stroke-width: 0px;
      }

      .cls-8, .cls-2, .cls-3 {
        isolation: isolate;
      }

      .cls-2, .cls-3 {
        font-family: "Red Hat Text", sans-serif;
        font-size: 15.23px;
        font-variation-settings: 'wght' 700;
        font-weight: 700;
      }

      .cls-4 {
        fill: #2254a5;
      }

      .cls-5 {
        fill: none;
      }

      .cls-9 {
        letter-spacing: -.03em;
      }

      .cls-6 {
        fill: #edf0f8;
      }

      .cls-7 {
        fill: #feffff;
      }

      .cls-10 {
        clip-path: url(#clippath);
      }

      .cls-3 {
        letter-spacing: -.04em;
      }
    </style>
    <clipPath id="clippath">
      <rect class="cls-5" x="22.38" y="30.22" width="150" height="21"/>
    </clipPath>
  </defs>
  <g class="cls-10">
    <g>
      <path class="cls-7" d="m0,0h89.64v89.64H0V0Zm37.22,48.27h25.37v-14.38h-10.36v3.31h-1.83v-3.32h-24.27v14.4h9.22v-8.08h1.87v8.07Zm27.64,2.36v-19.09h-12.53v1.05h11.49v17.01h-26.6c.02.4.03.71.05,1.03,0,0,27.59,0,27.59,0Zm-41.03-.02h11.45v-1.06h-10.34v-17.02h25.41v-.98h-26.52s0,19.06,0,19.06Zm15.78,2.68c.05-.24.34-.78.18-1.06-.18-.31-.75-.49-1.17-.55-.57-.09-1.17-.02-1.78-.02v3.64c.68,0,1.35.08,1.98-.03.39-.06.91-.32,1.04-.63.14-.33-.12-.82-.23-1.34h-.02Zm17.82.63c.05.11.09.23.14.34-.38.16-.79.48-1.13.42s-.85-.5-.87-.8c-.03-.5.14-1.13.47-1.48.19-.2.85,0,1.29.1.32.07.6.29,1.08.52-.25-1.17-.89-1.42-1.65-1.47-.79-.05-1.62.12-1.87.9-.21.65-.2,1.49.05,2.1.16.4.92.69,1.44.77.6.09,1.25-.13,1.92-.21v-1.71c-1.64-.18-1.79-.15-2.02.42.39.03.77.06,1.15.09h0Zm-27.12-2.44c-.48.21-1.15.28-1.31.6-.49.99-.78,2.08-1.23,3.35.78-.34,1.37-.8,1.96-.8s1.21.45,1.96.76c-.47-1.34-.87-2.48-1.38-3.91Zm32.64,3.9c-.35-1.01-.72-1.83-.91-2.69-.22-.99-.76-1.22-1.7-.96-.4,1.14-.81,2.31-1.3,3.7.75-.34,1.33-.81,1.91-.81.62,0,1.23.44,2,.76Zm-17.19-3.08c-.55,1.14-1.88,1.61-2.05,2.96h3.25c0-.18.02-.44,0-.44-.64-.12-1.28-.21-1.92-.3.48-1.02,1.84-1.46,1.93-2.86-.97,0-1.84-.02-2.69.02-.18,0-.34.26-.52.4.06.07.11.15.17.22h1.84-.01Zm-11.1,1.14c.45-.6.85-1.13,1.25-1.67-1.1-.51-1.2.67-1.8.94-.63-.75-1.21-1.05-1.74-.9.41.55.82,1.09,1.24,1.65-.44.6-.87,1.17-1.3,1.76,1.12.44,1.26-.62,1.81-1.02.57.43.77,1.47,1.87,1.01-.43-.58-.85-1.14-1.32-1.76h0Zm19.17,1.82c0-.16.02-.41,0-.42-.66-.13-1.33-.24-2.05-.36.12-1.41,1.31-.36,1.94-1-.42-.74-1.35-.05-1.96-.55.31-1.23,1.46-.26,2.02-.76-.04-.56-1.16-.73-2.76-.4v3.49h2.82-.01Zm-11.58-2.67c.31-.32.49-.5.66-.67-.22-.09-.43-.2-.66-.25-.2-.04-.42-.03-.62,0-.3.05-.59.13-.89.2.18.16.37.33.54.5.04.04.08.11.07.16-.21.73.6,1.7-.54,2.22-.08.04-.03.35-.04.52h2.11c.04-.07.09-.14.13-.21-.24-.2-.48-.4-.76-.64v-1.83Zm22.22-.81c-.09-.08-.18-.15-.27-.23-.19.19-.54.37-.55.56-.06,1.03-.03,2.07-.03,3.14h2.6c-.23-1.2-1.25-.29-1.76-.83v-2.64h0Zm-16.65-.08v3.57h2.46c0-.18.03-.43,0-.44-.52-.13-1.04-.22-1.65-.34v-2.79h-.81Zm-20.66.56c-.12-.63-.66-.74-2.68-.57-.19.02-.37.22-.56.34.05.08.09.16.14.23.35.02.69.05,1.14.07v2.9c.6.18.82.04.79-.51-.04-.79,0-1.59,0-2.39.46-.03.78-.05,1.18-.07h0Z"/>
      <path class="cls-1" d="m37.22,48.27v-8.07h-1.87v8.08h-9.22v-14.4h24.27v3.32h1.83v-3.31h10.36v14.38h-25.37Zm3.54-13.31v11.91c2.1,0,4.15.09,6.2-.03,1.76-.1,2.9-1.23,3.13-2.79.26-1.78-.38-2.88-2.11-3.65-.06-.03-.09-.13-.14-.19,1.28-.97,1.7-1.97,1.32-3.24-.39-1.32-1.43-1.91-2.7-1.97-1.87-.09-3.75-.02-5.7-.02v-.02Zm-7.98,11.9v-9.91h3.32v-1.98h-9.17v2.04h3.39v9.84h2.46Zm21.33-.04h7.65v-1.92h-5.33v-9.93h-2.32s0,11.85,0,11.85Z"/>
      <path class="cls-4" d="m64.86,50.63h-27.59c-.02-.33-.03-.63-.05-1.03h26.6v-17.01h-11.49v-1.05h12.53s0,19.09,0,19.09Z"/>
      <path class="cls-1" d="m23.83,50.61v-19.07h26.52v.98h-25.41v17.02h10.34v1.06h-11.45Z"/>
      <path class="cls-6" d="m40.76,34.96c1.95,0,3.83-.07,5.7.02,1.26.06,2.3.65,2.7,1.97.38,1.28-.04,2.27-1.32,3.24.04.07.07.16.14.19,1.74.77,2.38,1.87,2.11,3.65-.23,1.56-1.37,2.69-3.13,2.79-2.04.11-4.1.03-6.2.03,0,0,0-11.89,0-11.89Zm2.4,9.99c1.06,0,2.05.04,3.03-.01.99-.05,1.48-.63,1.5-1.64.02-1.05-.48-1.71-1.48-1.77-1-.06-2.01-.01-3.05-.01,0,0,0,3.43,0,3.43Zm0-8.16v2.89c.89,0,1.75.06,2.59-.02.84-.08,1.22-.64,1.2-1.48-.02-.81-.39-1.32-1.2-1.38-.82-.05-1.65-.01-2.59,0Z"/>
      <path class="cls-6" d="m32.77,46.86h-2.45v-9.85h-3.39v-2.04h9.16v1.98h-3.32v9.91Z"/>
      <path class="cls-7" d="m54.1,46.82v-11.85h2.32v9.92h5.33v1.92h-7.65Z"/>
      <path class="cls-1" d="m43.16,44.95v-3.43c1.04,0,2.05-.05,3.05.01s1.5.71,1.48,1.77c-.02,1.01-.5,1.59-1.5,1.64-.98.05-1.96.01-3.03,0Z"/>
      <path class="cls-4" d="m43.16,36.79c.94,0,1.77-.04,2.59.01.81.05,1.18.57,1.2,1.38.02.85-.36,1.41-1.2,1.48-.84.08-1.7.02-2.59.02v-2.89Z"/>
    </g>
  </g>
  <g class="cls-8">
    <text class="cls-3" transform="translate(69.8 45.91)"><tspan x="0" y="0">T</tspan></text>
    <text class="cls-2" transform="translate(77.69 45.91)"><tspan x="0" y="0">ax Biz </tspan><tspan class="cls-9" x="47.62" y="0">L</tspan><tspan x="57.11" y="0">egal</tspan></text>
  </g>
</svg>