<?xml version="1.0" encoding="UTF-8"?>
<svg id="Layer_2" data-name="Layer 2" xmlns="http://www.w3.org/2000/svg" xmlns:xlink="http://www.w3.org/1999/xlink" viewBox="23 25 145 30">
  <defs>
    <style>
      .cls-1, .cls-2, .cls-3 {
        fill: #1d50a3;
      }

      .cls-1, .cls-4, .cls-5, .cls-6, .cls-7 {
        stroke-width: 0px;
      }

      .cls-8, .cls-2, .cls-3 {
        isolation: isolate;
      }

      .cls-2, .cls-3 {
        font-family: "Red Hat Text", sans-serif;
        font-size: 15.23px;
        font-variation-settings: 'wght' 700;
        font-weight: 700;
      }

      .cls-4 {
        fill: #2254a5;
      }

      .cls-5 {
        fill: none;
      }

      .cls-9 {
        letter-spacing: -.03em;
      }

      .cls-6 {
        fill: #edf0f8;
      }

      .cls-7 {
        fill: #feffff;
      }

      .cls-10 {
        clip-path: url(#clippath);
      }

      .cls-3 {
        letter-spacing: -.04em;
      }
    </style>
    <clipPath id="clippath">
      <rect class="cls-5" x="22.38" y="30.22" width="150" height="21"/>
    </clipPath>
  </defs>
  <g class="cls-10">
    <g>
      <path class="cls-1" d="m37.22,48.27v-8.07h-1.87v8.08h-9.22v-14.4h24.27v3.32h1.83v-3.31h10.36v14.38h-25.37Zm3.54-13.31v11.91c2.1,0,4.15.09,6.2-.03,1.76-.1,2.9-1.23,3.13-2.79.26-1.78-.38-2.88-2.11-3.65-.06-.03-.09-.13-.14-.19,1.28-.97,1.7-1.97,1.32-3.24-.39-1.32-1.43-1.91-2.7-1.97-1.87-.09-3.75-.02-5.7-.02v-.02Zm-7.98,11.9v-9.91h3.32v-1.98h-9.17v2.04h3.39v9.84h2.46Zm21.33-.04h7.65v-1.92h-5.33v-9.93h-2.32s0,11.85,0,11.85Z"/>
      <path class="cls-4" d="m64.86,50.63h-27.59c-.02-.33-.03-.63-.05-1.03h26.6v-17.01h-11.49v-1.05h12.53s0,19.09,0,19.09Z"/>
      <path class="cls-1" d="m23.83,50.61v-19.07h26.52v.98h-25.41v17.02h10.34v1.06h-11.45Z"/>
      <path class="cls-6" d="m40.76,34.96c1.95,0,3.83-.07,5.7.02,1.26.06,2.3.65,2.7,1.97.38,1.28-.04,2.27-1.32,3.24.04.07.07.16.14.19,1.74.77,2.38,1.87,2.11,3.65-.23,1.56-1.37,2.69-3.13,2.79-2.04.11-4.1.03-6.2.03,0,0,0-11.89,0-11.89Zm2.4,9.99c1.06,0,2.05.04,3.03-.01.99-.05,1.48-.63,1.5-1.64.02-1.05-.48-1.71-1.48-1.77-1-.06-2.01-.01-3.05-.01,0,0,0,3.43,0,3.43Zm0-8.16v2.89c.89,0,1.75.06,2.59-.02.84-.08,1.22-.64,1.2-1.48-.02-.81-.39-1.32-1.2-1.38-.82-.05-1.65-.01-2.59,0Z"/>
      <path class="cls-6" d="m32.77,46.86h-2.45v-9.85h-3.39v-2.04h9.16v1.98h-3.32v9.91Z"/>
      <path class="cls-7" d="m54.1,46.82v-11.85h2.32v9.92h5.33v1.92h-7.65Z"/>
      <path class="cls-1" d="m43.16,44.95v-3.43c1.04,0,2.05-.05,3.05.01s1.5.71,1.48,1.77c-.02,1.01-.5,1.59-1.5,1.64-.98.05-1.96.01-3.03,0Z"/>
      <path class="cls-4" d="m43.16,36.79c.94,0,1.77-.04,2.59.01.81.05,1.18.57,1.2,1.38.02.85-.36,1.41-1.2,1.48-.84.08-1.7.02-2.59.02v-2.89Z"/>
    </g>
  </g>
  <g class="cls-8">
    <text class="cls-3" transform="translate(69.8 45.91)"><tspan x="0" y="0">T</tspan></text>
    <text class="cls-2" transform="translate(77.69 45.91)"><tspan x="0" y="0">ax Biz </tspan><tspan class="cls-9" x="47.62" y="0">L</tspan><tspan x="57.11" y="0">egal</tspan></text>
  </g>
</svg>