<svg class="img-fluid" id="outputsvg" xmlns="http://www.w3.org/2000/svg" style="transform: matrix(0.856831, 0, 0, 0.856831, 0, 0); transform-origin: 50% 50%; cursor: move; transition: none;" width="512" height="512" viewBox="0 0 5120 5120"><g id="l2u8aFL1WI5sebwidwSlC7r" fill="rgb(0,0,0)" style="transform: none;"><g style="transform: none;"><path id="pWRqpj8r9" d="M3440 2875 l0 -315 45 0 c44 0 45 1 45 31 l0 31 28 -30 c81 -86 245 -53 304 61 29 58 36 168 14 234 -46 139 -209 186 -313 90 l-23 -20 0 116 0 117 -50 0 -50 0 0 -315z m285 63 c81 -37 97 -201 27 -279 -48 -53 -150 -50 -187 7 -8 13 -20 46 -26 74 -30 141 72 250 186 198z"></path><path id="pa344gXHQ" d="M2277 3016 c-88 -32 -97 -58 -97 -281 l0 -175 44 0 44 0 3 169 c4 163 5 170 28 195 26 28 77 35 125 16 47 -17 56 -54 56 -225 l0 -155 50 0 50 0 0 225 0 225 -50 0 c-50 0 -50 0 -50 -32 l0 -32 -16 23 c-19 27 -88 61 -124 60 -14 0 -42 -6 -63 -13z"></path><path id="pB8r6Gjwo" d="M2795 3021 c-77 -20 -135 -75 -135 -128 0 -21 5 -23 45 -23 39 0 47 4 55 24 14 38 49 56 107 56 41 0 58 -5 80 -24 27 -24 27 -26 13 -53 -16 -28 -21 -31 -182 -77 -75 -22 -108 -60 -108 -123 0 -64 43 -106 125 -123 109 -23 203 10 236 85 l18 40 -45 3 c-39 3 -49 -1 -73 -27 -25 -26 -36 -31 -78 -31 -82 0 -123 50 -69 85 13 9 61 25 105 35 102 25 137 42 156 80 35 68 5 148 -69 180 -49 22 -138 33 -181 21z"></path><path id="phpSoxLCm" d="M4525 3021 c-82 -21 -136 -74 -161 -157 -56 -185 84 -351 264 -315 77 15 126 52 158 117 23 47 26 63 23 132 -5 100 -40 163 -109 199 -50 26 -128 36 -175 24z m140 -104 c78 -78 64 -237 -25 -285 -36 -19 -106 -9 -137 19 -55 51 -69 149 -33 223 24 51 62 75 119 76 36 0 49 -6 76 -33z"></path><path id="pKfaMpbtO" d="M3244 3013 c-12 -2 -32 -15 -45 -29 -23 -24 -24 -33 -28 -190 l-3 -164 -34 0 c-32 0 -34 -2 -34 -35 0 -33 2 -35 35 -35 l35 0 0 -70 0 -70 50 0 50 0 0 70 0 70 45 0 c45 0 45 0 45 35 0 35 0 35 -45 35 l-45 0 0 136 c0 74 5 144 10 155 8 13 21 19 45 19 33 0 35 2 35 34 0 44 -33 55 -116 39z"></path><path id="p1H4giVlgO" d="M4983 3005 c-17 -7 -36 -22 -42 -34 -7 -12 -11 -85 -11 -180 l0 -161 -40 0 c-39 0 -40 -1 -40 -35 0 -34 1 -35 40 -35 l40 0 0 -70 0 -70 50 0 50 0 0 70 0 70 45 0 c45 0 45 0 45 35 0 35 0 35 -45 35 l-46 0 3 153 3 152 43 3 c40 3 42 4 42 37 0 21 -6 35 -16 39 -27 10 -87 6 -121 -9z"></path><path id="p1CW4lOe3i" d="M1550 2740 l0 -270 -100 0 -100 0 0 -45 0 -45 255 0 255 0 0 45 0 45 -100 0 -100 0 0 270 0 270 -55 0 -55 0 0 -270z"></path><path id="pxbLVVhaV" d="M1840 2785 l0 -225 45 0 45 0 0 42 0 41 38 -40 c37 -40 100 -70 127 -59 10 3 15 20 15 48 l0 43 -40 0 c-47 0 -88 28 -112 76 -15 27 -18 60 -18 167 l0 132 -50 0 -50 0 0 -225z"></path><path id="p1E2QK88lm" d="M3980 2785 l0 -225 45 0 45 0 0 225 0 225 -45 0 -45 0 0 -225z"></path><path id="p16vnhWri6" d="M4170 2695 l0 -315 50 0 50 0 0 315 0 315 -50 0 -50 0 0 -315z"></path><path id="p2Wuy5MKb" d="M3980 2425 l0 -45 45 0 45 0 0 45 0 45 -45 0 -45 0 0 -45z"></path></g></g><g id="l5VQBa2vARoHfRPKmlkym7k" fill="rgb(0,182,122)" style="transform: none;"><g style="transform: none;"><path id="pSt2piBjJ" d="M313 2865 c38 -118 68 -217 66 -218 -2 -2 -84 -62 -182 -133 l-179 -129 228 -5 227 -5 70 -215 70 -215 71 217 71 218 228 2 228 3 -181 130 c-166 119 -181 132 -176 156 3 18 -1 29 -17 39 -22 14 -22 14 6 20 28 5 31 13 83 174 30 93 53 171 51 172 -2 2 -64 -40 -138 -94 -74 -54 -155 -113 -181 -131 l-47 -33 -179 131 c-99 72 -182 131 -185 131 -3 0 27 -97 66 -215z"></path></g></g><g id="l5qTObGMIZGuraLCmDX0CZK" fill="rgb(0,81,40)" style="transform: none;"><g style="transform: none;"><path id="pCYmGGR6M" d="M730 2736 l115 -84 17 51 c10 28 17 51 15 52 -5 3 -245 65 -253 65 -4 0 43 -38 106 -84z"></path></g></g></svg>