<svg xmlns="http://www.w3.org/2000/svg" width="924" height="300" fill="none" viewBox="0 0 924 300"><mask id="a" width="924" height="300" x="0" y="0" maskUnits="userSpaceOnUse" style="mask-type:luminance"><path fill="#fff" d="M477.859 96.2533C477.332 137.775 514.863 160.948 543.135 174.724C572.184 188.86 581.941 197.924 581.83 210.564C581.608 229.911 558.658 238.449 537.176 238.781C499.701 239.363 477.914 228.664 460.59 220.57L447.091 283.74C464.471 291.751 496.652 298.736 530.025 299.041C608.357 299.041 659.608 260.374 659.885 200.419C660.19 124.332 554.639 120.119 555.359 86.1084C555.609 75.7972 565.449 64.793 587.014 61.9934C597.685 60.5798 627.15 59.4987 660.551 74.8824L673.661 13.7634C655.7 7.22186 632.61 0.957486 603.866 0.957486C530.136 0.957486 478.274 40.1513 477.859 96.2533ZM799.641 6.22398C785.339 6.22398 773.281 14.5672 767.904 27.3731L656.005 294.551H734.281L749.859 251.504H845.515L854.551 294.551H923.543L863.338 6.22398H799.641ZM810.59 84.1126L833.181 192.381H771.313L810.59 84.1126ZM382.951 6.22398L321.25 294.551H395.84L457.513 6.22398H382.951ZM272.604 6.22398L194.965 202.47L163.56 35.6055C159.873 16.9787 145.321 6.22398 129.161 6.22398H2.23897L0.464844 14.5949C26.5201 20.2495 56.1233 29.3689 74.0571 39.1257C85.0336 45.0852 88.1657 50.2962 91.7691 64.4603L151.253 294.551H230.084L350.936 6.22398H272.604Z"/></mask><g mask="url(#a)"><path fill="#fff" d="M-96.1982 36.557L813.307 -298.392L1020.22 263.45L110.72 598.399"/></g></svg>