<svg version="1.1" id="Layer_1" xmlns="http://www.w3.org/2000/svg" xmlns:xlink="http://www.w3.org/1999/xlink" x="0px" y="0px"
	 width="100%" viewBox="0 0 797 313" enable-background="new 0 0 797 313" xml:space="preserve">
<path fill="#FFFFFF" opacity="1.000000" stroke="none" 
	d="
M744.000000,314.000000 
	C496.000000,314.000000 248.500000,314.000000 1.000000,314.000000 
	C1.000000,209.666672 1.000000,105.333336 1.000000,1.000000 
	C266.666656,1.000000 532.333313,1.000000 798.000000,1.000000 
	C798.000000,105.333336 798.000000,209.666672 798.000000,314.000000 
	C780.166687,314.000000 762.333313,314.000000 744.000000,314.000000 
M189.432312,154.173706 
	C188.932266,154.459106 188.432220,154.744507 187.138504,154.995743 
	C180.095184,152.482498 173.171646,152.246704 165.932678,154.779526 
	C162.814117,155.870651 159.060120,155.145645 154.983459,155.086075 
	C154.603989,155.182602 154.224518,155.279114 153.845047,155.375641 
	C154.317581,155.570587 154.790100,155.765518 155.453461,156.785629 
	C154.261627,161.856262 153.069794,166.926910 151.569000,172.148972 
	C151.498917,172.238373 151.354691,172.348068 151.372574,172.413391 
	C151.427231,172.613083 151.544235,172.795731 151.702225,173.266342 
	C151.702225,173.266342 151.821655,173.529266 151.047241,173.428192 
	C149.822342,173.070831 148.597427,172.713455 147.234497,172.315826 
	C148.619263,165.408386 149.943451,158.803146 151.357819,151.747986 
	C145.698441,150.663956 140.407471,149.650497 134.520340,148.522842 
	C134.520340,158.583221 134.520340,168.104889 134.520340,177.676407 
	C138.130203,178.500015 141.633820,179.299377 145.273712,180.129837 
	C145.911606,177.892120 146.442581,176.029465 147.027206,173.978622 
	C148.846054,174.319443 150.435684,174.617325 152.597794,175.299316 
	C153.201508,175.573059 154.099609,175.679047 154.365326,176.145386 
	C159.320282,184.841537 168.928192,184.488617 176.700745,187.674667 
	C177.425415,187.971725 178.432724,188.184448 179.101196,187.917145 
	C184.174683,185.888565 189.358337,183.973358 192.816986,179.361832 
	C193.938293,177.866776 194.936829,176.279648 196.791550,174.764420 
	C197.565308,176.253571 198.339081,177.742737 199.294754,179.582001 
	C202.809052,178.729965 206.421555,177.854111 210.247711,176.926468 
	C209.808167,166.933701 209.387680,157.374207 208.923920,146.830566 
	C202.096985,149.416824 196.040665,151.711136 189.432312,154.173706 
M375.150635,181.423065 
	C375.150635,184.170090 375.150635,186.917099 375.150635,189.842499 
	C383.086823,189.842499 390.235687,189.855942 397.384491,189.837097 
	C401.225830,189.826981 404.943207,188.360306 405.514679,184.590836 
	C406.398682,178.759598 408.308014,172.308945 402.343140,167.616791 
	C407.125488,163.692673 407.855591,152.103851 403.612305,148.167526 
	C402.576996,147.207077 401.044464,146.250290 399.720001,146.221054 
	C391.633881,146.042465 383.541779,146.131790 375.150635,146.131790 
	C375.150635,157.864426 375.150635,169.152588 375.150635,181.423065 
M590.289185,145.997437 
	C583.299316,145.999725 576.307495,145.902069 569.320251,146.038101 
	C564.342712,146.134979 561.232300,148.864410 561.133911,153.565475 
	C560.935486,163.047440 560.944153,172.539215 561.136169,182.021500 
	C561.228760,186.591858 564.276489,189.641129 568.622559,189.794647 
	C573.941528,189.982529 579.280823,190.024323 584.595093,189.778702 
	C588.792175,189.584717 591.596252,186.906433 591.856445,182.876022 
	C592.281067,176.300415 591.971069,169.677368 591.971069,163.160034 
	C586.619324,163.160034 581.740051,163.160034 576.970154,163.160034 
	C576.970154,166.561783 576.970154,169.609665 576.970154,172.924713 
	C578.797485,172.924713 580.239441,172.924713 581.771851,172.924713 
	C581.771851,175.293442 581.771851,177.373001 581.771851,179.502960 
	C578.128906,179.502960 574.745056,179.502960 571.278442,179.502960 
	C571.278442,171.596359 571.278442,164.012405 571.278442,156.004791 
	C578.209351,156.004791 584.948853,156.004791 592.362793,156.004791 
	C591.957520,152.371048 591.604797,149.208786 590.289185,145.997437 
M551.016479,150.517868 
	C550.949890,149.083572 550.883240,147.649277 550.819031,146.266785 
	C541.575134,146.266785 532.685669,146.266785 523.838013,146.266785 
	C523.838013,160.920044 523.838013,175.286301 523.838013,189.654388 
	C533.001343,189.654388 541.771118,189.654388 550.777222,189.654388 
	C550.777222,186.361267 550.777222,183.264145 550.777222,179.718674 
	C545.167297,179.718674 539.592163,179.718674 533.845947,179.718674 
	C533.845947,177.228256 533.845947,175.188019 533.845947,172.680145 
	C538.068054,172.680145 541.974060,172.680145 545.732849,172.680145 
	C545.732849,169.131104 545.732849,166.059967 545.732849,162.696564 
	C541.645020,162.696564 537.862671,162.696564 533.832397,162.696564 
	C533.832397,160.350250 533.832397,158.320343 533.832397,155.855957 
	C539.706116,155.855957 545.277283,155.855957 551.016479,155.855957 
	C551.016479,154.108414 551.016479,152.793427 551.016479,150.517868 
M286.660706,147.820328 
	C282.773590,161.685333 278.886475,175.550354 274.925171,189.679993 
	C278.436401,189.679993 281.559937,189.679993 284.655090,189.679993 
	C286.266174,187.154007 285.403900,183.119980 290.707336,183.305939 
	C295.651672,183.479324 298.982513,184.184677 299.287292,189.540039 
	C302.744568,189.540039 305.797089,189.540039 309.214050,189.540039 
	C305.105957,174.808914 301.107819,160.472031 296.940491,145.528534 
	C293.441742,146.042496 290.169678,146.523148 286.660706,147.820328 
M626.843262,189.858490 
	C629.111694,189.858490 631.380127,189.858490 634.042114,189.858490 
	C629.854431,174.860977 625.823669,160.425400 621.856995,146.219421 
	C618.190979,146.219421 615.090942,146.219421 611.784058,146.219421 
	C607.754272,160.703049 603.770081,175.022797 599.699097,189.654449 
	C603.276672,189.654449 606.376892,189.654449 609.302002,189.654449 
	C610.279236,187.544983 610.757263,184.471893 612.113098,184.017349 
	C614.811523,183.112717 618.071106,183.242783 620.934387,183.796112 
	C622.022034,184.006302 622.539185,186.645630 623.543579,188.010544 
	C624.123352,188.798370 625.156738,189.252411 626.843262,189.858490 
M455.413391,189.853043 
	C458.026123,189.853043 460.638824,189.853043 463.432617,189.853043 
	C463.432617,186.247742 463.432617,183.195724 463.432617,179.721375 
	C458.403961,179.721375 453.652039,179.721375 447.975250,179.721375 
	C452.355347,173.074463 455.951080,166.906509 460.265503,161.290665 
	C463.861938,156.609344 464.218292,151.739716 463.384674,146.203354 
	C454.290375,146.203354 445.374512,146.203354 436.273102,146.203354 
	C436.273102,149.486404 436.273102,152.552048 436.273102,156.144562 
	C441.337555,156.144562 446.205261,156.144562 451.100464,156.144562 
	C446.773865,167.838348 433.537567,175.037003 436.371857,189.853043 
	C442.512512,189.853043 448.473511,189.853043 455.413391,189.853043 
M340.595367,169.660736 
	C340.801727,168.000870 340.567993,166.112579 341.290405,164.720551 
	C344.469330,158.595078 347.924255,152.612854 351.300964,146.539490 
	C344.593903,144.643265 339.984863,146.070023 337.753906,152.747757 
	C337.111023,154.672104 335.721619,156.347076 334.417358,158.575745 
	C332.269531,154.762283 331.065186,150.664459 328.341766,148.368759 
	C325.877411,146.291428 321.754883,146.181259 318.363495,145.203690 
	C318.150909,145.742905 317.938293,146.282120 317.725677,146.821350 
	C320.138794,151.132263 322.183258,155.709030 325.054260,159.689713 
	C329.032074,165.205032 329.423889,170.018936 325.161835,175.684204 
	C322.062073,179.804489 320.076385,184.762909 317.679382,189.189926 
	C329.366089,193.509430 329.993256,183.003113 334.569122,177.353989 
	C336.606812,180.956299 338.349792,184.348373 340.382965,187.556519 
	C343.186920,191.980881 347.278625,189.161850 351.611176,189.780289 
	C347.773071,182.766876 344.367859,176.544479 340.595367,169.660736 
M268.201324,145.991776 
	C258.803680,145.991776 249.406067,145.991776 240.036179,145.991776 
	C240.036179,149.646973 240.036179,152.728378 240.036179,156.246796 
	C243.545044,156.246796 246.785339,156.246796 250.329498,156.246796 
	C250.329498,167.604340 250.329498,178.519241 250.329498,189.556534 
	C253.712921,189.556534 256.765076,189.556534 260.309448,189.556534 
	C260.309448,178.228195 260.309448,167.182434 260.309448,155.753693 
	C264.060455,155.753693 267.315216,155.753693 271.649811,155.753693 
	C270.708344,152.096146 269.924011,149.049088 268.201324,145.991776 
M487.143616,180.442078 
	C487.143616,183.520355 487.143616,186.598648 487.143616,189.694672 
	C496.234650,189.694672 504.523407,189.694672 512.953979,189.694672 
	C512.953979,186.332321 512.953979,183.134064 512.953979,179.630783 
	C507.648529,179.630783 502.705780,179.630783 497.232788,179.630783 
	C497.232788,168.293304 497.232788,157.251144 497.232788,146.285751 
	C493.598907,146.285751 490.514832,146.285751 487.144104,146.285751 
	C487.144104,157.541672 487.144104,168.500519 487.143616,180.442078 
M669.321655,179.901398 
	C664.384216,179.901398 659.446777,179.901398 654.024414,179.901398 
	C654.024414,168.299820 654.024414,157.267227 654.024414,146.273438 
	C650.456970,146.273438 647.391418,146.273438 644.412842,146.273438 
	C644.412842,160.909164 644.412842,175.259674 644.412842,189.646027 
	C653.026733,189.646027 661.278625,189.646027 669.953613,189.646027 
	C669.953613,186.515656 669.953613,183.570908 669.321655,179.901398 
M418.679749,189.838669 
	C420.961456,189.838669 423.243164,189.838669 425.639282,189.838669 
	C425.639282,174.982162 425.639282,160.520584 425.639282,146.350861 
	C422.207214,146.350861 419.143097,146.350861 415.997711,146.350861 
	C415.997711,159.974899 415.955994,173.246216 416.073730,186.516113 
	C416.083618,187.626465 417.166687,188.727295 418.679749,189.838669 
z"/>
<path fill="#050505" opacity="1.000000" stroke="none" 
	d="
M375.150635,180.931915 
	C375.150635,169.152588 375.150635,157.864426 375.150635,146.131790 
	C383.541779,146.131790 391.633881,146.042465 399.720001,146.221054 
	C401.044464,146.250290 402.576996,147.207077 403.612305,148.167526 
	C407.855591,152.103851 407.125488,163.692673 402.343140,167.616791 
	C408.308014,172.308945 406.398682,178.759598 405.514679,184.590836 
	C404.943207,188.360306 401.225830,189.826981 397.384491,189.837097 
	C390.235687,189.855942 383.086823,189.842499 375.150635,189.842499 
	C375.150635,186.917099 375.150635,184.170090 375.150635,180.931915 
M394.049377,162.829758 
	C394.692841,161.064301 395.336304,159.298843 395.979767,157.533401 
	C392.541412,156.829498 389.103088,156.125610 385.484650,155.384842 
	C385.484650,158.519806 385.484650,160.537292 385.484650,162.855103 
	C388.264557,162.855103 390.705292,162.855103 394.049377,162.829758 
M385.979614,179.691345 
	C388.274872,179.746170 390.684204,180.243698 392.823273,179.692383 
	C394.139343,179.353180 395.660217,177.521164 395.903900,176.148941 
	C396.055054,175.297791 394.121368,173.371368 392.886841,173.128052 
	C390.424561,172.642700 387.799286,172.984222 385.329163,172.984222 
	C385.329163,175.487488 385.329163,177.284225 385.979614,179.691345 
z"/>
<path fill="#040404" opacity="1.000000" stroke="none" 
	d="
M195.991516,174.734634 
	C194.936829,176.279648 193.938293,177.866776 192.816986,179.361832 
	C189.358337,183.973358 184.174683,185.888565 179.101196,187.917145 
	C178.432724,188.184448 177.425415,187.971725 176.700745,187.674667 
	C168.928192,184.488617 159.320282,184.841537 154.365326,176.145386 
	C154.099609,175.679047 153.201508,175.573059 152.267975,174.759705 
	C151.899338,173.989792 151.860489,173.759521 151.821655,173.529266 
	C151.821655,173.529266 151.702225,173.266342 151.830322,172.903320 
	C151.931595,172.359375 151.904770,172.178467 151.877960,171.997543 
	C153.069794,166.926910 154.261627,161.856262 155.531952,156.236633 
	C155.610458,155.687622 155.594803,155.245728 155.594803,155.245728 
	C159.060120,155.145645 162.814117,155.870651 165.932678,154.779526 
	C173.171646,152.246704 180.095184,152.482498 187.593689,155.403534 
	C189.366623,160.978271 190.904037,166.102859 191.912704,171.329468 
	C192.444641,174.085785 193.822189,174.307938 195.971069,174.109772 
	C195.968384,174.318268 195.991516,174.734634 195.991516,174.734634 
z"/>
<path fill="#030303" opacity="1.000000" stroke="none" 
	d="
M590.770630,146.021973 
	C591.604797,149.208786 591.957520,152.371048 592.362793,156.004791 
	C584.948853,156.004791 578.209351,156.004791 571.278442,156.004791 
	C571.278442,164.012405 571.278442,171.596359 571.278442,179.502960 
	C574.745056,179.502960 578.128906,179.502960 581.771851,179.502960 
	C581.771851,177.373001 581.771851,175.293442 581.771851,172.924713 
	C580.239441,172.924713 578.797485,172.924713 576.970154,172.924713 
	C576.970154,169.609665 576.970154,166.561783 576.970154,163.160034 
	C581.740051,163.160034 586.619324,163.160034 591.971069,163.160034 
	C591.971069,169.677368 592.281067,176.300415 591.856445,182.876022 
	C591.596252,186.906433 588.792175,189.584717 584.595093,189.778702 
	C579.280823,190.024323 573.941528,189.982529 568.622559,189.794647 
	C564.276489,189.641129 561.228760,186.591858 561.136169,182.021500 
	C560.944153,172.539215 560.935486,163.047440 561.133911,153.565475 
	C561.232300,148.864410 564.342712,146.134979 569.320251,146.038101 
	C576.307495,145.902069 583.299316,145.999725 590.770630,146.021973 
z"/>
<path fill="#090909" opacity="1.000000" stroke="none" 
	d="
M551.016479,150.998169 
	C551.016479,152.793427 551.016479,154.108414 551.016479,155.855957 
	C545.277283,155.855957 539.706116,155.855957 533.832397,155.855957 
	C533.832397,158.320343 533.832397,160.350250 533.832397,162.696564 
	C537.862671,162.696564 541.645020,162.696564 545.732849,162.696564 
	C545.732849,166.059967 545.732849,169.131104 545.732849,172.680145 
	C541.974060,172.680145 538.068054,172.680145 533.845947,172.680145 
	C533.845947,175.188019 533.845947,177.228256 533.845947,179.718674 
	C539.592163,179.718674 545.167297,179.718674 550.777222,179.718674 
	C550.777222,183.264145 550.777222,186.361267 550.777222,189.654388 
	C541.771118,189.654388 533.001343,189.654388 523.838013,189.654388 
	C523.838013,175.286301 523.838013,160.920044 523.838013,146.266785 
	C532.685669,146.266785 541.575134,146.266785 550.819031,146.266785 
	C550.883240,147.649277 550.949890,149.083572 551.016479,150.998169 
z"/>
<path fill="#090909" opacity="1.000000" stroke="none" 
	d="
M286.779175,147.412079 
	C290.169678,146.523148 293.441742,146.042496 296.940491,145.528534 
	C301.107819,160.472031 305.105957,174.808914 309.214050,189.540039 
	C305.797089,189.540039 302.744568,189.540039 299.287292,189.540039 
	C298.982513,184.184677 295.651672,183.479324 290.707336,183.305939 
	C285.403900,183.119980 286.266174,187.154007 284.655090,189.679993 
	C281.559937,189.679993 278.436401,189.679993 274.925171,189.679993 
	C278.886475,175.550354 282.773590,161.685333 286.779175,147.412079 
z"/>
<path fill="#090909" opacity="1.000000" stroke="none" 
	d="
M626.414612,189.857574 
	C625.156738,189.252411 624.123352,188.798370 623.543579,188.010544 
	C622.539185,186.645630 622.022034,184.006302 620.934387,183.796112 
	C618.071106,183.242783 614.811523,183.112717 612.113098,184.017349 
	C610.757263,184.471893 610.279236,187.544983 609.302002,189.654449 
	C606.376892,189.654449 603.276672,189.654449 599.699097,189.654449 
	C603.770081,175.022797 607.754272,160.703049 611.784058,146.219421 
	C615.090942,146.219421 618.190979,146.219421 621.856995,146.219421 
	C625.823669,160.425400 629.854431,174.860977 634.042114,189.858490 
	C631.380127,189.858490 629.111694,189.858490 626.414612,189.857574 
z"/>
<path fill="#070707" opacity="1.000000" stroke="none" 
	d="
M454.923950,189.853043 
	C448.473511,189.853043 442.512512,189.853043 436.371857,189.853043 
	C433.537567,175.037003 446.773865,167.838348 451.100464,156.144562 
	C446.205261,156.144562 441.337555,156.144562 436.273102,156.144562 
	C436.273102,152.552048 436.273102,149.486404 436.273102,146.203354 
	C445.374512,146.203354 454.290375,146.203354 463.384674,146.203354 
	C464.218292,151.739716 463.861938,156.609344 460.265503,161.290665 
	C455.951080,166.906509 452.355347,173.074463 447.975250,179.721375 
	C453.652039,179.721375 458.403961,179.721375 463.432617,179.721375 
	C463.432617,183.195724 463.432617,186.247742 463.432617,189.853043 
	C460.638824,189.853043 458.026123,189.853043 454.923950,189.853043 
z"/>
<path fill="#070707" opacity="1.000000" stroke="none" 
	d="
M340.778992,169.991394 
	C344.367859,176.544479 347.773071,182.766876 351.611176,189.780289 
	C347.278625,189.161850 343.186920,191.980881 340.382965,187.556519 
	C338.349792,184.348373 336.606812,180.956299 334.569122,177.353989 
	C329.993256,183.003113 329.366089,193.509430 317.679382,189.189926 
	C320.076385,184.762909 322.062073,179.804489 325.161835,175.684204 
	C329.423889,170.018936 329.032074,165.205032 325.054260,159.689713 
	C322.183258,155.709030 320.138794,151.132263 317.725677,146.821350 
	C317.938293,146.282120 318.150909,145.742905 318.363495,145.203690 
	C321.754883,146.181259 325.877411,146.291428 328.341766,148.368759 
	C331.065186,150.664459 332.269531,154.762283 334.417358,158.575745 
	C335.721619,156.347076 337.111023,154.672104 337.753906,152.747757 
	C339.984863,146.070023 344.593903,144.643265 351.300964,146.539490 
	C347.924255,152.612854 344.469330,158.595078 341.290405,164.720551 
	C340.567993,166.112579 340.801727,168.000870 340.778992,169.991394 
z"/>
<path fill="#050505" opacity="1.000000" stroke="none" 
	d="
M268.670502,145.996902 
	C269.924011,149.049088 270.708344,152.096146 271.649811,155.753693 
	C267.315216,155.753693 264.060455,155.753693 260.309448,155.753693 
	C260.309448,167.182434 260.309448,178.228195 260.309448,189.556534 
	C256.765076,189.556534 253.712921,189.556534 250.329498,189.556534 
	C250.329498,178.519241 250.329498,167.604340 250.329498,156.246796 
	C246.785339,156.246796 243.545044,156.246796 240.036179,156.246796 
	C240.036179,152.728378 240.036179,149.646973 240.036179,145.991776 
	C249.406067,145.991776 258.803680,145.991776 268.670502,145.996902 
z"/>
<path fill="#070707" opacity="1.000000" stroke="none" 
	d="
M487.143860,179.950714 
	C487.144104,168.500519 487.144104,157.541672 487.144104,146.285751 
	C490.514832,146.285751 493.598907,146.285751 497.232788,146.285751 
	C497.232788,157.251144 497.232788,168.293304 497.232788,179.630783 
	C502.705780,179.630783 507.648529,179.630783 512.953979,179.630783 
	C512.953979,183.134064 512.953979,186.332321 512.953979,189.694672 
	C504.523407,189.694672 496.234650,189.694672 487.143616,189.694672 
	C487.143616,186.598648 487.143616,183.520355 487.143860,179.950714 
z"/>
<path fill="#050505" opacity="1.000000" stroke="none" 
	d="
M669.637634,180.263779 
	C669.953613,183.570908 669.953613,186.515656 669.953613,189.646027 
	C661.278625,189.646027 653.026733,189.646027 644.412842,189.646027 
	C644.412842,175.259674 644.412842,160.909164 644.412842,146.273438 
	C647.391418,146.273438 650.456970,146.273438 654.024414,146.273438 
	C654.024414,157.267227 654.024414,168.299820 654.024414,179.901398 
	C659.446777,179.901398 664.384216,179.901398 669.637634,180.263779 
z"/>
<path fill="#080808" opacity="1.000000" stroke="none" 
	d="
M151.434448,173.478729 
	C151.860489,173.759521 151.899338,173.989792 151.981750,174.567627 
	C150.435684,174.617325 148.846054,174.319443 147.027206,173.978622 
	C146.442581,176.029465 145.911606,177.892120 145.273712,180.129837 
	C141.633820,179.299377 138.130203,178.500015 134.520340,177.676407 
	C134.520340,168.104889 134.520340,158.583221 134.520340,148.522842 
	C140.407471,149.650497 145.698441,150.663956 151.357819,151.747986 
	C149.943451,158.803146 148.619263,165.408386 147.234497,172.315826 
	C148.597427,172.713455 149.822342,173.070831 151.434448,173.478729 
z"/>
<path fill="#010101" opacity="1.000000" stroke="none" 
	d="
M418.215454,189.835602 
	C417.166687,188.727295 416.083618,187.626465 416.073730,186.516113 
	C415.955994,173.246216 415.997711,159.974899 415.997711,146.350861 
	C419.143097,146.350861 422.207214,146.350861 425.639282,146.350861 
	C425.639282,160.520584 425.639282,174.982162 425.639282,189.838669 
	C423.243164,189.838669 420.961456,189.838669 418.215454,189.835602 
z"/>
<path fill="#090909" opacity="1.000000" stroke="none" 
	d="
M196.391541,174.749527 
	C195.991516,174.734634 195.968384,174.318268 196.183319,173.787277 
	C195.315277,167.072708 194.291397,160.876923 193.022964,154.731613 
	C192.933670,154.298935 191.039337,154.238815 189.984344,154.005463 
	C196.040665,151.711136 202.096985,149.416824 208.923920,146.830566 
	C209.387680,157.374207 209.808167,166.933701 210.247711,176.926468 
	C206.421555,177.854111 202.809052,178.729965 199.294754,179.582001 
	C198.339081,177.742737 197.565308,176.253571 196.391541,174.749527 
z"/>
<path fill="#F0F0F0" opacity="1.000000" stroke="none" 
	d="
M189.708328,154.089584 
	C191.039337,154.238815 192.933670,154.298935 193.022964,154.731613 
	C194.291397,160.876923 195.315277,167.072708 196.186005,173.578781 
	C193.822189,174.307938 192.444641,174.085785 191.912704,171.329468 
	C190.904037,166.102859 189.366623,160.978271 187.990509,155.420624 
	C188.432220,154.744507 188.932266,154.459106 189.708328,154.089584 
z"/>
<path fill="#EDEDED" opacity="1.000000" stroke="none" 
	d="
M155.289124,155.165894 
	C155.594803,155.245728 155.610458,155.687622 155.436554,155.824036 
	C154.790100,155.765518 154.317581,155.570587 153.845047,155.375641 
	C154.224518,155.279114 154.603989,155.182602 155.289124,155.165894 
z"/>
<path fill="#EDEDED" opacity="1.000000" stroke="none" 
	d="
M151.723480,172.073257 
	C151.904770,172.178467 151.931595,172.359375 151.797699,172.762650 
	C151.544235,172.795731 151.427231,172.613083 151.372574,172.413391 
	C151.354691,172.348068 151.498917,172.238373 151.723480,172.073257 
z"/>
<path fill="#F0F0F0" opacity="1.000000" stroke="none" 
	d="
M393.597717,162.842438 
	C390.705292,162.855103 388.264557,162.855103 385.484650,162.855103 
	C385.484650,160.537292 385.484650,158.519806 385.484650,155.384842 
	C389.103088,156.125610 392.541412,156.829498 395.979767,157.533401 
	C395.336304,159.298843 394.692841,161.064301 393.597717,162.842438 
z"/>
<path fill="#F0F0F0" opacity="1.000000" stroke="none" 
	d="
M385.654388,179.386139 
	C385.329163,177.284225 385.329163,175.487488 385.329163,172.984222 
	C387.799286,172.984222 390.424561,172.642700 392.886841,173.128052 
	C394.121368,173.371368 396.055054,175.297791 395.903900,176.148941 
	C395.660217,177.521164 394.139343,179.353180 392.823273,179.692383 
	C390.684204,180.243698 388.274872,179.746170 385.654388,179.386139 
z"/>
</svg>