<?xml version="1.0" encoding="utf-8"?>
<svg xmlns="http://www.w3.org/2000/svg" viewBox="0 0 500 500">
  <path d="M 62.762 198.191 C 63.451 226.768 63.451 226.768 64.153 255.922 C 51.644 261.894 51.644 261.894 46.084 261.894 C 45.167 259.267 44.249 256.639 43.304 253.932 C 42.388 253.932 41.47 253.932 40.525 253.932 C 40.381 255.08 40.237 256.231 40.09 257.415 C 38.96 262.711 37.649 265.87 34.966 269.857 C 33.131 269.857 31.297 269.857 29.407 269.857 C 28.948 271.828 28.489 273.799 28.016 275.829 C 19.865 280.543 19.865 280.543 15.072 278.318 C 13.839 277.496 12.607 276.675 11.338 275.829 C 7.83 274.744 4.313 273.84 0.778 272.966 C -5.119 270.99 -7.612 268.786 -11.421 261.894 C -15.345 255.472 -17.707 253.84 -23.408 251.941 C -24.326 255.882 -25.243 259.824 -26.188 263.885 C -31.692 261.914 -37.196 259.943 -42.866 257.913 C -42.866 238.204 -42.866 218.497 -42.866 198.191 C -38.767 199.095 -34.669 199.996 -30.445 200.928 C -29.152 201.203 -27.858 201.48 -26.526 201.762 C -25.512 201.995 -24.501 202.228 -23.458 202.467 C -22.417 202.696 -21.377 202.927 -20.304 203.161 C -19.494 203.492 -18.684 203.823 -17.849 204.163 C -17.39 205.477 -16.931 206.791 -16.459 208.144 C -7.454 212.566 1.197 210.42 9.949 206.154 C 16.267 205.579 20.151 205.732 26.192 208.516 C 30.696 210.912 30.696 210.912 33.895 207.529 C 35.166 206.419 36.436 205.308 37.745 204.163 C 41.288 202.497 44.742 201.014 48.343 199.684 C 49.271 199.313 50.198 198.946 51.154 198.564 C 55.767 196.819 58.142 195.985 62.762 198.191 Z M -19.239 212.126 C -19.981 216.225 -20.701 220.331 -21.411 224.443 C -21.815 226.73 -22.217 229.016 -22.633 231.372 C -23.382 237.777 -23.246 241.782 -22.019 247.959 C -20.642 247.302 -19.266 246.645 -17.849 245.968 C -16.407 240.156 -16.407 240.156 -15.504 233.278 C -15.156 230.962 -14.805 228.647 -14.446 226.263 C -13.558 220.155 -13.558 220.155 -13.679 214.117 C -15.514 213.459 -17.348 212.803 -19.239 212.126 Z M 34.966 212.126 C 33.076 220.245 34.764 226.414 36.268 234.396 C 36.539 235.89 36.811 237.38 37.091 238.919 C 37.762 242.6 38.447 246.275 39.136 249.95 C 40.97 249.293 42.805 248.636 44.695 247.959 C 42.86 236.134 41.026 224.309 39.136 212.126 C 37.759 212.126 36.383 212.126 34.966 212.126 Z M 0.22 228.052 C 0.22 230.023 0.22 231.993 0.22 234.024 C 1.136 234.024 2.053 234.024 2.999 234.024 C 2.999 232.053 2.999 230.083 2.999 228.052 C 2.081 228.052 1.165 228.052 0.22 228.052 Z M 50.254 249.95 C 50.254 251.264 50.254 252.578 50.254 253.932 C 51.629 253.932 53.006 253.932 54.424 253.932 C 54.424 252.618 54.424 251.304 54.424 249.95 C 53.048 249.95 51.671 249.95 50.254 249.95 Z" fill="#010101" style=""/>
  <path d="M 270.839 194.209 C 276.349 194.044 281.86 193.881 287.537 193.712 C 289.268 193.638 290.998 193.566 292.781 193.491 C 294.15 193.471 295.519 193.451 296.93 193.431 C 298.329 193.39 299.728 193.348 301.17 193.305 C 305.722 194.418 307.127 196.483 309.907 202.173 C 311.181 208.21 311.417 212.642 311.483 218.969 C 311.514 220.855 311.547 222.74 311.581 224.684 C 311.107 230.819 309.968 233.467 307.387 238.006 C 308.011 239.238 308.634 240.468 309.277 241.738 C 311.936 250.491 311.924 258.307 311.168 267.867 C 309.421 273.885 307.804 277.161 304.866 281.802 C 301.456 282.254 301.456 282.254 297.176 282.189 C 295.801 282.179 294.425 282.17 293.008 282.16 C 291.254 282.124 289.501 282.088 287.695 282.05 C 282.132 281.968 276.569 281.885 270.839 281.802 C 270.839 252.897 270.839 223.991 270.839 194.209 Z M 284.702 214.117 C 284.702 218.058 284.702 222 284.702 226.062 C 288.445 226.062 292.188 226.062 296.044 226.062 C 296.46 222.777 296.876 219.492 297.305 216.108 C 294.421 213.83 292.776 213.91 289.585 213.991 C 287.167 214.053 287.167 214.053 284.702 214.117 Z M 284.702 247.959 C 284.702 251.901 284.702 255.843 284.702 259.903 C 288.445 259.903 292.188 259.903 296.044 259.903 C 296.46 256.619 296.876 253.334 297.305 249.95 C 294.421 247.673 292.776 247.753 289.585 247.834 C 287.167 247.896 287.167 247.896 284.702 247.959 Z" fill="#000000" style=""/>
  <path d="M 518.504 193.431 C 520.079 193.457 521.655 193.483 523.279 193.509 C 525.74 193.608 525.74 193.608 528.251 193.71 C 529.911 193.745 531.572 193.784 533.282 193.819 C 537.382 193.913 541.48 194.044 545.58 194.207 C 545.58 200.777 545.58 207.346 545.58 214.115 C 536.846 214.115 528.112 214.115 519.114 214.115 C 519.114 229.224 519.114 244.334 519.114 259.902 C 523.273 259.902 527.432 259.902 531.717 259.902 C 531.717 255.96 531.717 252.018 531.717 247.957 C 529.221 247.957 526.726 247.957 524.155 247.957 C 524.155 240.731 524.155 233.505 524.155 226.059 C 527.49 226.007 530.823 225.967 534.158 225.936 C 535.586 225.91 535.586 225.91 537.041 225.886 C 539.467 225.868 541.893 225.956 544.32 226.059 C 547.203 230.614 545.873 241.35 545.895 247.46 C 545.921 249.267 545.947 251.073 545.973 252.934 C 546.011 262.882 545.933 269.768 541.799 277.818 C 537.39 284.781 530.913 282.536 524.943 282.546 C 523.613 282.596 522.285 282.644 520.916 282.696 C 518.995 282.706 518.995 282.706 517.037 282.717 C 515.865 282.736 514.693 282.751 513.485 282.767 C 509.126 281.447 507.76 279.622 505.251 273.837 C 504.749 268.181 504.543 263.314 504.582 257.662 C 504.577 256.103 504.572 254.543 504.566 252.934 C 504.563 249.642 504.573 246.349 504.593 243.056 C 504.621 238.021 504.594 232.991 504.561 227.958 C 504.565 224.753 504.572 221.551 504.582 218.345 C 504.572 216.844 504.56 215.343 504.55 213.796 C 504.626 207.131 504.967 202.855 507.3 197.228 C 511.252 193.24 513.831 193.295 518.504 193.431 Z" fill="#000000" style=""/>
  <path d="M 457.36 194.209 C 469.005 194.209 480.65 194.209 492.648 194.209 C 492.648 200.779 492.648 207.348 492.648 214.117 C 485.578 214.117 478.508 214.117 471.223 214.117 C 471.223 218.058 471.223 222 471.223 226.062 C 472.3 226.037 473.377 226.015 474.486 225.992 C 475.879 225.974 477.271 225.956 478.706 225.936 C 480.094 225.914 481.483 225.89 482.915 225.866 C 486.347 226.062 486.347 226.062 487.607 228.052 C 487.786 234.693 487.66 241.31 487.607 247.959 C 482.2 247.959 476.794 247.959 471.223 247.959 C 471.223 251.901 471.223 255.843 471.223 259.903 C 478.293 259.903 485.364 259.903 492.648 259.903 C 492.648 267.13 492.648 274.357 492.648 281.802 C 481.003 281.802 469.358 281.802 457.36 281.802 C 457.36 252.897 457.36 223.991 457.36 194.209 Z" fill="#010101" style=""/>
  <path d="M 158.674 194.209 C 163.664 194.209 168.655 194.209 173.797 194.209 C 175.952 206.363 178.106 218.517 180.257 230.672 C 180.991 234.81 181.724 238.949 182.459 243.088 C 183.511 249.02 184.561 254.957 185.612 260.891 C 185.942 262.753 186.274 264.616 186.614 266.533 C 186.917 268.247 187.219 269.961 187.532 271.727 C 187.935 274.002 187.935 274.002 188.346 276.321 C 188.92 279.811 188.92 279.811 188.92 281.802 C 184.346 281.802 179.771 281.802 175.057 281.802 C 174.226 278.517 173.394 275.232 172.537 271.848 C 168.378 271.191 164.219 270.534 159.934 269.857 C 159.518 273.799 159.102 277.741 158.674 281.802 C 154.099 281.802 149.524 281.802 144.811 281.802 C 145.559 270.333 146.944 259.714 148.951 248.644 C 149.368 246.291 149.368 246.291 149.792 243.89 C 150.672 238.939 151.561 233.994 152.45 229.047 C 153.053 225.667 153.654 222.287 154.255 218.907 C 155.72 210.671 157.194 202.439 158.674 194.209 Z M 166.235 236.014 C 165.404 239.957 164.572 243.898 163.715 247.959 C 165.378 247.959 167.042 247.959 168.756 247.959 C 168.34 244.018 167.924 240.076 167.496 236.014 C 167.08 236.014 166.664 236.014 166.235 236.014 Z" fill="#010101" style=""/>
  <path d="M 568.265 194.209 C 572.84 194.209 577.414 194.209 582.128 194.209 C 585.792 208.521 588.407 223.272 591.039 238.115 C 591.819 242.504 592.611 246.889 593.404 251.272 C 593.904 254.077 594.403 256.88 594.902 259.684 C 595.353 262.211 595.805 264.737 596.27 267.339 C 597.251 273.839 597.251 273.839 597.251 281.802 C 592.676 281.802 588.102 281.802 583.388 281.802 C 582.972 277.86 582.556 273.918 582.128 269.857 C 575.89 270.843 575.89 270.843 569.525 271.848 C 568.277 276.775 568.277 276.775 567.005 281.802 C 562.43 281.802 557.855 281.802 553.141 281.802 C 557.884 252.458 562.653 223.172 568.265 194.209 Z M 574.566 236.014 C 574.15 239.957 573.734 243.898 573.306 247.959 C 574.97 247.302 576.633 246.645 578.347 245.968 C 577.515 242.684 576.684 239.399 575.827 236.014 C 575.411 236.014 574.995 236.014 574.566 236.014 Z" fill="#010101" style=""/>
  <path d="M 347.716 194.209 C 359.361 194.209 371.006 194.209 383.004 194.209 C 383.004 218.844 383.004 218.844 379.143 227.391 C 378.347 229.207 377.552 231.022 376.731 232.891 C 375.889 234.703 375.047 236.513 374.182 238.378 C 373.34 240.273 372.498 242.168 371.631 244.121 C 369.569 248.751 367.468 253.336 365.36 257.913 C 374.093 258.898 374.093 258.898 383.004 259.903 C 383.004 267.13 383.004 274.357 383.004 281.802 C 371.359 281.802 359.714 281.802 347.716 281.802 C 347.716 254.927 347.716 254.927 351.575 246.434 C 352.371 244.624 353.166 242.817 353.987 240.952 C 355.25 238.262 355.25 238.262 356.538 235.517 C 357.378 233.63 358.22 231.744 359.087 229.802 C 361.147 225.201 363.249 220.648 365.36 216.108 C 356.626 215.122 356.626 215.122 347.716 214.117 C 347.716 207.547 347.716 200.978 347.716 194.209 Z" fill="#010101" style=""/>
  <path d="M 197.742 194.209 C 202.567 192.989 206.82 192.446 211.605 194.209 C 215.106 200.167 217.17 206.665 219.167 214.117 C 222.953 206.914 222.953 206.914 225.547 198.564 C 227.989 194.209 227.989 194.209 231.306 193.586 C 234.842 193.586 238.326 193.784 241.852 194.209 C 240.253 199.313 238.651 204.414 237.047 209.512 C 236.598 210.95 236.148 212.384 235.686 213.864 C 235.021 215.97 235.021 215.97 234.345 218.122 C 233.912 219.497 233.481 220.873 233.037 222.293 C 231.77 226.062 231.77 226.062 229.392 231.45 C 227.654 235.893 227.654 235.893 228.648 240.595 C 231.678 249.341 234.773 258.011 237.943 266.634 C 241.852 277.408 241.852 277.408 241.852 281.802 C 237.027 283.022 232.773 283.563 227.989 281.802 C 224.487 275.841 222.424 269.346 220.427 261.894 C 216.64 269.097 216.64 269.097 214.047 277.446 C 211.605 281.802 211.605 281.802 208.287 282.423 C 204.751 282.423 201.267 282.228 197.742 281.802 C 199.136 275.405 200.95 269.969 203.256 264.313 C 209.817 248.857 209.817 248.857 210.886 231.177 C 208.882 225.052 206.602 219.695 204.044 214.117 C 202.791 210.336 201.58 206.522 200.42 202.67 C 199.904 201.038 199.387 199.405 198.854 197.723 C 198.487 196.565 198.12 195.404 197.742 194.209 Z" fill="#010101" style=""/>
  <path d="M 99.44 194.209 C 112.749 194.209 126.058 194.209 139.769 194.209 C 139.769 200.779 139.769 207.348 139.769 214.117 C 135.611 214.117 131.452 214.117 127.167 214.117 C 127.167 236.453 127.167 258.789 127.167 281.802 C 122.592 281.802 118.017 281.802 113.304 281.802 C 113.304 259.466 113.304 237.129 113.304 214.117 C 108.729 214.117 104.154 214.117 99.44 214.117 C 99.44 207.547 99.44 200.978 99.44 194.209 Z" fill="#000000" style=""/>
  <path d="M 411.99 194.209 C 416.565 194.209 421.14 194.209 425.853 194.209 C 425.853 215.888 425.853 237.568 425.853 259.903 C 432.507 259.903 439.162 259.903 446.018 259.903 C 446.018 267.13 446.018 274.357 446.018 281.802 C 434.789 281.802 423.559 281.802 411.99 281.802 C 411.99 252.897 411.99 223.991 411.99 194.209 Z" fill="#000000" style=""/>
  <path d="M 609.854 194.209 C 614.429 194.209 619.004 194.209 623.717 194.209 C 623.717 215.888 623.717 237.568 623.717 259.903 C 629.956 259.903 636.194 259.903 642.621 259.903 C 642.621 267.13 642.621 274.357 642.621 281.802 C 631.808 281.802 620.995 281.802 609.854 281.802 C 609.854 252.897 609.854 223.991 609.854 194.209 Z" fill="#000000" style=""/>
  <path d="M 322.51 194.209 C 326.669 194.209 330.828 194.209 335.113 194.209 C 335.113 223.115 335.113 252.02 335.113 281.802 C 330.954 281.802 326.795 281.802 322.51 281.802 C 322.51 252.897 322.51 223.991 322.51 194.209 Z" fill="#000000" style=""/>
</svg>