<svg xmlns="http://www.w3.org/2000/svg" width="738.667" height="738.667" preserveAspectRatio="xMidYMid meet" version="1.0" viewBox="0 0 554 554"><g fill="#000" stroke="none" transform="translate(0.000000,554.000000) scale(0.100000,-0.100000)"><path d="M1994 5524 c-53 -19 -119 -76 -143 -123 -10 -20 -96 -272 -191 -561 -95 -289 -192 -585 -217 -658 -24 -74 -46 -142 -48 -153 -2 -10 -17 -47 -34 -82 -23 -48 -52 -84 -118 -146 -48 -46 -164 -157 -258 -246 -93 -90 -188 -180 -210 -200 -114 -107 -363 -346 -485 -465 -121 -119 -140 -142 -155 -189 -16 -48 -17 -109 -3 -173 7 -29 60 -106 90 -128 16 -12 95 -55 176 -97 81 -41 248 -127 372 -190 124 -64 311 -159 415 -213 272 -140 613 -314 733 -376 57 -29 119 -64 138 -79 29 -22 134 -146 221 -261 12 -16 31 -40 42 -54 11 -14 41 -53 68 -86 26 -34 62 -78 78 -99 17 -21 35 -43 41 -49 6 -6 15 -18 20 -27 5 -9 24 -34 41 -55 18 -22 54 -67 80 -100 27 -34 60 -77 74 -95 15 -19 96 -122 181 -231 85 -108 165 -211 179 -228 92 -123 146 -155 259 -155 64 0 83 4 128 29 29 17 66 48 82 70 16 23 34 46 40 53 5 7 10 14 10 17 0 3 48 85 106 183 59 98 115 192 124 208 10 17 36 60 59 97 22 37 41 72 41 77 0 5 3 11 8 13 6 3 31 42 112 179 8 14 32 54 53 90 21 35 43 73 50 83 7 11 27 45 46 75 65 107 115 157 264 266 29 21 195 144 237 176 14 11 77 58 140 105 129 96 123 91 280 208 63 47 120 89 125 93 109 86 148 131 162 184 15 59 14 122 -1 170 -15 44 -26 62 -61 103 -5 6 -39 49 -75 96 -35 47 -67 87 -70 90 -3 3 -25 32 -50 65 -24 33 -50 66 -57 75 -6 8 -40 51 -75 95 -34 44 -65 82 -68 85 -3 3 -17 21 -30 40 -13 19 -29 40 -35 46 -6 6 -37 47 -70 90 -33 43 -68 88 -78 99 -42 45 -74 131 -92 244 -3 19 -7 37 -9 40 -2 3 -7 24 -10 46 -4 22 -9 48 -12 58 -3 11 -7 29 -9 40 -2 12 -6 33 -9 47 -3 14 -8 36 -11 50 -2 14 -7 36 -10 50 -14 70 -17 87 -20 105 -2 11 -10 52 -19 90 -8 39 -17 82 -20 95 -2 14 -13 70 -25 125 -11 55 -22 111 -25 125 -3 14 -14 72 -26 130 -35 176 -51 234 -77 268 -61 81 -121 114 -213 117 -127 4 -186 -37 -292 -200 -36 -55 -78 -120 -94 -144 -16 -24 -33 -51 -39 -60 -36 -60 -101 -157 -107 -159 -5 -2 -8 -10 -8 -17 0 -8 -6 -20 -13 -27 -7 -7 -27 -36 -45 -64 -71 -112 -127 -134 -282 -111 -19 3 -62 8 -95 12 -84 9 -128 22 -158 45 -22 18 -111 158 -117 185 -1 6 -10 21 -20 35 -9 14 -41 70 -70 125 -30 55 -66 122 -82 148 -15 26 -28 49 -28 51 0 2 -21 41 -46 87 -61 111 -102 185 -128 234 -11 22 -24 42 -27 45 -3 3 -16 25 -28 50 -36 71 -134 249 -160 290 -23 37 -84 90 -101 90 -9 0 -21 5 -28 12 -17 17 -140 18 -188 2z m225 -679 c15 -27 49 -90 75 -140 27 -49 52 -94 56 -100 4 -5 25 -44 47 -85 39 -72 62 -115 123 -225 150 -272 164 -299 175 -350 6 -27 10 -59 9 -70 -1 -22 -14 -137 -19 -175 -2 -14 -6 -50 -9 -80 -3 -30 -8 -71 -11 -90 -8 -51 -14 -97 -20 -170 -4 -36 -8 -72 -10 -80 -2 -8 -7 -42 -10 -75 -3 -33 -8 -69 -10 -80 -2 -11 -4 -30 -4 -41 -1 -27 -40 -66 -70 -71 -12 -2 -32 2 -44 9 -23 12 -31 19 -187 188 -52 56 -113 121 -135 144 -63 68 -247 265 -308 331 -114 122 -137 222 -86 372 13 37 24 70 24 73 0 3 52 160 115 350 63 190 114 347 115 350 9 49 33 78 73 90 39 11 79 -15 111 -75z m1892 -601 c15 -15 29 -65 54 -185 58 -281 64 -313 69 -339 2 -14 11 -56 19 -95 9 -38 18 -84 20 -102 3 -17 7 -36 10 -40 6 -9 18 -85 21 -138 4 -51 -13 -106 -66 -210 -57 -114 -69 -130 -107 -143 -21 -7 -35 -5 -62 9 -18 10 -29 18 -24 19 7 0 6 3 0 8 -6 4 -21 39 -33 77 -13 39 -27 79 -31 90 -5 11 -18 49 -29 85 -12 36 -53 160 -92 275 -77 225 -86 280 -63 360 16 54 190 327 219 343 27 15 72 8 95 -14z m-886 -487 c22 -4 63 -9 90 -12 28 -3 62 -10 76 -16 26 -10 59 -65 59 -97 0 -10 4 -22 9 -28 5 -5 46 -121 91 -259 46 -137 87 -256 93 -262 5 -7 7 -13 3 -13 -3 0 -1 -12 5 -27 16 -40 180 -524 185 -548 18 -74 4 -111 -144 -387 -80 -149 -87 -158 -146 -165 l-48 -5 -82 84 c-44 46 -130 138 -191 203 -60 65 -135 146 -167 179 -146 157 -150 169 -123 373 3 24 7 62 10 85 12 104 17 142 20 157 1 9 6 50 10 91 3 41 8 82 10 90 2 8 7 40 10 70 6 58 23 194 30 245 2 17 7 57 11 90 4 33 8 69 9 80 1 11 4 21 5 23 1 1 3 6 4 11 0 5 11 18 24 29 24 21 54 22 147 9z m-1683 -341 c69 -10 125 -46 200 -125 74 -79 278 -298 333 -357 17 -17 75 -80 130 -140 55 -59 113 -121 129 -138 15 -17 72 -78 126 -136 54 -58 112 -121 130 -140 27 -30 130 -140 270 -290 19 -21 78 -84 130 -140 52 -56 111 -118 130 -139 179 -192 237 -257 252 -280 22 -35 29 -95 17 -148 -5 -24 -11 -58 -13 -76 -3 -17 -7 -48 -11 -67 -5 -31 -9 -57 -30 -172 -3 -16 -7 -40 -10 -55 -3 -16 -8 -44 -11 -63 -3 -19 -7 -46 -10 -60 -2 -14 -7 -40 -10 -59 -3 -18 -8 -43 -10 -55 -3 -11 -7 -39 -10 -61 -7 -45 -38 -85 -66 -85 -32 0 -53 16 -99 77 -24 32 -51 67 -61 78 -40 49 -114 145 -128 165 -8 13 -22 30 -31 39 -8 9 -31 36 -50 61 -18 25 -40 52 -46 60 -7 8 -110 139 -228 290 -218 278 -274 342 -317 360 -12 6 -108 54 -213 108 -104 54 -302 156 -440 226 -137 71 -331 170 -430 221 -99 51 -253 130 -343 176 -91 47 -169 94 -178 106 -21 32 -24 83 -8 115 8 15 34 46 58 68 25 23 74 70 109 103 471 452 503 481 554 507 41 20 118 39 138 34 6 -2 27 -5 47 -8z m3117 -636 c20 -25 38 -47 41 -50 3 -3 27 -34 55 -70 27 -36 54 -70 60 -76 5 -7 19 -24 30 -40 11 -15 44 -57 72 -93 29 -36 53 -73 54 -81 0 -8 2 -24 4 -35 4 -21 -31 -91 -49 -98 -9 -4 -290 -211 -331 -245 -5 -4 -26 -19 -45 -32 -19 -14 -37 -27 -40 -30 -9 -10 -365 -275 -374 -279 -17 -7 -70 -55 -123 -109 -42 -44 -161 -228 -208 -322 -11 -23 -44 -33 -62 -18 -15 12 -14 98 0 98 5 0 6 3 4 8 -8 12 31 199 46 224 8 13 39 70 69 128 31 58 75 141 98 185 23 44 62 117 86 163 24 45 65 121 90 170 26 48 61 114 79 147 56 104 121 226 182 343 33 62 72 126 86 142 51 53 118 42 176 -30z"/></g></svg>